<?xml version="1.0" encoding="utf-8"?>
<!-- Generator: Adobe Illustrator 17.0.0, SVG Export Plug-In . SVG Version: 6.00 Build 0)  -->
<!DOCTYPE svg PUBLIC "-//W3C//DTD SVG 1.1//EN" "http://www.w3.org/Graphics/SVG/1.1/DTD/svg11.dtd">
<svg version="1.1" id="Capa_1" xmlns="http://www.w3.org/2000/svg" xmlns:xlink="http://www.w3.org/1999/xlink" x="0px" y="0px"
	 width="33px" height="33px" viewBox="0 0 33 33" enable-background="new 0 0 33 33" xml:space="preserve">
<g>
	<g>
		<defs>
			<path id="SVGID_111_" d="M69,28.16c0,2.673-2.167,4.84-4.84,4.84H41.84C39.167,33,37,30.833,37,28.16V5.84
				C37,3.167,39.167,1,41.84,1H64.16C66.833,1,69,3.167,69,5.84V28.16z"/>
		</defs>
		<clipPath id="SVGID_2_">
			<use xlink:href="#SVGID_111_"  overflow="visible"/>
		</clipPath>
		<g clip-path="url(#SVGID_2_)">
			<path fill="#92CC78" d="M54.56,7.592c-0.305-0.509-0.595-0.909-0.785-1.351c-0.09-0.208-0.061-0.544,0.057-0.733
				c0.06-0.097,0.459-0.055,0.665,0.026c0.662,0.259,1.287,0.624,1.963,0.83c0.389,0.119,0.887,0.121,1.267-0.015
				c1.016-0.366,1.841-0.334,2.685,0.487c0.712,0.693,1.632,1.171,2.453,1.753c0.977,0.693,1.084,1.813,0.204,2.627
				c-0.218,0.201-0.617,0.317-0.92,0.295c-1.279-0.094-1.775,0.15-2.37,1.285c-0.068,0.129-0.139,0.291-0.254,0.355
				c-1.135,0.635-1.164,1.817-1.492,2.871c-0.146,0.47-0.493,0.885-0.783,1.301c-0.263,0.377-0.596,0.705-0.859,1.081
				c-0.46,0.658-0.874,1.347-1.337,2.003c-0.51,0.723-1.348,0.499-2.041,0.59c-1.298,0.172-1.53,0.437-1.745,1.768
				c-0.179,1.105-0.353,2.176,0.023,3.261c0.166,0.479,0.314,0.968,0.528,1.426c0.204,0.437,0.483,0.839,0.775,1.333
				c-0.331,0.125-0.568,0.214-0.861,0.324c0.119,0.338,0.239,0.677,0.358,1.016c0.129,0.369-0.016,0.537-0.391,0.608
				c-1.404,0.269-2.515-0.572-2.374-2.034c0.223-2.327-0.524-4.398-1.351-6.479c-0.116-0.292-0.192-0.6-0.317-0.999
				c-0.683,0.107-1.409,0.211-2.131,0.337c-2.454,0.429-4.897,0.579-7.276-0.368c-0.545-0.217-0.992-0.123-1.459,0.166
				c-0.894,0.553-1.783,1.119-2.706,1.622c-0.438,0.239-0.697,0.536-0.708,1.02c-0.029,1.223-0.133,2.46,0.848,3.449
				c0.293,0.296,0.595,0.616,0.281,1.157c-0.127,0.218,0.095,0.64,0.157,0.961c-1.186,0.59-1.744,0.438-2.245-0.647
				c-0.756-1.638-1.295-3.342-1.487-5.146c-0.031-0.291-0.077-0.588-0.167-0.865c-0.155-0.477-0.16-0.884,0.223-1.286
				c0.37-0.388,0.397-0.855,0.148-1.36c-0.938-1.903-0.894-3.969-0.714-5.979c0.085-0.949,0.416-2.012,1.297-2.727
				c0.429-0.348,0.694-0.896,1.119-1.251c0.906-0.756,2.049-0.975,3.169-0.995c2.609-0.045,5.221,0.007,7.831,0.059
				c1.069,0.021,2.136,0.206,3.203,0.195c0.745-0.008,1.484-0.266,2.232-0.331c0.765-0.067,1.541-0.007,2.309-0.057
				c0.434-0.028,0.919-0.065,1.277-0.276C53.461,8.543,53.983,8.046,54.56,7.592z"/>
		</g>
	</g>
</g>
<g>
	<path fill="#00BFA5" d="M13.87,2.022c2.782,0.591,4.478,4.758,4.157,7.156c-0.163,1.218-0.592,2.312-1.021,3.455
		c-0.338,0.901-0.566,2.181-1.405,2.756c-1.233-1.493-2.32-3.127-2.736-5.038c-0.408-1.877-0.53-4.173,0.119-6.016
		c0.257-0.73,0.535-1.478,0.84-2.189"/>
	<g>
		<path fill="#00BFA5" d="M27.661,33H5.339C2.395,33,0,30.604,0,27.66V5.34C0,2.396,2.395,0,5.339,0h22.321
			C30.605,0,33,2.396,33,5.34v22.32C33,30.604,30.605,33,27.661,33z M5.339,1C2.947,1,1,2.947,1,5.34v22.32
			C1,30.053,2.947,32,5.339,32h22.321C30.053,32,32,30.053,32,27.66V5.34C32,2.947,30.053,1,27.661,1H5.339z"/>
	</g>
	
		<ellipse transform="matrix(-0.9382 0.3461 -0.3461 -0.9382 31.8184 33.8509)" fill="#00BFA5" cx="12.887" cy="19.767" rx="8.996" ry="5.285"/>
	<path fill="#00BFA5" d="M26.721,14.556c0,2.148,0.284,5.303-1.864,5.303s-5.914-3.155-5.914-5.303s1.741-3.889,3.889-3.889
		S26.721,12.409,26.721,14.556z"/>
	<path fill="#FFFFFF" d="M25.542,14.953c0,0.943,0.125,2.327-0.818,2.327s-2.595-1.385-2.595-2.327s0.764-1.707,1.707-1.707
		S25.542,14.011,25.542,14.953z"/>
	<g>
		<path fill="#00BFA5" d="M28.759,12.135c0,0-0.068-0.022-0.186-0.061c-0.107-0.032-0.307-0.158-0.471-0.287
			c-0.164-0.127-0.355-0.274-0.559-0.433c-0.097-0.043-0.193-0.128-0.281-0.125c-0.085-0.035-0.166-0.002-0.233,0.005l-0.013,0.001
			c0.088-0.016,0.01,0.001,0.024,0l-0.049,0.021l-0.098,0.041c-0.076,0.025-0.079,0.063-0.118,0.09
			c-0.043,0.045-0.176,0.141-0.257,0.199c-0.203,0.127-0.424,0.218-0.632,0.286C25.474,12.018,25.106,12,25.106,12l-0.055-0.084
			c0,0,0.096-0.335,0.363-0.691c0.132-0.18,0.314-0.371,0.556-0.526c0.15-0.065,0.242-0.128,0.458-0.183
			c0.089-0.022,0.207-0.062,0.269-0.062l0.106-0.009l0.053-0.005l0.075-0.009l0.04,0.005c0.214,0.02,0.417,0.056,0.577,0.167
			c0.181,0.084,0.271,0.22,0.388,0.325c0.19,0.225,0.312,0.45,0.422,0.62c0.117,0.182,0.189,0.289,0.294,0.377
			c0.098,0.078,0.154,0.122,0.154,0.122L28.759,12.135z"/>
	</g>
	<g>
		<path fill="#00BFA5" d="M27.682,9.912c0,0-0.081,0.018-0.224,0.05c-0.128,0.036-0.398,0.024-0.641-0.007
			c-0.26-0.029-0.543-0.076-0.815-0.093c-0.129,0.007-0.264,0.002-0.368,0.049c-0.117,0.012-0.199,0.109-0.29,0.152l-0.008,0.005
			c-0.012,0.008,0.104-0.072,0.054-0.037l-0.001,0.001l-0.003,0.003l-0.005,0.006l-0.02,0.024l-0.041,0.047l-0.081,0.095
			l-0.159,0.191c-0.123,0.133-0.142,0.244-0.22,0.351c-0.076,0.103-0.151,0.166-0.256,0.266c-0.097,0.1-0.197,0.189-0.297,0.266
			c-0.396,0.322-0.79,0.455-0.79,0.455l-0.089-0.067c0,0-0.019-0.406,0.146-0.895c0.04-0.125,0.092-0.256,0.155-0.388
			c0.053-0.134,0.177-0.294,0.289-0.436c0.128-0.121,0.262-0.302,0.404-0.362c0.159-0.099,0.32-0.199,0.481-0.299
			c0.216-0.067,0.422-0.156,0.637-0.139c0.217-0.018,0.399,0.036,0.576,0.075c0.333,0.101,0.593,0.247,0.809,0.347
			c0.228,0.107,0.37,0.164,0.527,0.193C27.594,9.788,27.677,9.8,27.677,9.8L27.682,9.912z"/>
	</g>
	<g>
		<path fill="#FFFFFF" d="M7.62,15.86c0,0,0.29,0.735,0.726,1.837c0.189,0.479,0.409,1.038,0.645,1.637
			c0.136,0.278,0.228,0.573,0.368,0.852c0.122,0.286,0.243,0.572,0.391,0.846c0.106,0.295,0.286,0.548,0.408,0.833
			c0.13,0.281,0.304,0.531,0.432,0.809c0.137,0.272,0.312,0.513,0.445,0.776c0.127,0.272,0.302,0.49,0.435,0.729
			c0.144,0.227,0.248,0.484,0.383,0.669c0.131,0.188,0.233,0.38,0.323,0.535c0.178,0.314,0.272,0.53,0.272,0.53
			s-0.219,0.014-0.59-0.025c-0.37-0.039-0.91-0.108-1.488-0.363c-0.288-0.127-0.622-0.248-0.916-0.463
			c-0.296-0.209-0.635-0.416-0.92-0.701c-0.276-0.29-0.598-0.574-0.83-0.933c-0.244-0.35-0.49-0.713-0.664-1.112L6.781,21.72
			c-0.072-0.203-0.121-0.414-0.18-0.617c-0.129-0.406-0.16-0.826-0.206-1.222c-0.043-0.801,0.034-1.542,0.221-2.151
			c0.176-0.609,0.423-1.086,0.632-1.4C7.45,16.014,7.62,15.86,7.62,15.86z"/>
	</g>
	<g>
		<path fill="#FFFFFF" d="M11.62,13.86c0,0,0.29,0.735,0.726,1.837c0.189,0.479,0.409,1.038,0.645,1.637
			c0.136,0.278,0.228,0.573,0.368,0.852c0.122,0.286,0.243,0.572,0.391,0.846c0.106,0.295,0.286,0.548,0.408,0.833
			c0.13,0.281,0.304,0.531,0.432,0.809c0.137,0.272,0.312,0.513,0.445,0.776c0.127,0.272,0.302,0.49,0.435,0.729
			c0.144,0.227,0.248,0.484,0.383,0.669c0.131,0.188,0.233,0.38,0.323,0.535c0.178,0.314,0.272,0.53,0.272,0.53
			s-0.219,0.014-0.59-0.025c-0.37-0.039-0.91-0.108-1.488-0.363c-0.288-0.127-0.622-0.248-0.916-0.463
			c-0.296-0.209-0.635-0.416-0.92-0.701c-0.276-0.29-0.598-0.574-0.83-0.933c-0.244-0.35-0.49-0.713-0.664-1.112l-0.258-0.597
			c-0.072-0.203-0.121-0.414-0.18-0.617c-0.129-0.406-0.16-0.826-0.206-1.222c-0.043-0.801,0.034-1.542,0.221-2.151
			c0.176-0.609,0.423-1.086,0.632-1.4C11.45,14.014,11.62,13.86,11.62,13.86z"/>
	</g>
	<g>
		<path fill="#FFFFFF" d="M16.62,12.86c0,0,0.29,0.735,0.726,1.837c0.189,0.479,0.409,1.038,0.645,1.637
			c0.136,0.278,0.228,0.573,0.368,0.852c0.122,0.286,0.243,0.572,0.391,0.846c0.106,0.295,0.286,0.548,0.408,0.833
			c0.13,0.281,0.304,0.531,0.432,0.809c0.137,0.272,0.312,0.513,0.445,0.776c0.127,0.272,0.302,0.49,0.435,0.729
			c0.144,0.227,0.248,0.484,0.383,0.669c0.131,0.188,0.233,0.38,0.323,0.535c0.178,0.314,0.272,0.53,0.272,0.53
			s-0.219,0.014-0.59-0.025c-0.37-0.039-0.91-0.108-1.488-0.363c-0.288-0.127-0.622-0.248-0.916-0.463
			c-0.296-0.209-0.635-0.416-0.92-0.701c-0.276-0.29-0.598-0.574-0.83-0.933c-0.244-0.35-0.49-0.713-0.664-1.112l-0.258-0.597
			c-0.072-0.203-0.121-0.414-0.18-0.617c-0.129-0.406-0.16-0.826-0.206-1.222c-0.043-0.801,0.034-1.542,0.221-2.151
			c0.176-0.609,0.423-1.086,0.632-1.4C16.45,13.014,16.62,12.86,16.62,12.86z"/>
	</g>
	<path fill="#00BFA5" d="M7.112,3.824c3.417-0.429,7.133,2.872,7.797,5.228c0.337,1.197,0.318,2.372,0.321,3.593
		c0.002,0.963,0.292,2.24-0.416,3.074c-2.043-0.962-3.98-2.107-5.273-3.748C8.272,10.359,7.15,8.254,7.096,6.3
		C7.075,5.527,7.071,4.729,7.112,3.956"/>
</g>
</svg>
