<?xml version="1.0" encoding="utf-8"?>
<!-- Generator: Adobe Illustrator 17.0.0, SVG Export Plug-In . SVG Version: 6.00 Build 0)  -->
<!DOCTYPE svg PUBLIC "-//W3C//DTD SVG 1.1//EN" "http://www.w3.org/Graphics/SVG/1.1/DTD/svg11.dtd">
<svg version="1.1" id="Capa_1" xmlns="http://www.w3.org/2000/svg" xmlns:xlink="http://www.w3.org/1999/xlink" x="0px" y="0px"
	 width="33px" height="33px" viewBox="0 0 33 33" enable-background="new 0 0 33 33" xml:space="preserve">
<g>
	<path fill="#B2FF59" d="M0.461,22.609c-0.042,0-0.086-0.005-0.129-0.017c-0.267-0.071-0.426-0.345-0.355-0.611L2.27,13.35
		c0.071-0.268,0.345-0.428,0.612-0.355c0.267,0.071,0.426,0.345,0.355,0.611l-2.293,8.632C0.884,22.462,0.682,22.609,0.461,22.609z"
		/>
</g>
<g>
	<g>
		<path fill="#B2FF59" d="M27.66,33H5.339C2.395,33,0,30.604,0,27.66V5.34C0,2.396,2.395,0,5.339,0H27.66C30.604,0,33,2.396,33,5.34
			v22.32C33,30.604,30.604,33,27.66,33z M5.339,1C2.947,1,1,2.947,1,5.34v22.32C1,30.053,2.947,32,5.339,32H27.66
			c2.393,0,4.34-1.947,4.34-4.34V5.34C32,2.947,30.053,1,27.66,1H5.339z"/>
	</g>
	<g>
		<path fill="#B2FF59" d="M32.25,28.983c0,1.963-2.005,4.017-4.605,4.017H5.938C3.339,33,1,31.409,1,29.446l-0.486-5.239
			C0.514,22.244,3.339,21,5.938,21h21.708c2.599,0,4.704,1.244,4.704,3.207L32.25,28.983z"/>
	</g>
	<g>
		<path fill="#B2FF59" d="M3.461,22.609c-0.042,0-0.086-0.005-0.129-0.017c-0.267-0.071-0.426-0.345-0.355-0.611L5.27,13.35
			c0.071-0.268,0.345-0.428,0.612-0.355c0.267,0.071,0.426,0.345,0.355,0.611l-2.293,8.632C3.884,22.462,3.682,22.609,3.461,22.609z
			"/>
	</g>
	<g>
		<path fill="#B2FF59" d="M6.461,22.609c-0.042,0-0.086-0.005-0.129-0.017c-0.267-0.071-0.426-0.345-0.355-0.611L8.27,13.35
			c0.071-0.268,0.346-0.428,0.612-0.355c0.267,0.071,0.426,0.345,0.355,0.611l-2.293,8.632C6.884,22.462,6.682,22.609,6.461,22.609z
			"/>
	</g>
	<g>
		<path fill="#B2FF59" d="M9.461,22.609c-0.042,0-0.086-0.005-0.129-0.017c-0.267-0.071-0.426-0.345-0.355-0.611l2.292-8.632
			c0.071-0.268,0.34-0.428,0.611-0.355c0.268,0.071,0.426,0.345,0.355,0.611l-2.292,8.632C9.884,22.462,9.682,22.609,9.461,22.609z"
			/>
	</g>
	<g>
		<path fill="#B2FF59" d="M12.46,22.609c-0.042,0-0.085-0.005-0.128-0.017c-0.268-0.071-0.426-0.345-0.355-0.611l2.293-8.632
			c0.07-0.268,0.342-0.428,0.611-0.355c0.268,0.071,0.426,0.345,0.355,0.611l-2.293,8.632C12.884,22.462,12.682,22.609,12.46,22.609
			z"/>
	</g>
	<g>
		<path fill="#B2FF59" d="M15.46,22.609c-0.042,0-0.085-0.005-0.128-0.017c-0.268-0.071-0.426-0.345-0.355-0.611l2.293-8.632
			c0.071-0.268,0.34-0.428,0.611-0.355c0.268,0.071,0.426,0.345,0.355,0.611l-2.293,8.632C15.884,22.462,15.682,22.609,15.46,22.609
			z"/>
	</g>
	<g>
		<path fill="#B2FF59" d="M18.46,22.609c-0.042,0-0.085-0.005-0.128-0.017c-0.268-0.071-0.426-0.345-0.355-0.611l2.293-8.632
			c0.071-0.268,0.342-0.428,0.611-0.355c0.268,0.071,0.426,0.345,0.355,0.611l-2.293,8.632
			C18.884,22.462,18.682,22.609,18.46,22.609z"/>
	</g>
	<g>
		<path fill="#B2FF59" d="M21.46,22.609c-0.042,0-0.085-0.005-0.128-0.017c-0.268-0.071-0.426-0.345-0.355-0.611l2.293-8.632
			c0.071-0.268,0.34-0.428,0.611-0.355c0.268,0.071,0.426,0.345,0.355,0.611l-2.293,8.632C21.884,22.462,21.682,22.609,21.46,22.609
			z"/>
	</g>
	<g>
		<path fill="#B2FF59" d="M24.46,22.609c-0.042,0-0.085-0.005-0.128-0.017c-0.268-0.071-0.426-0.345-0.355-0.611l2.293-8.632
			c0.07-0.268,0.342-0.428,0.611-0.355c0.268,0.071,0.426,0.345,0.355,0.611l-2.293,8.632C24.884,22.462,24.682,22.609,24.46,22.609
			z"/>
	</g>
	<g>
		<path fill="#B2FF59" d="M27.46,22.609c-0.042,0-0.085-0.005-0.128-0.017c-0.268-0.071-0.426-0.345-0.355-0.611l2.293-8.632
			c0.071-0.268,0.34-0.428,0.611-0.355c0.268,0.071,0.426,0.345,0.355,0.611l-2.293,8.632C27.884,22.462,27.682,22.609,27.46,22.609
			z"/>
	</g>
	<g>
		<path fill="#B2FF59" d="M30.46,22.609c-0.045,0-0.09-0.006-0.135-0.019c-0.266-0.074-0.421-0.351-0.347-0.616l2.04-7.276
			c0.074-0.265,0.35-0.422,0.616-0.347c0.266,0.074,0.421,0.351,0.347,0.616l-2.04,7.276C30.88,22.465,30.679,22.609,30.46,22.609z"
			/>
	</g>
</g>
</svg>
