<?xml version="1.0" encoding="utf-8"?>
<!-- Generator: Adobe Illustrator 17.0.0, SVG Export Plug-In . SVG Version: 6.00 Build 0)  -->
<!DOCTYPE svg PUBLIC "-//W3C//DTD SVG 1.1//EN" "http://www.w3.org/Graphics/SVG/1.1/DTD/svg11.dtd">
<svg version="1.1" id="Capa_1" xmlns="http://www.w3.org/2000/svg" xmlns:xlink="http://www.w3.org/1999/xlink" x="0px" y="0px"
	 width="33px" height="33px" viewBox="0 0 33 33" enable-background="new 0 0 33 33" xml:space="preserve">
<g>
	<g>
		<path fill="#6E985B" d="M27.661,33H5.339C2.395,33,0,30.604,0,27.66V5.34C0,2.396,2.395,0,5.339,0h22.321
			C30.605,0,33,2.396,33,5.34v22.32C33,30.604,30.605,33,27.661,33z M5.339,1C2.947,1,1,2.947,1,5.34v22.32
			C1,30.053,2.947,32,5.339,32h22.321C30.053,32,32,30.053,32,27.66V5.34C32,2.947,30.053,1,27.661,1H5.339z"/>
	</g>
	<g>
		<path fill="#6E985B" d="M28.109,6.369c-0.811-0.154-1.04,0.194-1.162,0.826c-0.069,0.36-0.443,0.661-0.558,0.821
			c0.377,1.297,0.991,2.509,1.027,3.738c0.06,2.027-0.057,4.11-0.5,6.079c-0.198,0.878-1.292,1.639-2.119,2.268
			c-1.006,0.766-2.162,1.333-3.248,1.996c-0.174,0.106-0.342,0.24-0.471,0.396c-0.888,1.073-1.147,3.747-0.404,4.905
			c0.155,0.241,0.655,0.26,1.065,0.405c-0.195,0.593,0.276,0.649,0.808,0.78c0.687,0.17,1.34,0.48,2.008,0.729
			c-0.036,0.136-0.072,0.272-0.108,0.408c-0.634-0.079-1.269-0.159-1.903-0.238c0.004,0.06,0.008,0.12,0.011,0.18
			c-0.379,0.049-0.8,0.228-1.129,0.122c-0.874-0.283-1.618-1.147-2.789-0.377c1.507-1.768,0.333-3.289-0.094-4.846
			c-2.635-0.032-3.713,1.052-3.626,3.563c0.025,0.725,0.319,0.86,0.965,0.672c0.422-0.123,0.878-0.127,1.319-0.185
			c0.022,0.122,0.045,0.243,0.067,0.365c-0.535,0.191-1.07,0.381-1.703,0.607c0.612,0.321,1.144,0.6,1.676,0.879
			c-0.05,0.098-0.101,0.196-0.151,0.293c-1.044-0.085-2.034-0.229-2.919-0.97c-0.482-0.404-1.204-0.522-1.947-0.821
			c0.245-0.212,0.476-0.515,0.781-0.654c0.657-0.298,0.905-0.805,0.967-1.472c0.036-0.384,0.105-0.765,0.17-1.145
			c0.216-1.26,0.02-2.26-1.382-2.769c-0.441-0.16-0.77-0.697-1.091-1.109c-0.661-0.849-1.004-1.931-2.277-2.271
			c-0.521-0.139-0.818-0.979-1.317-1.376c-0.574-0.457-1.219-0.98-1.902-1.11c-1.092-0.208-1.893-0.789-2.656-1.479
			c-0.18-0.163-0.251-0.549-0.227-0.818c0.102-1.113,0.162-2.245,0.424-3.324c0.276-1.135,1.451-1.106,2.314-1.365
			c0.964-0.289,1.712,0.194,2.26,1.01c0.23,0.342,0.513,0.649,0.765,0.976c0.394,0.511,0.868,0.563,1.498,0.454
			c1.658-0.286,3.335-0.468,5.003-0.698c1.027-0.142,2.053-0.29,3.077-0.445c0.823-0.125,1.307-0.628,1.563-1.402
			c0.503-1.521,0.992-3.048,1.543-4.551c0.537-1.465,1.705-2.319,3.081-2.906c0.841-0.359,2.024,0.331,2.297,1.427
			c0.174,0.7,0.28,1.373,0.871,1.864C28.073,5.869,28.051,6.067,28.109,6.369z"/>
	</g>
</g>
<g>
	<g>
		<defs>
			<path id="SVGID_107_" d="M69,28.16c0,2.673-2.167,4.84-4.84,4.84H41.84C39.167,33,37,30.833,37,28.16V5.84
				C37,3.167,39.167,1,41.84,1H64.16C66.833,1,69,3.167,69,5.84V28.16z"/>
		</defs>
		<clipPath id="SVGID_2_">
			<use xlink:href="#SVGID_107_"  overflow="visible"/>
		</clipPath>
		<g clip-path="url(#SVGID_2_)">
			<path fill="#B2FF59" d="M52.251,20.591c0.07,0.74,0.152,1.348,0.177,1.958c0.03,0.711,0.073,1.432-0.003,2.136
				c-0.15,1.385,0.201,2.671,0.712,3.914c0.152,0.37,0.618,0.601,0.898,0.932c0.15,0.177,0.211,0.429,0.313,0.647
				c-0.203,0.087-0.408,0.251-0.61,0.247c-0.757-0.015-1.541,0.239-2.235-0.412c-0.232-0.218-0.796-0.093-1.208-0.107
				c-0.851-0.028-1.006-0.161-1.105-0.983c-0.011-0.091,0.015-0.242-0.029-0.266c-0.8-0.426-0.334-1.074-0.287-1.636
				c0.178-2.133,0.4-4.262,0.55-6.397c0.062-0.881-0.346-1.358-1.249-1.264c-1.206,0.126-2.381,0.514-3.581,0.729
				c-1.381,0.247-2.771,0.447-4.162,0.623c-0.354,0.045-0.747-0.026-1.092-0.135c-0.705-0.223-1.342-0.35-1.629,0.629
				c-0.444-0.305-0.83-0.524-1.168,0.024c-0.031,0.051-0.362-0.083-0.629-0.149c-0.43,1.445-0.628,2.966-0.093,4.514
				c0.387,1.119,0.816,2.211,1.748,3.023c0.152,0.132,0.294,0.426,0.247,0.589c-0.04,0.138-0.351,0.231-0.558,0.279
				c-0.29,0.067-0.594,0.091-0.894,0.101c-0.411,0.014-0.736-0.131-0.802-0.589c-0.057-0.397-0.142-0.731-0.669-0.686
				c-0.081,0.007-0.236-0.195-0.262-0.32c-0.14-0.668-0.195-1.358-0.381-2.011c-0.371-1.309-0.828-2.594-1.203-3.903
				c-0.096-0.334-0.014-0.718-0.014-1.094c-0.369-0.228-0.756-0.467-1.162-0.717c-1.047,1.347-1.793,2.844-2.203,4.49
				c-0.227,0.909-0.346,1.848-0.462,2.781c-0.09,0.722,0.187,1.353,0.619,1.933c0.139,0.186,0.307,0.551,0.228,0.655
				c-0.138,0.18-0.451,0.253-0.704,0.309c-0.221,0.048-0.461-0.003-0.692,0.014c-0.646,0.048-0.931-0.283-0.984-0.889
				c-0.03-0.347,0.102-0.758-0.387-0.939c-0.053-0.02-0.049-0.342,0.009-0.492c0.717-1.849,1.177-3.725,0.953-5.744
				c-0.068-0.609,0.19-1.251,0.266-1.881c0.099-0.824,0.235-1.651,0.235-2.477c-0.001-2.195-0.048-4.39-0.113-6.584
				c-0.054-1.812,0.596-2.857,2.359-3.467c1.592-0.55,3.183-0.915,4.939-0.847c1.919,0.074,3.855-0.364,5.786-0.544
				c1.885-0.176,3.775-0.303,5.663-0.459c0.645-0.053,1.287-0.137,1.931-0.196c1.315-0.122,2.624-0.229,3.906,0.258
				c1.087,0.413,2.213,0.456,3.346,0.209c0.196-0.043,0.467-0.088,0.554-0.226c0.469-0.75,1.161-0.675,1.85-0.528
				c0.858,0.182,1.502-0.202,1.999-0.786c0.708-0.832,1.146-0.845,1.717,0.071c0.119,0.191,0.274,0.388,0.461,0.503
				c0.721,0.447,1.204,1.019,1.62,1.803c0.598,1.127,1.504,2.095,2.306,3.109c0.332,0.419,0.79,0.772,0.446,1.386
				c-0.391,0.697-1.169,1.045-1.871,0.919c-0.628-0.113-1.268-0.17-1.904-0.236c-0.918-0.095-1.835-0.2-2.756-0.247
				c-0.342-0.018-0.76,0.014-1.028,0.194c-1.422,0.956-2.582,2.159-3.287,3.757c-0.147,0.334-0.372,0.636-0.572,0.945
				c-0.411,0.638-0.9,1.237-1.228,1.914C54.351,20.044,53.779,20.945,52.251,20.591z M50.739,25.047
				c-0.056-0.003-0.112-0.005-0.168-0.008c-0.152,1.105-0.361,2.216,0.522,3.193C50.975,27.17,50.857,26.109,50.739,25.047z"/>
		</g>
	</g>
</g>
</svg>
