<?xml version="1.0" encoding="utf-8"?>
<!-- Generator: Adobe Illustrator 17.0.0, SVG Export Plug-In . SVG Version: 6.00 Build 0)  -->
<!DOCTYPE svg PUBLIC "-//W3C//DTD SVG 1.1//EN" "http://www.w3.org/Graphics/SVG/1.1/DTD/svg11.dtd">
<svg version="1.1" id="Capa_1" xmlns="http://www.w3.org/2000/svg" xmlns:xlink="http://www.w3.org/1999/xlink" x="0px" y="0px"
	 width="33px" height="33px" viewBox="0 0 33 33" enable-background="new 0 0 33 33" xml:space="preserve">
<g>
	<path fill="#92CC78" d="M15.914,12.539c0.031-0.215,0.165-0.928,0.066-1.137c-0.14-0.296-0.213-0.621-0.357-0.909
		C15.396,10.04,14.832,9.374,15,8.825c0.57-0.232,1.828-0.587,1.859,0.321c0.022,0.66-0.016,1.333-0.014,1.996
		c-0.122-0.903,0.956-1.18,1.603-1.303c0.838-0.16,1.733-0.333,2.292-1.056c0.012,1.059,0.177,2.057-0.868,2.676
		c-0.447,0.265-1.117,0.369-1.629,0.392c-0.614,0.027-0.994-0.102-1.442,0.422"/>
	<g>
		<path fill="#92CC78" d="M27.661,33H5.339C2.395,33,0,30.604,0,27.66V5.34C0,2.396,2.395,0,5.339,0h22.321
			C30.605,0,33,2.396,33,5.34v22.32C33,30.604,30.605,33,27.661,33z M5.339,1C2.947,1,1,2.947,1,5.34v22.32
			C1,30.053,2.947,32,5.339,32h22.321C30.053,32,32,30.053,32,27.66V5.34C32,2.947,30.053,1,27.661,1H5.339z"/>
	</g>
	<ellipse fill="#92CC78" cx="16.472" cy="20.972" rx="10.558" ry="8.868"/>
	<path fill="#FFFFFF" d="M12.108,11.132c0,0-0.069,0.3-0.189,0.825c-0.132,0.519-0.265,1.275-0.445,2.17
		c-0.156,0.9-0.354,1.943-0.49,3.069c-0.093,0.56-0.121,1.145-0.194,1.734c-0.064,0.59-0.08,1.192-0.121,1.791
		c-0.003,0.599-0.041,1.201-0.018,1.79c0.049,0.586,0.006,1.174,0.09,1.729c0.078,0.554,0.078,1.106,0.193,1.608
		c0.107,0.502,0.146,0.997,0.271,1.43c0.122,0.433,0.219,0.838,0.306,1.2c0.1,0.356,0.232,0.65,0.319,0.904
		c0.183,0.503,0.277,0.801,0.277,0.801s-0.171-0.253-0.452-0.717c-0.133-0.235-0.323-0.511-0.49-0.85
		c-0.156-0.344-0.332-0.735-0.509-1.171c-0.191-0.431-0.298-0.928-0.453-1.444c-0.169-0.515-0.232-1.079-0.337-1.658
		c-0.113-0.579-0.13-1.185-0.181-1.799c-0.035-0.615-0.01-1.239-0.016-1.864c0.083-1.245,0.204-2.486,0.447-3.626
		c0.211-1.145,0.519-2.189,0.803-3.071c0.293-0.881,0.6-1.592,0.815-2.087C11.954,11.401,12.108,11.132,12.108,11.132z"/>
	<path fill="#FFFFFF" d="M21.148,11.132c0,0,0.154,0.269,0.373,0.763c0.214,0.495,0.522,1.206,0.815,2.087
		c0.284,0.882,0.593,1.926,0.803,3.071c0.243,1.14,0.364,2.382,0.447,3.626c-0.006,0.625,0.019,1.249-0.016,1.864
		c-0.05,0.614-0.068,1.22-0.181,1.799c-0.105,0.579-0.168,1.142-0.337,1.658c-0.155,0.517-0.262,1.013-0.453,1.444
		c-0.177,0.435-0.353,0.827-0.509,1.171c-0.167,0.34-0.357,0.615-0.49,0.85c-0.281,0.463-0.452,0.717-0.452,0.717
		s0.094-0.299,0.277-0.801c0.087-0.253,0.219-0.547,0.319-0.904c0.087-0.362,0.184-0.767,0.306-1.2
		c0.125-0.432,0.164-0.928,0.271-1.43c0.115-0.502,0.116-1.054,0.193-1.608c0.084-0.555,0.041-1.143,0.09-1.729
		c0.023-0.589-0.015-1.191-0.018-1.79c-0.042-0.6-0.057-1.202-0.121-1.791c-0.072-0.589-0.101-1.174-0.194-1.734
		c-0.135-1.126-0.334-2.169-0.49-3.069c-0.18-0.894-0.313-1.65-0.445-2.17C21.217,11.432,21.148,11.132,21.148,11.132z"/>
	<path fill="#FFFFFF" d="M16.5,12c0,0,0.044,0.281,0.097,0.773c0.043,0.492,0.133,1.195,0.189,2.039C16.912,16.5,16.996,18.75,17,21
		c-0.003,2.25-0.085,4.5-0.213,6.188c-0.056,0.844-0.147,1.547-0.19,2.039C16.544,29.719,16.5,30,16.5,30s-0.044-0.281-0.097-0.773
		c-0.043-0.492-0.134-1.195-0.19-2.039C16.086,25.5,16.003,23.25,16,21c0.004-2.25,0.087-4.5,0.214-6.188
		c0.056-0.844,0.146-1.547,0.189-2.039C16.456,12.281,16.5,12,16.5,12z"/>
	<path fill="#FFFFFF" d="M16.484,12.422c0,0-0.007-0.08-0.019-0.221c-0.01-0.07-0.013-0.156-0.002-0.262
		c0.013-0.095,0.073-0.235,0.156-0.315c0.083-0.089,0.139-0.206,0.276-0.283c0.117-0.082,0.265-0.193,0.402-0.236
		c0.139-0.058,0.282-0.118,0.428-0.18c0.139-0.054,0.301-0.138,0.456-0.175c0.309-0.083,0.626-0.155,0.905-0.248
		c0.143-0.041,0.281-0.08,0.412-0.117c0.11-0.034,0.246-0.104,0.335-0.164c0.18-0.128,0.332-0.265,0.426-0.368
		c0.094-0.105,0.147-0.165,0.147-0.165s-0.041,0.069-0.114,0.191c-0.079,0.117-0.184,0.293-0.385,0.462
		c-0.103,0.081-0.196,0.146-0.34,0.213c-0.131,0.049-0.269,0.101-0.412,0.154c-0.289,0.108-0.596,0.189-0.904,0.283
		c-0.16,0.033-0.285,0.099-0.443,0.153c-0.148,0.056-0.293,0.111-0.434,0.164c-0.152,0.049-0.241,0.112-0.361,0.171
		c-0.12,0.041-0.202,0.163-0.29,0.24c-0.097,0.085-0.132,0.151-0.173,0.242c-0.026,0.087-0.041,0.171-0.044,0.242
		C16.493,12.342,16.484,12.422,16.484,12.422z"/>
	<path fill="#92CC78" d="M3.573,10.891C3.354,9.997,3.086,8.968,3.623,8.134c0.495-0.768,2.365-0.871,3.063-1.417
		c1.229-0.962,0.962-3.374,2.591-3.721c1.946-0.414,3.526,1.703,3.495,3.461c-0.071,3.928-6.058,7.101-9.05,4.692L3.573,10.891z"/>
	<path fill="#FFFFFF" d="M6.208,7.063C6.51,7.537,6.89,7.884,7.467,7.967c0.622,0.089,1.361-0.159,1.539-0.822
		c0.156-0.58-0.168-1.345-0.7-1.632C7.819,5.25,7.539,5.669,7.331,6.055c-0.268,0.5-0.543,0.788-1.085,0.978"/>
</g>
</svg>
