<?xml version="1.0" encoding="utf-8"?>
<!-- Generator: Adobe Illustrator 17.0.0, SVG Export Plug-In . SVG Version: 6.00 Build 0)  -->
<!DOCTYPE svg PUBLIC "-//W3C//DTD SVG 1.1//EN" "http://www.w3.org/Graphics/SVG/1.1/DTD/svg11.dtd">
<svg version="1.1" id="Capa_1" xmlns="http://www.w3.org/2000/svg" xmlns:xlink="http://www.w3.org/1999/xlink" x="0px" y="0px"
	 width="33.5px" height="33px" viewBox="0 0 33.5 33" enable-background="new 0 0 33.5 33" xml:space="preserve">
<g>
	<g>
		<defs>
			<path id="SVGID_107_" d="M32.5,28.16c0,2.673-2.167,4.84-4.84,4.84H5.34c-2.673,0-4.84-2.167-4.84-4.84V5.84
				C0.5,3.167,2.667,1,5.34,1H27.66c2.673,0,4.84,2.167,4.84,4.84V28.16z"/>
		</defs>
		<clipPath id="SVGID_2_">
			<use xlink:href="#SVGID_107_"  overflow="visible"/>
		</clipPath>
		<g clip-path="url(#SVGID_2_)">
			<path fill="#B2FF59" d="M15.751,20.591c0.07,0.74,0.152,1.348,0.177,1.958c0.03,0.711,0.073,1.432-0.003,2.136
				c-0.15,1.385,0.201,2.671,0.712,3.914c0.152,0.37,0.618,0.601,0.898,0.932c0.15,0.177,0.211,0.429,0.313,0.647
				c-0.203,0.087-0.408,0.251-0.61,0.247c-0.757-0.015-1.541,0.239-2.235-0.412c-0.232-0.218-0.796-0.093-1.208-0.107
				c-0.851-0.028-1.006-0.161-1.105-0.983c-0.011-0.091,0.015-0.242-0.029-0.266c-0.8-0.426-0.334-1.074-0.287-1.636
				c0.178-2.133,0.4-4.262,0.55-6.397c0.062-0.881-0.346-1.358-1.249-1.264c-1.206,0.126-2.381,0.514-3.581,0.729
				c-1.381,0.247-2.771,0.447-4.162,0.623c-0.354,0.045-0.747-0.026-1.092-0.135c-0.705-0.223-1.342-0.35-1.629,0.629
				c-0.444-0.305-0.83-0.524-1.168,0.024c-0.031,0.051-0.362-0.083-0.629-0.149c-0.43,1.445-0.628,2.966-0.093,4.514
				c0.387,1.119,0.816,2.211,1.748,3.023c0.152,0.132,0.294,0.426,0.247,0.589c-0.04,0.138-0.351,0.231-0.558,0.279
				c-0.29,0.067-0.594,0.091-0.894,0.101c-0.411,0.014-0.736-0.131-0.802-0.589c-0.057-0.397-0.142-0.731-0.669-0.686
				c-0.081,0.007-0.236-0.195-0.262-0.32c-0.14-0.668-0.195-1.358-0.381-2.011c-0.371-1.309-0.828-2.594-1.203-3.903
				c-0.096-0.334-0.014-0.718-0.014-1.094c-0.369-0.228-0.756-0.467-1.162-0.717c-1.047,1.347-1.793,2.844-2.203,4.49
				c-0.227,0.909-0.346,1.848-0.462,2.781c-0.09,0.722,0.187,1.353,0.619,1.933c0.139,0.186,0.307,0.551,0.228,0.655
				c-0.138,0.18-0.451,0.253-0.704,0.309c-0.221,0.048-0.461-0.003-0.692,0.014c-0.646,0.048-0.931-0.283-0.984-0.889
				c-0.03-0.347,0.102-0.758-0.387-0.939c-0.053-0.02-0.049-0.342,0.009-0.492c0.717-1.849,1.177-3.725,0.953-5.744
				c-0.068-0.609,0.19-1.251,0.266-1.881c0.099-0.824,0.235-1.651,0.235-2.477c-0.001-2.195-0.048-4.39-0.113-6.584
				c-0.054-1.812,0.596-2.857,2.359-3.467c1.592-0.55,3.183-0.915,4.939-0.847c1.919,0.074,3.855-0.364,5.786-0.544
				c1.885-0.176,3.775-0.303,5.663-0.459c0.645-0.053,1.287-0.137,1.931-0.196c1.315-0.122,2.624-0.229,3.906,0.258
				c1.087,0.413,2.213,0.456,3.346,0.209c0.196-0.043,0.467-0.088,0.554-0.226c0.469-0.75,1.161-0.675,1.85-0.528
				c0.858,0.182,1.502-0.202,1.999-0.786c0.708-0.832,1.146-0.845,1.717,0.071c0.119,0.191,0.274,0.388,0.461,0.503
				c0.721,0.447,1.204,1.019,1.62,1.803c0.598,1.127,1.504,2.095,2.306,3.109c0.332,0.419,0.79,0.772,0.446,1.386
				c-0.391,0.697-1.169,1.045-1.871,0.919c-0.628-0.113-1.268-0.17-1.904-0.236c-0.918-0.095-1.835-0.2-2.756-0.247
				c-0.342-0.018-0.76,0.014-1.028,0.194c-1.422,0.956-2.582,2.159-3.287,3.757c-0.147,0.334-0.372,0.636-0.572,0.945
				c-0.411,0.638-0.9,1.237-1.228,1.914C17.851,20.044,17.279,20.945,15.751,20.591z M14.239,25.047
				c-0.056-0.003-0.112-0.005-0.168-0.008c-0.152,1.105-0.361,2.216,0.522,3.193C14.475,27.17,14.357,26.109,14.239,25.047z"/>
		</g>
	</g>
	<g>
		<path fill="#B2FF59" d="M28.161,33H5.839C2.895,33,0.5,30.604,0.5,27.66V5.34C0.5,2.396,2.895,0,5.839,0h22.321
			C31.105,0,33.5,2.396,33.5,5.34v22.32C33.5,30.604,31.105,33,28.161,33z M5.839,1C3.447,1,1.5,2.947,1.5,5.34v22.32
			C1.5,30.053,3.447,32,5.839,32h22.321c2.393,0,4.339-1.947,4.339-4.34V5.34C32.5,2.947,30.553,1,28.161,1H5.839z"/>
	</g>
</g>
<g>
	<g>
		<defs>
			<path id="SVGID_109_" d="M69.5,28.16c0,2.673-2.167,4.84-4.84,4.84H42.34c-2.673,0-4.84-2.167-4.84-4.84V5.84
				C37.5,3.167,39.667,1,42.34,1H64.66c2.673,0,4.84,2.167,4.84,4.84V28.16z"/>
		</defs>
		<clipPath id="SVGID_4_">
			<use xlink:href="#SVGID_109_"  overflow="visible"/>
		</clipPath>
		<g clip-path="url(#SVGID_4_)">
			<path fill="#92CC78" d="M33.43,22.775c0.599-0.474,0.779-1.106,0.729-1.902c-0.069-1.093,0.032-2.198,0.085-3.297
				c0.06-1.228-0.195-2.379-0.963-3.34c-0.722-0.904-0.672-2.551,0.179-3.402c0.283-0.283,0.623-0.577,0.922-0.242
				c0.202,0.226,0.224,0.711,0.158,1.047c-0.056,0.286-0.437,0.5-0.523,0.79c-0.114,0.387-0.083,0.818-0.113,1.23
				c0.314-0.011,0.636,0.019,0.939-0.045c0.264-0.056,0.508-0.214,0.757-0.335c1.031-0.501,2.09-0.863,3.263-0.731
				c1.099,0.123,2.199,0.24,3.3,0.351c2.111,0.213,4.211,0.447,6.302-0.256c0.72-0.242,1.536-0.213,2.311-0.268
				c1.097-0.078,2.106-0.316,2.761-1.309c0.457-0.693,0.917-1.384,1.357-2.087c0.377-0.602,0.655-1.205,0.193-1.927
				c-0.134-0.209-0.098-0.59-0.02-0.856c0.128-0.437,0.507-0.565,0.767-0.174c0.421,0.634,0.897,0.719,1.394,0.598
				c-0.016-0.031-0.03-0.058-0.048-0.093c-0.033-0.057-0.069-0.145-0.108-0.196c-0.038-0.049-0.079-0.102-0.123-0.158
				c-0.042-0.06-0.088-0.123-0.135-0.19c-0.067-0.065-0.137-0.134-0.211-0.206c-0.138-0.157-0.327-0.286-0.526-0.43
				c-0.197-0.146-0.439-0.256-0.683-0.38c-0.257-0.097-0.521-0.214-0.81-0.271C54.301,4.607,54,4.591,53.699,4.546
				c-0.3,0.003-0.608-0.025-0.904,0.027c-0.303,0.017-0.584,0.106-0.866,0.175c-0.261,0.11-0.54,0.188-0.758,0.34
				c-0.114,0.07-0.225,0.138-0.332,0.204c-0.1,0.076-0.186,0.162-0.276,0.238c-0.189,0.146-0.318,0.32-0.435,0.475
				c-0.06,0.077-0.116,0.149-0.168,0.216c-0.039,0.075-0.074,0.143-0.106,0.206c-0.13,0.251-0.204,0.395-0.204,0.395
				s0.053-0.153,0.146-0.422c0.024-0.068,0.05-0.143,0.078-0.225c0.043-0.075,0.089-0.157,0.138-0.244
				c0.098-0.176,0.207-0.379,0.382-0.56c0.083-0.094,0.163-0.2,0.259-0.296c0.105-0.087,0.212-0.178,0.324-0.271
				c0.217-0.199,0.499-0.327,0.775-0.49c0.294-0.121,0.598-0.263,0.929-0.332c0.325-0.104,0.668-0.126,1.012-0.175
				c0.344-0.001,0.694-0.028,1.034,0.025c0.345,0.02,0.675,0.108,1,0.182c0.314,0.104,0.628,0.2,0.904,0.344
				c0.278,0.142,0.543,0.278,0.761,0.455c0.113,0.084,0.221,0.164,0.323,0.24c0.098,0.099,0.191,0.193,0.279,0.282
				c0.181,0.184,0.324,0.346,0.389,0.453c0.165,0.231,0.259,0.362,0.259,0.362l0.043,0.1c0.212,0.036,0.212,0.149,0.402,0.343
				c0.642,0.654,1.319,1.273,1.973,1.916c0.228,0.224,0.539,0.445,0.616,0.721c0.114,0.408,0.181,0.917,0.033,1.289
				c-0.193,0.485-0.677,0.678-1.265,0.626c-0.987-0.086-1.983-0.064-2.972-0.133c-0.691-0.048-1.016,0.243-1.118,0.911
				c-0.197,1.28-0.771,2.394-1.487,3.469c-0.413,0.62-0.736,1.345-0.909,2.068c-0.272,1.133-0.907,1.998-1.66,2.824
				c-0.245,0.268-0.546,0.546-0.647,0.873c-0.34,1.103-0.632,2.225-0.21,3.39c0.073,0.201,0.046,0.457,0.005,0.677
				c-0.298,1.603-0.528,3.189,0.47,4.668c0.092,0.137,0.074,0.501-0.035,0.593c-0.463,0.393-1.311,0.012-1.425-0.582
				c-0.038-0.198-0.157-0.39-0.272-0.563c-0.191-0.286-0.538-0.532-0.59-0.834c-0.131-0.756-0.113-1.536-0.191-2.302
				c-0.149-1.444-0.304-2.888-0.494-4.328c-0.142-1.073-0.286-1.137-1.324-0.761c-0.065,0.024-0.126,0.064-0.192,0.078
				c-1.054,0.219-2.101,0.538-3.166,0.627c-1.761,0.148-3.417-0.427-5.05-1.02c-0.617-0.224-0.857-0.063-0.868,0.581
				c-0.003,0.205-0.058,0.41-0.095,0.649c-1.055-0.548-1.32-0.417-1.666,0.683c-0.091,0.291-0.242,0.563-0.388,0.892
				c-0.266-0.172-0.429-0.278-0.66-0.428c-0.111,0.282-0.272,0.507-0.279,0.737c-0.05,1.513-0.312,3.047,0.385,4.498
				c0.218,0.455,0.104,0.755-0.432,0.839c-0.132,0.02-0.256,0.086-0.374,0.127c-0.123,0.41,0.385,0.931-0.307,1.033
				c-0.438,0.064-0.953,0.174-1.167-0.434c-0.325-0.922-0.693-1.815-0.557-2.851c0.085-0.649,0.031-1.354-0.131-1.99
				C32.383,24.135,32.634,23.404,33.43,22.775z"/>
		</g>
	</g>
</g>
</svg>
