<?xml version="1.0" encoding="utf-8"?>
<!-- Generator: Adobe Illustrator 17.0.0, SVG Export Plug-In . SVG Version: 6.00 Build 0)  -->
<!DOCTYPE svg PUBLIC "-//W3C//DTD SVG 1.1//EN" "http://www.w3.org/Graphics/SVG/1.1/DTD/svg11.dtd">
<svg version="1.1" id="Capa_1" xmlns="http://www.w3.org/2000/svg" xmlns:xlink="http://www.w3.org/1999/xlink" x="0px" y="0px"
	 width="33px" height="33px" viewBox="0 0 33 33" enable-background="new 0 0 33 33" xml:space="preserve">
<g>
	<g>
		<path fill="#92CC78" d="M27.661,33H5.339C2.395,33,0,30.604,0,27.66V5.34C0,2.396,2.395,0,5.339,0h22.321
			C30.605,0,33,2.396,33,5.34v22.32C33,30.604,30.605,33,27.661,33z M5.339,1C2.947,1,1,2.947,1,5.34v22.32
			C1,30.053,2.947,32,5.339,32h22.321C30.053,32,32,30.053,32,27.66V5.34C32,2.947,30.053,1,27.661,1H5.339z"/>
	</g>
	<g>
		<path fill="#92CC78" d="M16.072,8.323c0.038-0.254,0.2-1.097,0.08-1.344c-0.17-0.35-0.259-0.734-0.434-1.075
			c-0.275-0.536-0.96-1.324-0.756-1.973c0.691-0.274,2.22-0.694,2.257,0.38c0.027,0.78-0.02,1.576-0.017,2.36
			c-0.148-1.067,1.161-1.395,1.946-1.541c1.018-0.189,2.103-0.393,2.782-1.248c0.014,1.252,0.215,2.432-1.054,3.164
			c-0.542,0.313-1.356,0.436-1.978,0.463c-0.746,0.032-1.207-0.12-1.75,0.499"/>
		<ellipse fill="#92CC78" cx="16.749" cy="18.293" rx="12.817" ry="10.485"/>
		<path fill="#FFFFFF" d="M11.452,6.66c0,0-0.352,1.42-0.77,3.54c-0.189,1.064-0.43,2.298-0.594,3.629
			c-0.112,0.662-0.147,1.353-0.235,2.049c-0.078,0.697-0.097,1.409-0.147,2.118c-0.003,0.709-0.05,1.42-0.022,2.117
			c0.059,0.693,0.007,1.388,0.109,2.044c0.094,0.655,0.095,1.308,0.235,1.901c0.13,0.593,0.177,1.179,0.33,1.69
			c0.138,0.519,0.265,0.995,0.377,1.417c0.127,0.418,0.281,0.769,0.384,1.069c0.212,0.604,0.334,0.948,0.334,0.948
			s-0.201-0.308-0.551-0.846c-0.164-0.277-0.401-0.6-0.598-1.004c-0.182-0.413-0.388-0.878-0.612-1.386
			c-0.232-0.51-0.362-1.097-0.55-1.708c-0.206-0.609-0.282-1.276-0.409-1.96c-0.137-0.684-0.158-1.401-0.219-2.127
			c-0.042-0.727-0.012-1.465-0.019-2.204c0.101-1.471,0.248-2.939,0.543-4.287c0.256-1.354,0.63-2.588,0.975-3.631
			C10.717,7.943,11.452,6.66,11.452,6.66z"/>
		<path fill="#FFFFFF" d="M22.425,6.66c0,0,0.734,1.283,1.441,3.37c0.345,1.043,0.719,2.277,0.975,3.631
			c0.295,1.348,0.442,2.816,0.543,4.287c-0.007,0.739,0.023,1.477-0.019,2.204c-0.061,0.726-0.083,1.443-0.219,2.127
			c-0.127,0.684-0.203,1.351-0.409,1.96c-0.188,0.611-0.318,1.198-0.55,1.708c-0.224,0.508-0.43,0.974-0.612,1.386
			c-0.197,0.404-0.434,0.728-0.598,1.004c-0.351,0.539-0.551,0.846-0.551,0.846s0.121-0.345,0.334-0.948
			c0.103-0.301,0.257-0.651,0.384-1.069c0.112-0.422,0.239-0.898,0.377-1.417c0.152-0.511,0.199-1.097,0.33-1.69
			c0.14-0.593,0.14-1.246,0.235-1.901c0.102-0.656,0.05-1.351,0.11-2.044c0.028-0.697-0.019-1.408-0.022-2.117
			c-0.051-0.709-0.07-1.421-0.147-2.118c-0.088-0.696-0.123-1.388-0.235-2.049c-0.164-1.331-0.405-2.564-0.594-3.629
			C22.777,8.08,22.425,6.66,22.425,6.66z"/>
		<path fill="#FFFFFF" d="M16.783,7.686c0,0,0.203,1.33,0.347,3.325c0.154,1.995,0.255,4.655,0.26,7.315
			c-0.004,2.66-0.104,5.32-0.258,7.315c-0.144,1.995-0.348,3.325-0.348,3.325s-0.204-1.33-0.349-3.325
			c-0.154-1.995-0.254-4.655-0.258-7.315c0.004-2.66,0.106-5.32,0.26-7.315C16.58,9.016,16.783,7.686,16.783,7.686z"/>
		<path fill="#FFFFFF" d="M16.764,8.185c0,0-0.009-0.095-0.023-0.262c-0.012-0.083-0.015-0.185-0.002-0.309
			c0.016-0.113,0.089-0.278,0.189-0.372c0.101-0.106,0.169-0.244,0.335-0.335c0.142-0.098,0.321-0.228,0.488-0.279
			c0.169-0.069,0.343-0.14,0.52-0.212c0.169-0.063,0.365-0.164,0.553-0.207c0.376-0.098,0.76-0.183,1.099-0.294
			c0.174-0.048,0.341-0.094,0.501-0.139c0.133-0.04,0.299-0.124,0.407-0.193c0.218-0.151,0.403-0.314,0.517-0.435
			c0.114-0.124,0.179-0.195,0.179-0.195s-0.05,0.082-0.138,0.226c-0.096,0.139-0.223,0.346-0.467,0.546
			c-0.125,0.096-0.238,0.172-0.413,0.252c-0.159,0.058-0.327,0.119-0.5,0.182c-0.351,0.127-0.724,0.224-1.098,0.334
			c-0.194,0.039-0.347,0.118-0.538,0.181c-0.179,0.066-0.356,0.131-0.527,0.194c-0.185,0.058-0.293,0.132-0.438,0.202
			c-0.146,0.049-0.245,0.192-0.352,0.283c-0.118,0.101-0.16,0.178-0.21,0.286c-0.032,0.103-0.05,0.202-0.053,0.286
			C16.774,8.09,16.764,8.185,16.764,8.185z"/>
	</g>
</g>
</svg>
