<?xml version="1.0" encoding="utf-8"?>
<!-- Generator: Adobe Illustrator 17.0.0, SVG Export Plug-In . SVG Version: 6.00 Build 0)  -->
<!DOCTYPE svg PUBLIC "-//W3C//DTD SVG 1.1//EN" "http://www.w3.org/Graphics/SVG/1.1/DTD/svg11.dtd">
<svg version="1.1" id="Capa_1" xmlns="http://www.w3.org/2000/svg" xmlns:xlink="http://www.w3.org/1999/xlink" x="0px" y="0px"
	 width="33px" height="33px" viewBox="0 0 33 33" enable-background="new 0 0 33 33" xml:space="preserve">
<g>
	<g>
		<path fill="#6E985B" d="M27.661,33H5.339C2.395,33,0,30.604,0,27.66V5.34C0,2.396,2.395,0,5.339,0h22.321
			C30.605,0,33,2.396,33,5.34v22.32C33,30.604,30.605,33,27.661,33z M5.339,1C2.947,1,1,2.947,1,5.34v22.32
			C1,30.053,2.947,32,5.339,32h22.321C30.053,32,32,30.053,32,27.66V5.34C32,2.947,30.053,1,27.661,1H5.339z"/>
	</g>
	<g>
		<g>
			<path fill="#6E985B" d="M18.883,26.052c-3.803-1.734-6.998-4.359-9.859-7.373c-1.685-1.775-1.53-4.182,0.234-5.565
				c1.839-1.441,4.333-1.12,5.697,0.851c0.868,1.255,1.545,2.641,2.316,3.964c2.656,4.557,6.379,7.265,11.929,6.962
				C25.951,26.957,22.499,27.7,18.883,26.052z M19.465,22.971c-1.068-1.588-2.135-3.175-3.203-4.763
				c-0.158,0.135-0.315,0.27-0.473,0.404C16.884,20.172,17.164,22.374,19.465,22.971z M15.232,16.812
				c0.194-0.154,0.388-0.309,0.582-0.463c-0.836-1.059-1.673-2.118-2.509-3.177c-0.123,0.129-0.245,0.259-0.368,0.388
				C13.702,14.644,14.467,15.728,15.232,16.812z"/>
		</g>
		<g>
			<path fill="#6E985B" d="M5.905,6.397c-1.793,1.729-1.318,3.081,1.539,5.605c-0.082,0.861-0.157,1.66-0.233,2.458
				c0.872-1.874,2.29-2.731,4.226-3.216c-0.679-0.072-1.37-0.263-2.034-0.195c-1.771,0.182-2.556-0.417-2.815-2.182
				C6.478,8.115,6.186,7.388,5.905,6.397z"/>
		</g>
		<g>
			<path fill="#6E985B" d="M15.789,18.612c1.094,1.56,1.375,3.762,3.675,4.359c-1.068-1.588-2.135-3.175-3.203-4.763
				C16.104,18.342,15.947,18.477,15.789,18.612z"/>
		</g>
		<g>
			<path fill="#6E985B" d="M12.936,13.56c0.765,1.084,1.531,2.168,2.296,3.252c0.194-0.154,0.388-0.309,0.582-0.463
				c-0.836-1.059-1.673-2.118-2.509-3.177C13.182,13.301,13.059,13.431,12.936,13.56z"/>
		</g>
		<g>
			<path fill="#6E985B" d="M13.07,14.606c0,0,0.584,2.045,2.045,4.254"/>
		</g>
	</g>
</g>
</svg>
