<?xml version="1.0" encoding="utf-8"?>
<!-- Generator: Adobe Illustrator 17.0.0, SVG Export Plug-In . SVG Version: 6.00 Build 0)  -->
<!DOCTYPE svg PUBLIC "-//W3C//DTD SVG 1.1//EN" "http://www.w3.org/Graphics/SVG/1.1/DTD/svg11.dtd">
<svg version="1.1" id="Capa_1" xmlns="http://www.w3.org/2000/svg" xmlns:xlink="http://www.w3.org/1999/xlink" x="0px" y="0px"
	 width="33px" height="33px" viewBox="0 0 33 33" enable-background="new 0 0 33 33" xml:space="preserve">
<g>
	<g>
		<g>
			<path fill="#00BFA5" d="M33,27.66c0,2.949-2.391,5.34-5.34,5.34H5.34C2.391,33,0,30.609,0,27.66V5.34C0,2.391,2.391,0,5.34,0
				h22.32C30.609,0,33,2.391,33,5.34V27.66z M32,5.34C32,2.943,30.057,1,27.661,1H5.339C2.943,1,1,2.943,1,5.34v22.32
				C1,30.057,2.943,32,5.339,32h22.321C30.057,32,32,30.057,32,27.66V5.34z"/>
		</g>
	</g>
	<g>
		<rect x="7" y="15" fill="#00BFA5" width="19" height="17"/>
		<polygon fill="#00BFA5" points="16.797,17 3.47,17 10.133,11.806 16.797,6.541 23.46,11.77 30.124,17 		"/>
		<rect x="14" y="24" fill="#FFFFFF" width="6" height="8"/>
	</g>
</g>
</svg>
