<?xml version="1.0" encoding="utf-8"?>
<!-- Generator: Adobe Illustrator 17.0.0, SVG Export Plug-In . SVG Version: 6.00 Build 0)  -->
<!DOCTYPE svg PUBLIC "-//W3C//DTD SVG 1.1//EN" "http://www.w3.org/Graphics/SVG/1.1/DTD/svg11.dtd">
<svg version="1.1" id="Capa_1" xmlns="http://www.w3.org/2000/svg" xmlns:xlink="http://www.w3.org/1999/xlink" x="0px" y="0px"
	 width="33px" height="33px" viewBox="0 0 33 33" enable-background="new 0 0 33 33" xml:space="preserve">
<g>
	<g>
		<defs>
			<path id="SVGID_95_" d="M-4,28.16C-4,30.833-6.167,33-8.84,33H-31.16c-2.673,0-4.84-2.167-4.84-4.84V5.84
				C-36,3.167-33.833,1-31.16,1H-8.84C-6.167,1-4,3.167-4,5.84V28.16z"/>
		</defs>
		<clipPath id="SVGID_2_">
			<use xlink:href="#SVGID_95_"  overflow="visible"/>
		</clipPath>
		<g clip-path="url(#SVGID_2_)">
			<g>
				<path fill="#6E985B" d="M-12.331,26.489l-0.793-0.531C-9.455,21.36-3.781,14-2.358,12h-1.296l0.035-0.691
					c0.518-8.218,0.754-12.023,0.957-13.72l-10.823,1.352l-6.551,18.786l-0.964-0.361l6.763-19.415l11.769-1.509
					c0.107-0.33,0.227-0.325,0.393-0.322c0.099,0.003,0.281,0.035,0.398,0.219l3.142-0.402L0.315-2.958
					c-0.381,0.366-1.274,1.286-2.031,1.205C-1.914,0.813-2.29,6-2.562,11h1.314l0.17,0.16C-0.907,11.529-0.673,11.876-12.331,26.489
					z"/>
			</g>
		</g>
	</g>
</g>
<g>
	<g>
		<path fill="#00BFA5" d="M27.661,33H5.339C2.395,33,0,30.604,0,27.66V5.34C0,2.396,2.395,0,5.339,0h22.321
			C30.605,0,33,2.396,33,5.34v22.32C33,30.604,30.605,33,27.661,33z M5.339,1C2.947,1,1,2.947,1,5.34v22.32
			C1,30.053,2.947,32,5.339,32h22.321C30.053,32,32,30.053,32,27.66V5.34C32,2.947,30.053,1,27.661,1H5.339z"/>
	</g>
	<g>
		<g>
			<g>
				<g>
					<g>
						<path fill="#00BFA5" d="M16.825,5.616L16.72,2.174c-0.008-0.267-0.231-0.477-0.498-0.469s-0.477,0.231-0.469,0.498L15.86,5.75
							c-1.217,0.217-2.37,0.618-3.42,1.19l-1.162-2.953C11.18,3.738,10.9,3.616,10.651,3.714c-0.249,0.098-0.371,0.379-0.273,0.628
							l1.224,3.108c-1.314,0.871-2.434,2.007-3.288,3.333l-2.569-1.45C5.512,9.201,5.217,9.283,5.086,9.516
							c-0.132,0.233-0.049,0.528,0.183,0.659l2.551,1.441c-0.706,1.335-1.148,2.828-1.271,4.41l-3.451,0.02
							c-0.267,0.001-0.483,0.219-0.481,0.487c0.002,0.267,0.219,0.483,0.487,0.481l3.403-0.019c0.011,1.706,0.409,3.316,1.092,4.764
							l-2.897,1.397C4.461,23.271,4.36,23.56,4.476,23.8c0.116,0.241,0.405,0.342,0.646,0.226l2.925-1.41
							c0.726,1.247,1.678,2.342,2.806,3.229L9.282,28.44c-0.138,0.229-0.066,0.526,0.163,0.665c0.229,0.139,0.526,0.065,0.665-0.163
							l1.53-2.526c1.269,0.833,2.717,1.412,4.27,1.682l-0.048,2.699c-0.005,0.267,0.208,0.488,0.475,0.493
							c0.267,0.005,0.488-0.208,0.493-0.475l0.046-2.586"/>
					</g>
				</g>
			</g>
		</g>
		<g>
			<g>
				<path fill="#00BFA5" d="M18.085,28.49c-0.271,0-0.49-0.22-0.49-0.49s0.22-0.49,0.49-0.49c5.715,0,10.365-4.65,10.365-10.366
					S23.8,6.778,18.085,6.778c-0.271,0-0.49-0.22-0.49-0.49s0.22-0.49,0.49-0.49c6.256,0,11.346,5.09,11.346,11.346
					C29.431,23.4,24.341,28.49,18.085,28.49z"/>
			</g>
		</g>
	</g>
</g>
</svg>
