<?xml version="1.0" encoding="utf-8"?>
<!-- Generator: Adobe Illustrator 17.0.0, SVG Export Plug-In . SVG Version: 6.00 Build 0)  -->
<!DOCTYPE svg PUBLIC "-//W3C//DTD SVG 1.1//EN" "http://www.w3.org/Graphics/SVG/1.1/DTD/svg11.dtd">
<svg version="1.1" id="Capa_1" xmlns="http://www.w3.org/2000/svg" xmlns:xlink="http://www.w3.org/1999/xlink" x="0px" y="0px"
	 width="33px" height="33px" viewBox="0 0 33 33" enable-background="new 0 0 33 33" xml:space="preserve">
<g>
	<path fill="#92CC78" d="M27.661,33H5.339C2.395,33,0,30.604,0,27.66V5.34C0,2.396,2.395,0,5.339,0h22.321
		C30.605,0,33,2.396,33,5.34v22.32C33,30.604,30.605,33,27.661,33z M5.339,1C2.947,1,1,2.947,1,5.34v22.32
		C1,30.053,2.947,32,5.339,32h22.321C30.053,32,32,30.053,32,27.66V5.34C32,2.947,30.053,1,27.661,1H5.339z"/>
</g>
<g>
	<path fill="#92CC78" d="M3.403,12.231c0,0,0.13,0.093,0.358,0.256c0.234,0.137,0.551,0.328,0.974,0.528
		c0.844,0.386,2.003,0.813,3.168,1.15c0.585,0.162,1.201,0.209,1.728,0.33c0.526,0.153,0.985,0.334,1.391,0.527
		c0.196,0.068,0.388,0.175,0.555,0.243c0.175,0.077,0.327,0.143,0.452,0.198c0.253,0.091,0.443,0.174,0.443,0.174l0.013,0.006
		c0.061,0.026,0.089,0.097,0.062,0.158c-0.004,0.01-0.011,0.02-0.017,0.028c0,0-0.119,0.145-0.406,0.345
		c-0.282,0.184-0.729,0.356-1.271,0.439c-0.531,0.071-1.162,0.066-1.772-0.108c-0.617-0.174-1.185-0.566-1.776-0.855
		c-1.171-0.61-2.246-1.373-2.97-2.044c-0.358-0.334-0.651-0.641-0.828-0.872c-0.158-0.231-0.248-0.363-0.248-0.363
		c-0.032-0.046-0.02-0.109,0.027-0.141C3.322,12.205,3.369,12.207,3.403,12.231z"/>
	<path fill="#FFFFFF" d="M10.212,16.781c-0.411,0-0.803-0.053-1.166-0.156c-0.434-0.122-0.845-0.35-1.243-0.569
		c-0.184-0.102-0.368-0.203-0.554-0.294c-1.125-0.586-2.217-1.338-3-2.064c-0.373-0.349-0.664-0.655-0.843-0.888L3.156,12.44
		c-0.034-0.049-0.047-0.109-0.035-0.17c0.011-0.06,0.045-0.11,0.095-0.145c0.078-0.053,0.186-0.049,0.26,0.004l0.421,0.292
		c0.229,0.135,0.516,0.303,0.891,0.48c0.88,0.402,2.029,0.819,3.149,1.143c0.329,0.091,0.672,0.146,1.004,0.198
		c0.252,0.04,0.489,0.078,0.717,0.13c0.5,0.146,0.975,0.326,1.417,0.536c0.109,0.037,0.228,0.094,0.341,0.146
		c0.072,0.034,0.142,0.066,0.207,0.093l0.456,0.2c0.25,0.09,0.443,0.173,0.443,0.173c0.136,0.061,0.193,0.204,0.14,0.327
		c-0.011,0.025-0.024,0.045-0.038,0.062c-0.002,0.004-0.13,0.158-0.429,0.366c-0.329,0.214-0.81,0.381-1.324,0.46
		C10.651,16.767,10.43,16.781,10.212,16.781z M3.425,12.4l0.186,0.263c0.164,0.213,0.453,0.518,0.811,0.851
		c0.766,0.712,1.839,1.45,2.942,2.024c0.187,0.092,0.375,0.195,0.562,0.299c0.385,0.213,0.783,0.433,1.19,0.548
		c0.522,0.149,1.124,0.187,1.722,0.104c0.478-0.074,0.923-0.228,1.22-0.42c0.263-0.184,0.376-0.319,0.377-0.32h0
		c-0.016,0-0.201-0.08-0.446-0.169l-0.46-0.201c-0.066-0.026-0.14-0.061-0.216-0.097c-0.105-0.05-0.216-0.103-0.33-0.142
		c-0.443-0.21-0.904-0.386-1.385-0.525c-0.212-0.049-0.446-0.086-0.693-0.125c-0.339-0.054-0.689-0.109-1.033-0.205
		c-1.133-0.326-2.294-0.748-3.187-1.156c-0.387-0.183-0.69-0.361-0.912-0.491l-0.073-0.042L3.425,12.4z"/>
	<path fill="#92CC78" d="M6.401,9.67c0,0,0.086,0.135,0.236,0.372c0.165,0.215,0.388,0.511,0.705,0.855
		c0.638,0.674,1.553,1.505,2.506,2.253c0.482,0.369,1.035,0.643,1.479,0.954c0.43,0.339,0.788,0.678,1.092,1.009
		c0.157,0.137,0.294,0.308,0.424,0.433c0.133,0.137,0.249,0.256,0.345,0.354c0.201,0.18,0.346,0.327,0.346,0.327l0.01,0.01
		c0.046,0.047,0.046,0.123-0.001,0.169c-0.008,0.008-0.017,0.015-0.027,0.02c0,0-0.164,0.09-0.506,0.168
		c-0.33,0.065-0.809,0.057-1.343-0.069c-0.519-0.133-1.102-0.374-1.602-0.764c-0.507-0.393-0.887-0.969-1.326-1.459
		c-0.857-1.005-1.568-2.114-1.987-3.008c-0.206-0.444-0.364-0.839-0.441-1.119C6.25,9.901,6.216,9.745,6.216,9.745
		C6.204,9.691,6.238,9.636,6.293,9.625C6.336,9.615,6.379,9.635,6.401,9.67z"/>
	<path fill="#FFFFFF" d="M12.553,16.759c-0.287,0-0.604-0.039-0.916-0.112c-0.436-0.112-1.074-0.339-1.65-0.787
		c-0.356-0.276-0.652-0.641-0.938-0.992c-0.133-0.164-0.266-0.327-0.405-0.482c-0.823-0.965-1.554-2.072-2.007-3.038
		c-0.216-0.467-0.372-0.86-0.449-1.139L6.093,9.771C6.067,9.649,6.145,9.529,6.267,9.503l0.048-0.005
		c0.077,0,0.148,0.038,0.191,0.104l0.276,0.423c0.164,0.213,0.367,0.479,0.652,0.787c0.665,0.702,1.573,1.52,2.492,2.239
		c0.27,0.207,0.566,0.386,0.854,0.559c0.22,0.132,0.427,0.257,0.62,0.392c0.409,0.322,0.781,0.666,1.112,1.026
		c0.086,0.075,0.176,0.172,0.261,0.264c0.054,0.059,0.106,0.115,0.158,0.165l0.348,0.356c0.198,0.177,0.345,0.326,0.345,0.326
		c0.055,0.056,0.081,0.117,0.08,0.184c0,0.065-0.026,0.126-0.072,0.173c-0.02,0.018-0.038,0.031-0.057,0.041
		c-0.005,0.003-0.182,0.099-0.536,0.18C12.891,16.744,12.729,16.759,12.553,16.759z M6.366,9.847l0.065,0.302
		c0.072,0.258,0.222,0.639,0.433,1.093c0.444,0.946,1.162,2.032,1.969,2.979c0.139,0.155,0.275,0.322,0.41,0.488
		c0.277,0.341,0.563,0.693,0.897,0.953c0.542,0.422,1.146,0.636,1.556,0.741c0.465,0.108,0.949,0.135,1.289,0.067
		c0.312-0.071,0.468-0.154,0.47-0.155c-0.013-0.002-0.155-0.146-0.352-0.323l-0.351-0.358c-0.052-0.051-0.107-0.11-0.165-0.173
		c-0.079-0.086-0.162-0.176-0.252-0.255c-0.332-0.36-0.694-0.695-1.086-1.004c-0.18-0.126-0.384-0.249-0.6-0.379
		c-0.293-0.176-0.596-0.358-0.878-0.574c-0.929-0.729-1.847-1.555-2.521-2.267c-0.294-0.318-0.51-0.6-0.667-0.806l-0.045-0.059
		L6.366,9.847z"/>
	<path fill="#92CC78" d="M3.193,20.135c0,0,0.16,0.002,0.44,0.005c0.27-0.021,0.639-0.046,1.101-0.124
		c0.913-0.167,2.108-0.479,3.256-0.87c0.572-0.202,1.104-0.516,1.606-0.718c0.519-0.175,0.999-0.29,1.442-0.364
		c0.2-0.056,0.419-0.078,0.594-0.119c0.187-0.037,0.35-0.069,0.485-0.096c0.26-0.07,0.463-0.111,0.463-0.111l0.014-0.003
		c0.065-0.013,0.128,0.029,0.141,0.094c0.002,0.011,0.003,0.023,0.002,0.033c0,0-0.015,0.187-0.135,0.515
		c-0.126,0.312-0.394,0.709-0.791,1.088c-0.395,0.362-0.915,0.719-1.515,0.925C9.69,20.601,9,20.605,8.349,20.705
		c-1.31,0.17-2.628,0.16-3.605,0.023c-0.484-0.069-0.901-0.153-1.178-0.241c-0.262-0.099-0.411-0.156-0.411-0.156
		c-0.052-0.02-0.079-0.078-0.059-0.131C3.111,20.16,3.152,20.135,3.193,20.135z"/>
	<path fill="#FFFFFF" d="M6.381,20.957c-0.593,0-1.165-0.036-1.654-0.104c-0.505-0.072-0.919-0.157-1.199-0.246L3.11,20.448
		c-0.056-0.021-0.101-0.063-0.125-0.118c-0.025-0.056-0.027-0.117-0.005-0.174c0.032-0.087,0.118-0.146,0.213-0.146l0.442,0.005
		l0.066-0.006c0.267-0.021,0.599-0.047,1.012-0.116c0.951-0.173,2.131-0.488,3.237-0.864c0.32-0.113,0.631-0.265,0.933-0.41
		c0.231-0.112,0.449-0.219,0.667-0.307c0.497-0.167,0.974-0.288,1.468-0.37c0.108-0.031,0.237-0.054,0.359-0.074
		c0.08-0.014,0.157-0.027,0.228-0.044l0.489-0.097c0.256-0.069,0.462-0.11,0.462-0.11c0.03-0.007,0.046-0.008,0.062-0.008
		c0.116,0,0.217,0.082,0.24,0.195c0.005,0.023,0.006,0.046,0.004,0.07c0,0.007-0.017,0.206-0.143,0.547
		c-0.146,0.363-0.445,0.776-0.822,1.136c-0.333,0.305-0.871,0.715-1.561,0.952c-0.428,0.148-0.896,0.197-1.349,0.245
		c-0.208,0.021-0.415,0.044-0.619,0.075C7.712,20.914,7.044,20.957,6.381,20.957z M3.307,20.261L3.61,20.37
		c0.256,0.081,0.667,0.165,1.151,0.234c0.478,0.067,1.038,0.103,1.619,0.103c0.652,0,1.31-0.043,1.953-0.126
		c0.205-0.031,0.416-0.054,0.628-0.076c0.438-0.046,0.892-0.094,1.293-0.232c0.649-0.223,1.159-0.611,1.472-0.898
		c0.35-0.334,0.627-0.715,0.76-1.043c0.11-0.301,0.126-0.478,0.126-0.479c-0.009,0.009-0.208,0.049-0.463,0.118l-0.493,0.098
		c-0.071,0.017-0.153,0.03-0.238,0.045c-0.114,0.02-0.233,0.039-0.346,0.071c-0.494,0.084-0.959,0.201-1.436,0.361
		c-0.204,0.082-0.418,0.187-0.645,0.297c-0.307,0.149-0.625,0.304-0.96,0.422c-1.118,0.38-2.311,0.698-3.275,0.874
		c-0.426,0.072-0.779,0.1-1.037,0.119l-0.077,0.007L3.307,20.261z"/>
	<path fill="#92CC78" d="M11.498,27.225c0,0,0.111-0.116,0.305-0.318c0.169-0.212,0.404-0.498,0.663-0.887
		c0.503-0.779,1.094-1.865,1.595-2.969c0.245-0.555,0.38-1.158,0.576-1.663c0.228-0.498,0.472-0.926,0.722-1.3
		c0.096-0.185,0.229-0.359,0.32-0.514c0.101-0.162,0.189-0.303,0.262-0.419c0.127-0.238,0.236-0.414,0.236-0.414l0.007-0.012
		c0.035-0.056,0.109-0.074,0.165-0.039c0.01,0.006,0.018,0.013,0.026,0.021c0,0,0.126,0.138,0.283,0.451
		c0.141,0.306,0.247,0.773,0.251,1.322c-0.006,0.536-0.102,1.159-0.363,1.738c-0.262,0.585-0.731,1.091-1.103,1.634
		c-0.773,1.071-1.682,2.025-2.451,2.644c-0.382,0.306-0.728,0.552-0.982,0.694c-0.251,0.123-0.395,0.193-0.395,0.193
		c-0.05,0.025-0.111,0.004-0.136-0.047C11.46,27.302,11.469,27.255,11.498,27.225z"/>
	<path fill="#FFFFFF" d="M11.57,27.523c-0.087,0-0.165-0.049-0.204-0.128c-0.042-0.086-0.025-0.189,0.042-0.258l0.337-0.358
		c0.161-0.2,0.38-0.473,0.617-0.828c0.524-0.811,1.102-1.887,1.585-2.951c0.137-0.312,0.241-0.644,0.34-0.964
		c0.076-0.244,0.148-0.475,0.233-0.692c0.219-0.479,0.458-0.91,0.735-1.324c0.052-0.103,0.125-0.213,0.194-0.317
		c0.044-0.065,0.086-0.13,0.122-0.19l0.264-0.422c0.125-0.234,0.236-0.413,0.236-0.413c0.079-0.13,0.231-0.161,0.345-0.092
		c0.019,0.012,0.035,0.025,0.051,0.042c0.007,0.008,0.141,0.157,0.304,0.48c0.165,0.357,0.26,0.858,0.264,1.377
		c-0.005,0.45-0.074,1.124-0.374,1.79c-0.184,0.412-0.468,0.786-0.742,1.148c-0.127,0.167-0.254,0.334-0.371,0.505
		c-0.744,1.029-1.646,2.002-2.476,2.671c-0.399,0.319-0.745,0.563-1,0.705L11.67,27.5C11.639,27.515,11.604,27.523,11.57,27.523z
		 M16.282,18.797c0,0.013-0.106,0.185-0.231,0.418l-0.266,0.427c-0.036,0.062-0.081,0.129-0.127,0.199
		c-0.064,0.097-0.133,0.199-0.188,0.306c-0.276,0.415-0.509,0.834-0.719,1.294c-0.079,0.204-0.15,0.431-0.225,0.67
		c-0.102,0.327-0.208,0.666-0.351,0.992c-0.488,1.075-1.073,2.163-1.604,2.985c-0.244,0.366-0.467,0.645-0.631,0.848l-0.04,0.05
		l-0.221,0.231l0.275-0.135c0.237-0.133,0.571-0.368,0.959-0.679c0.814-0.655,1.699-1.61,2.429-2.619
		c0.117-0.172,0.247-0.342,0.376-0.513c0.266-0.351,0.541-0.713,0.713-1.1c0.283-0.627,0.348-1.264,0.352-1.688
		c-0.003-0.483-0.091-0.945-0.239-1.268C16.401,18.931,16.283,18.798,16.282,18.797z"/>
	<path fill="#92CC78" d="M19.772,28.795c0,0,0.011-0.16,0.029-0.439c-0.006-0.271-0.011-0.641-0.063-1.106
		c-0.116-0.921-0.362-2.131-0.688-3.299c-0.17-0.583-0.454-1.131-0.628-1.644c-0.146-0.528-0.234-1.013-0.284-1.46
		c-0.045-0.203-0.055-0.422-0.086-0.6c-0.027-0.189-0.05-0.354-0.069-0.489c-0.055-0.264-0.085-0.469-0.085-0.469l-0.002-0.014
		c-0.01-0.065,0.036-0.126,0.101-0.136c0.011-0.002,0.023-0.002,0.033,0c0,0,0.186,0.025,0.507,0.164
		c0.305,0.143,0.686,0.433,1.042,0.85c0.34,0.414,0.667,0.953,0.84,1.564c0.176,0.617,0.142,1.306,0.207,1.96
		c0.097,1.317,0.014,2.633-0.177,3.601c-0.096,0.48-0.203,0.891-0.306,1.163c-0.113,0.256-0.178,0.402-0.178,0.402
		c-0.023,0.051-0.083,0.074-0.134,0.052C19.792,28.877,19.769,28.836,19.772,28.795z"/>
	<path fill="#FFFFFF" d="M19.872,29.029c-0.031,0-0.062-0.007-0.091-0.02c-0.087-0.04-0.14-0.129-0.135-0.223l0.03-0.439
		l-0.002-0.059c-0.006-0.27-0.014-0.605-0.061-1.026c-0.121-0.958-0.37-2.154-0.685-3.279c-0.095-0.326-0.229-0.646-0.358-0.954
		c-0.099-0.236-0.193-0.46-0.268-0.683c-0.139-0.501-0.236-0.999-0.29-1.486c-0.026-0.112-0.041-0.244-0.055-0.368
		c-0.009-0.079-0.018-0.155-0.029-0.225l-0.07-0.492c-0.054-0.26-0.085-0.468-0.085-0.468c-0.021-0.147,0.072-0.271,0.205-0.292
		l0.035-0.002l0.034,0.002c0.008,0.001,0.206,0.029,0.539,0.172c0.356,0.168,0.751,0.489,1.088,0.885
		c0.286,0.348,0.667,0.907,0.865,1.61c0.125,0.435,0.147,0.904,0.17,1.358c0.01,0.209,0.021,0.419,0.041,0.625
		c0.093,1.264,0.028,2.588-0.178,3.637c-0.101,0.502-0.208,0.911-0.312,1.183l-0.181,0.409
		C20.043,28.977,19.962,29.029,19.872,29.029z M18.013,19.264c0.009,0.009,0.039,0.21,0.093,0.469l0.07,0.497
		c0.012,0.07,0.021,0.15,0.031,0.234c0.013,0.116,0.027,0.238,0.053,0.355c0.055,0.487,0.149,0.973,0.282,1.454
		c0.07,0.207,0.163,0.427,0.26,0.659c0.132,0.315,0.269,0.642,0.368,0.982c0.317,1.138,0.57,2.347,0.692,3.318
		c0.049,0.434,0.057,0.79,0.063,1.05l0.001,0.069l-0.021,0.319l0.125-0.281c0.096-0.253,0.2-0.648,0.297-1.137
		c0.202-1.027,0.266-2.327,0.174-3.567c-0.021-0.207-0.031-0.42-0.042-0.634c-0.022-0.439-0.044-0.895-0.161-1.302
		c-0.187-0.661-0.547-1.19-0.816-1.519c-0.313-0.367-0.678-0.665-0.999-0.816C18.19,19.29,18.015,19.264,18.013,19.264z"/>
	<path fill="#92CC78" d="M24.519,25.114c0,0-0.051-0.152-0.14-0.418c-0.109-0.248-0.253-0.589-0.477-1
		c-0.456-0.808-1.143-1.835-1.888-2.792c-0.378-0.475-0.849-0.874-1.205-1.283c-0.335-0.433-0.601-0.849-0.816-1.243
		c-0.119-0.171-0.211-0.37-0.307-0.522c-0.096-0.165-0.18-0.308-0.249-0.426c-0.151-0.223-0.257-0.401-0.257-0.401l-0.007-0.012
		c-0.034-0.057-0.015-0.13,0.042-0.164c0.01-0.006,0.02-0.01,0.031-0.013c0,0,0.181-0.047,0.531-0.041
		c0.336,0.017,0.799,0.14,1.287,0.392c0.472,0.254,0.979,0.629,1.37,1.129c0.397,0.504,0.627,1.154,0.934,1.736
		c0.589,1.182,1.011,2.431,1.202,3.399c0.093,0.48,0.15,0.901,0.158,1.192c-0.008,0.28-0.013,0.439-0.013,0.439
		c-0.002,0.056-0.048,0.1-0.104,0.099C24.569,25.183,24.532,25.153,24.519,25.114z"/>
	<path fill="#FFFFFF" d="M24.616,25h-0.008c-0.093,0-0.177,0.09-0.208-0.001l-0.157-0.379c-0.103-0.237-0.244-0.523-0.451-0.903
		c-0.476-0.842-1.161-1.834-1.877-2.755c-0.212-0.267-0.457-0.501-0.693-0.738c-0.181-0.181-0.353-0.348-0.506-0.524
		c-0.32-0.413-0.598-0.835-0.832-1.263c-0.066-0.093-0.129-0.207-0.189-0.315c-0.039-0.071-0.076-0.138-0.114-0.199l-0.251-0.429
		c-0.149-0.22-0.256-0.401-0.256-0.401c-0.041-0.067-0.05-0.134-0.033-0.197s0.057-0.117,0.113-0.15
		c0.014-0.009,0.035,0.146,0.059,0.139C19.222,16.88,19.393,17,19.71,17h0.07c0.391,0,0.878,0.004,1.342,0.242
		c0.396,0.214,0.961,0.506,1.412,1.082c0.279,0.354,0.478,0.738,0.67,1.149c0.089,0.19,0.179,0.36,0.276,0.544
		c0.565,1.136,1.007,2.376,1.214,3.423c0.097,0.501,0.153,0.915,0.161,1.209l-0.013,0.289C24.838,25.061,24.739,25,24.616,25z
		 M19.71,17c-0.281,0-0.431,0-0.432,0c0.012,0.006,0.115,0.161,0.263,0.379l0.254,0.425c0.038,0.061,0.078,0.128,0.119,0.202
		c0.056,0.102,0.114,0.207,0.182,0.304c0.234,0.428,0.505,0.84,0.812,1.237c0.144,0.165,0.313,0.332,0.49,0.51
		c0.242,0.242,0.492,0.492,0.713,0.769c0.725,0.932,1.417,1.955,1.899,2.808c0.213,0.392,0.357,0.722,0.461,0.963l0.021,0.049
		l0.102,0.304l0.009-0.308c-0.007-0.269-0.063-0.685-0.156-1.165c-0.203-1.026-0.637-2.254-1.191-3.367
		c-0.098-0.185-0.189-0.379-0.28-0.573c-0.187-0.397-0.379-0.809-0.641-1.141c-0.424-0.542-0.958-0.857-1.331-1.058
		C20.575,17.117,20.125,17,19.772,17H19.71z"/>
	<path fill="#92CC78" d="M28.717,15.301c0,0-0.159-0.015-0.438-0.042c-0.271-0.002-0.641-0.008-1.107,0.031
		c-0.924,0.089-2.141,0.3-3.318,0.592c-0.587,0.153-1.144,0.421-1.661,0.58c-0.532,0.131-1.02,0.205-1.467,0.241
		c-0.204,0.039-0.424,0.043-0.602,0.068c-0.19,0.021-0.355,0.04-0.491,0.055c-0.265,0.048-0.471,0.072-0.471,0.072l-0.014,0.002
		c-0.066,0.008-0.125-0.039-0.133-0.105c-0.001-0.011-0.001-0.023,0.001-0.033c0,0,0.03-0.185,0.178-0.502
		c0.152-0.3,0.453-0.673,0.88-1.017c0.424-0.328,0.972-0.639,1.588-0.794c0.621-0.158,1.309-0.104,1.966-0.149
		c1.32-0.059,2.632,0.062,3.594,0.281c0.477,0.11,0.885,0.229,1.154,0.34c0.252,0.121,0.396,0.19,0.396,0.19
		c0.051,0.024,0.072,0.085,0.048,0.135C28.8,15.283,28.758,15.305,28.717,15.301z"/>
	<g>
		<path fill="#92CC78" d="M25.087,9.534c0,0-0.153,0.046-0.422,0.127c-0.251,0.101-0.596,0.236-1.013,0.448
			c-0.821,0.433-1.867,1.089-2.845,1.806c-0.486,0.364-0.899,0.823-1.317,1.167c-0.443,0.323-0.866,0.576-1.266,0.779
			c-0.174,0.114-0.376,0.2-0.531,0.291c-0.167,0.091-0.313,0.171-0.433,0.237c-0.227,0.145-0.409,0.245-0.409,0.245l-0.012,0.007
			c-0.058,0.032-0.131,0.011-0.163-0.047c-0.005-0.01-0.009-0.021-0.012-0.031c0,0-0.042-0.182-0.026-0.532
			c0.027-0.336,0.164-0.795,0.429-1.275c0.268-0.464,0.657-0.96,1.168-1.337c0.515-0.382,1.172-0.593,1.762-0.884
			c1.199-0.555,2.459-0.94,3.433-1.103c0.483-0.079,0.905-0.124,1.196-0.123c0.279,0.016,0.439,0.026,0.439,0.026
			c0.056,0.003,0.099,0.051,0.095,0.107C25.157,9.486,25.126,9.522,25.087,9.534z"/>
		<path fill="#FFFFFF" d="M16.78,14.781c-0.089,0-0.171-0.048-0.214-0.126c-0.011-0.021-0.019-0.041-0.024-0.064
			c-0.001-0.008-0.045-0.203-0.029-0.565c0.031-0.392,0.193-0.875,0.444-1.33c0.226-0.391,0.616-0.944,1.203-1.376
			c0.363-0.271,0.795-0.457,1.213-0.639c0.191-0.083,0.383-0.166,0.568-0.257c1.151-0.533,2.415-0.938,3.467-1.113
			c0.496-0.082,0.914-0.126,1.208-0.126l0.455,0.025c0.126,0.009,0.221,0.116,0.213,0.24c-0.005,0.092-0.069,0.174-0.16,0.203
			l-0.477,0.149c-0.237,0.096-0.561,0.227-0.939,0.418c-0.855,0.451-1.886,1.105-2.828,1.796c-0.272,0.204-0.524,0.442-0.769,0.672
			c-0.186,0.176-0.362,0.342-0.543,0.49c-0.423,0.31-0.843,0.568-1.289,0.794c-0.094,0.063-0.21,0.122-0.321,0.179
			c-0.072,0.037-0.142,0.073-0.204,0.109l-0.438,0.238c-0.223,0.144-0.408,0.245-0.408,0.245
			C16.863,14.771,16.822,14.781,16.78,14.781z M24.618,9.435c-0.278,0-0.693,0.043-1.168,0.122c-1.032,0.172-2.271,0.57-3.401,1.093
			c-0.186,0.092-0.381,0.176-0.576,0.261c-0.405,0.176-0.823,0.357-1.164,0.61c-0.553,0.406-0.922,0.931-1.134,1.298
			c-0.233,0.423-0.384,0.869-0.413,1.223c-0.013,0.283,0.015,0.451,0.022,0.487c0.038-0.021,0.204-0.113,0.407-0.244l0.441-0.241
			c0.062-0.036,0.136-0.074,0.213-0.113c0.103-0.053,0.21-0.108,0.31-0.173c0.445-0.227,0.854-0.479,1.261-0.775
			c0.169-0.139,0.342-0.302,0.525-0.475c0.249-0.235,0.506-0.478,0.792-0.691c0.952-0.697,1.995-1.359,2.862-1.816
			c0.389-0.198,0.719-0.331,0.96-0.428l0.064-0.026l0.308-0.093L24.618,9.435z"/>
	</g>
	<path fill="#92CC78" d="M11.764,5.302c0,0-0.001,0.16-0.002,0.44c0.023,0.27,0.051,0.639,0.132,1.1
		c0.173,0.912,0.494,2.105,0.893,3.25c0.206,0.571,0.524,1.101,0.73,1.601c0.179,0.518,0.297,0.997,0.374,1.439
		c0.058,0.2,0.081,0.418,0.123,0.593c0.038,0.187,0.072,0.35,0.1,0.484c0.072,0.26,0.114,0.462,0.114,0.462l0.003,0.014
		c0.014,0.065-0.028,0.128-0.093,0.142c-0.011,0.002-0.022,0.003-0.033,0.002c0,0-0.187-0.013-0.516-0.132
		c-0.313-0.124-0.712-0.389-1.093-0.784c-0.365-0.392-0.725-0.91-0.936-1.508c-0.214-0.604-0.223-1.294-0.328-1.944
		c-0.179-1.309-0.178-2.627-0.049-3.605c0.066-0.485,0.147-0.902,0.233-1.18c0.097-0.262,0.153-0.412,0.153-0.412
		c0.02-0.052,0.078-0.079,0.13-0.06C11.739,5.22,11.765,5.26,11.764,5.302z"/>
	<path fill="#FFFFFF" d="M14.114,15h-0.02c-0.005,0-0.206-0.038-0.548-0.162c-0.364-0.143-0.778-0.45-1.141-0.825
		c-0.307-0.329-0.722-0.87-0.964-1.56c-0.15-0.425-0.203-0.894-0.253-1.345c-0.023-0.209-0.047-0.419-0.08-0.625
		c-0.172-1.256-0.19-2.583-0.049-3.641c0.069-0.505,0.151-0.92,0.237-1.202l0.155-0.418c0.043-0.114,0.177-0.179,0.291-0.134
		c0.089,0.034,0.148,0.12,0.148,0.214l-0.002,0.44l0.006,0.062c0.023,0.268,0.051,0.601,0.124,1.016
		c0.18,0.947,0.503,2.125,0.888,3.23c0.115,0.319,0.269,0.631,0.417,0.932c0.114,0.229,0.221,0.446,0.31,0.663
		c0.17,0.491,0.297,0.982,0.381,1.465c0.033,0.11,0.056,0.239,0.078,0.362c0.014,0.079,0.027,0.155,0.043,0.225l0.101,0.486
		c0.071,0.256,0.114,0.463,0.114,0.463c0.031,0.145-0.054,0.298-0.186,0.326L14.114,15z M12,5.396l-0.287,0.325
		c-0.079,0.257-0.251,0.669-0.316,1.153c-0.138,1.037-0.165,2.339,0.004,3.571c0.033,0.206,0.035,0.419,0.059,0.633
		c0.049,0.437,0.088,0.889,0.229,1.286c0.228,0.649,0.615,1.154,0.904,1.465c0.337,0.348,0.716,0.623,1.045,0.752
		c0.291,0.104,0.463,0.122,0.477,0.123c-0.008-0.011-0.051-0.209-0.121-0.462l-0.102-0.491c-0.017-0.07-0.031-0.15-0.046-0.234
		c-0.021-0.115-0.042-0.235-0.075-0.351c-0.086-0.489-0.207-0.953-0.372-1.432c-0.083-0.202-0.189-0.416-0.3-0.642
		c-0.151-0.307-0.308-0.624-0.429-0.959c-0.389-1.117-0.716-2.309-0.898-3.269c-0.075-0.428,0.076-0.781,0.054-1.039L12,5.753V5.396
		z"/>
	<path fill="#92CC78" d="M9.388,7.632c0,0,0.052,0.155,0.143,0.425c0.114,0.248,0.253,0.581,0.477,0.994
		c0.458,0.808,1.129,1.838,1.836,2.8c0.358,0.479,0.859,0.859,1.172,1.27c0.294,0.435,0.448,0.889,0.574,1.32
		c0.064,0.195,0.109,0.419,0.157,0.6c0.047,0.2,0.089,0.375,0.122,0.518c0.093,0.334,0.145,0.526,0.145,0.526l0.004,0.015
		c0.03,0.107-0.026,0.217-0.126,0.259c0,0-0.208,0.087-0.61,0.102c-0.388,0.011-0.907-0.11-1.447-0.369
		c-0.506-0.271-1.057-0.669-1.41-1.223c-0.362-0.56-0.473-1.284-0.712-1.914c-0.208-0.647-0.413-1.284-0.52-1.911
		C9.06,10.43,9.01,9.834,8.978,9.332C8.958,8.83,8.959,8.388,9.002,8.089C9.057,7.81,9.089,7.65,9.089,7.65
		c0.017-0.084,0.098-0.139,0.182-0.122C9.327,7.539,9.371,7.581,9.388,7.632z"/>
	<path fill="#FFFFFF" d="M13.231,17c-0.421,0-0.936-0.342-1.449-0.589c-0.659-0.354-1.149-0.883-1.462-1.371
		c-0.247-0.383-0.381-0.888-0.51-1.327c-0.065-0.222-0.133-0.476-0.213-0.688c-0.207-0.64-0.418-1.308-0.526-1.947
		c-0.134-0.612-0.186-1.222-0.218-1.731C8.831,8.767,8.839,8.35,8.878,8.075l0.088-0.447c0.026-0.131,0.141-0.226,0.274-0.226
		l0.055,0.004c0.098,0.02,0.179,0.091,0.211,0.186L9.65,8.018l0.073,0.161c0.099,0.22,0.222,0.493,0.396,0.813
		c0.472,0.833,1.138,1.849,1.826,2.785c0.182,0.243,0.406,0.464,0.622,0.677c0.203,0.2,0.395,0.389,0.549,0.591
		c0.308,0.456,0.467,0.924,0.594,1.361c0.042,0.126,0.076,0.27,0.109,0.405c0.017,0.069,0.033,0.136,0.049,0.197l0.124,0.521
		l0.145,0.521c0.05,0.181-0.035,0.563-0.194,0.63C13.933,16.686,13.708,17,13.288,17H13.231z M9.271,7.528L9.241,7.65
		c-0.012,0-0.026,0.008-0.029,0.024L9.124,8.113C9.089,8.367,9.081,8.767,9.103,9.327c0.032,0.496,0.082,1.088,0.213,1.69
		c0.106,0.627,0.315,1.273,0.517,1.899c0.082,0.214,0.15,0.447,0.217,0.674c0.125,0.422,0.253,0.858,0.481,1.21
		c0.29,0.453,0.749,0.682,1.365,1.012C12.363,16.038,12.852,16,13.231,16h0.048c0.369,0,0.564,0.076,0.566,0.076
		c0.042-0.019,0.065,0.019,0.053-0.026l-0.273-1.022c-0.016-0.06-0.033-0.108-0.05-0.178c-0.031-0.129-0.063-0.255-0.104-0.379
		c-0.123-0.423-0.274-0.863-0.558-1.284c-0.139-0.183-0.325-0.363-0.522-0.557c-0.223-0.22-0.453-0.445-0.647-0.704
		c-0.695-0.945-1.367-1.97-1.844-2.813C9.72,8.783,9.595,8.505,9.495,8.28L9.417,8.11L9.27,7.672L9.271,7.528z"/>
	<path fill="#92CC78" d="M15.411,6.102c0,0-0.018,0.162-0.05,0.446c-0.001,0.273-0.016,0.634,0.013,1.103
		c0.074,0.926,0.246,2.143,0.481,3.313c0.122,0.585,0.416,1.141,0.526,1.646c0.082,0.519,0.031,0.995-0.038,1.439
		c-0.024,0.204-0.078,0.426-0.111,0.61c-0.042,0.201-0.078,0.377-0.108,0.521c-0.057,0.342-0.09,0.538-0.09,0.538l-0.003,0.016
		c-0.018,0.109-0.115,0.186-0.223,0.181c0,0-0.225-0.009-0.596-0.166c-0.356-0.153-0.776-0.483-1.156-0.946
		c-0.344-0.46-0.675-1.053-0.762-1.704c-0.092-0.66,0.114-1.364,0.163-2.036c0.084-0.674,0.168-1.339,0.336-1.952
		c0.138-0.613,0.345-1.174,0.528-1.644c0.194-0.462,0.382-0.863,0.547-1.116c0.168-0.23,0.264-0.361,0.264-0.361
		c0.051-0.069,0.148-0.084,0.217-0.034C15.395,5.992,15.417,6.048,15.411,6.102z"/>
	<path fill="#92CC78" d="M22.471,6.79c0,0-0.12,0.111-0.33,0.305c-0.18,0.205-0.427,0.469-0.712,0.842
		c-0.55,0.748-1.216,1.782-1.805,2.82c-0.291,0.522-0.432,1.135-0.68,1.589c-0.277,0.446-0.628,0.772-0.97,1.063
		c-0.151,0.138-0.338,0.271-0.483,0.389c-0.163,0.125-0.306,0.234-0.423,0.324c-0.267,0.221-0.42,0.348-0.42,0.348l-0.012,0.01
		c-0.085,0.071-0.209,0.065-0.288-0.009c0,0-0.164-0.154-0.342-0.515c-0.169-0.349-0.271-0.872-0.255-1.472
		c0.041-0.572,0.179-1.238,0.539-1.787c0.363-0.559,0.978-0.956,1.456-1.432c0.505-0.455,1.003-0.902,1.532-1.255
		c0.506-0.373,1.029-0.663,1.475-0.897c0.45-0.222,0.854-0.403,1.144-0.486c0.278-0.064,0.436-0.1,0.436-0.1
		c0.083-0.019,0.167,0.033,0.186,0.116C22.531,6.696,22.51,6.753,22.471,6.79z"/>
	<path fill="#FFFFFF" d="M16.497,14.653c-0.087,0-0.171-0.033-0.234-0.093c-0.007-0.007-0.183-0.174-0.369-0.551
		c-0.186-0.384-0.283-0.941-0.268-1.53c0.053-0.746,0.242-1.368,0.56-1.853c0.248-0.382,0.607-0.689,0.955-0.987
		c0.175-0.15,0.357-0.306,0.517-0.466c0.5-0.449,1.011-0.909,1.55-1.27C19.716,7.528,20.245,7.236,20.694,7
		c0.517-0.256,0.898-0.418,1.167-0.496l0.442-0.103c0.159-0.037,0.302,0.063,0.336,0.212c0.022,0.098-0.01,0.201-0.085,0.269
		l-0.329,0.305l-0.109,0.124c-0.162,0.182-0.364,0.408-0.588,0.702c-0.558,0.759-1.229,1.809-1.795,2.806
		c-0.148,0.266-0.257,0.561-0.364,0.845c-0.099,0.268-0.193,0.52-0.314,0.742c-0.292,0.469-0.653,0.805-1,1.099
		c-0.1,0.092-0.22,0.184-0.332,0.271c-0.054,0.041-0.105,0.081-0.153,0.12l-0.425,0.326l-0.417,0.344
		C16.654,14.626,16.577,14.653,16.497,14.653z M22.366,6.645l-0.442,0.102c-0.248,0.072-0.616,0.229-1.116,0.477
		c-0.438,0.23-0.957,0.518-1.456,0.886c-0.529,0.354-1.034,0.808-1.522,1.247c-0.163,0.162-0.348,0.321-0.526,0.475
		c-0.334,0.286-0.68,0.581-0.908,0.934c-0.295,0.449-0.47,1.03-0.52,1.728c-0.014,0.546,0.074,1.061,0.243,1.408
		c0.164,0.332,0.315,0.479,0.316,0.479c0.027,0.026,0.068,0.048,0.122,0.003l0.859-0.685c0.046-0.037,0.1-0.078,0.155-0.121
		c0.107-0.082,0.221-0.17,0.319-0.26c0.335-0.284,0.679-0.604,0.949-1.037c0.109-0.201,0.2-0.445,0.296-0.703
		c0.109-0.294,0.222-0.597,0.379-0.88c0.579-1.021,1.24-2.054,1.813-2.834c0.231-0.303,0.437-0.533,0.602-0.718l0.117-0.132
		l0.349-0.345C22.393,6.652,22.378,6.645,22.366,6.645z"/>
	<path fill="#92CC78" d="M26.33,11.661c0,0-0.155,0.05-0.428,0.137c-0.25,0.11-0.585,0.244-1.001,0.462
		c-0.815,0.446-1.855,1.101-2.827,1.794c-0.484,0.35-0.871,0.846-1.287,1.153c-0.44,0.287-0.895,0.435-1.329,0.554
		c-0.196,0.062-0.421,0.103-0.602,0.148c-0.201,0.044-0.376,0.083-0.52,0.115c-0.336,0.088-0.528,0.138-0.528,0.138l-0.015,0.004
		c-0.107,0.028-0.217-0.029-0.257-0.13c0,0-0.084-0.209-0.093-0.612c-0.006-0.388,0.123-0.905,0.391-1.442
		c0.279-0.502,0.685-1.047,1.244-1.392c0.565-0.354,1.291-0.454,1.924-0.683c0.65-0.199,1.29-0.394,1.919-0.491
		c0.616-0.124,1.213-0.166,1.716-0.19c0.501-0.012,0.944-0.004,1.242,0.042c0.279,0.06,0.438,0.094,0.438,0.094
		c0.084,0.018,0.137,0.1,0.119,0.184C26.424,11.601,26.381,11.644,26.33,11.661z"/>
	<path fill="#FFFFFF" d="M17.739,16.297c-0.141,0-0.266-0.085-0.318-0.216c-0.003-0.009-0.092-0.234-0.102-0.655
		c-0.006-0.426,0.141-0.973,0.404-1.5c0.364-0.654,0.797-1.138,1.29-1.442c0.387-0.242,0.843-0.369,1.285-0.492
		c0.222-0.062,0.451-0.126,0.663-0.202c0.645-0.197,1.304-0.398,1.942-0.497c0.606-0.123,1.189-0.165,1.728-0.192
		c0.562-0.012,0.992,0.001,1.268,0.045l0.445,0.095c0.072,0.015,0.135,0.058,0.176,0.121c0.041,0.063,0.055,0.138,0.039,0.211
		c-0.021,0.098-0.093,0.178-0.189,0.209l-0.429,0.137l-0.162,0.071c-0.221,0.095-0.497,0.214-0.819,0.382
		c-0.832,0.456-1.884,1.124-2.812,1.785c-0.247,0.179-0.471,0.399-0.687,0.613c-0.203,0.199-0.395,0.389-0.599,0.539
		c-0.459,0.3-0.929,0.452-1.37,0.573c-0.129,0.041-0.275,0.074-0.413,0.104c-0.067,0.015-0.132,0.029-0.192,0.044l-0.523,0.116
		l-0.523,0.137C17.796,16.293,17.768,16.297,17.739,16.297z M25.017,11.345c-0.121,0-0.247,0.002-0.377,0.005
		c-0.525,0.026-1.097,0.068-1.693,0.188c-0.626,0.097-1.249,0.287-1.907,0.487c-0.215,0.078-0.449,0.144-0.675,0.207
		c-0.424,0.118-0.863,0.24-1.219,0.464c-0.457,0.282-0.861,0.735-1.201,1.346c-0.243,0.488-0.381,0.993-0.375,1.379
		c0.008,0.37,0.083,0.566,0.084,0.568c0.017,0.042,0.068,0.065,0.11,0.055l1.066-0.258c0.059-0.015,0.126-0.029,0.195-0.045
		c0.131-0.029,0.271-0.06,0.397-0.1c0.426-0.117,0.875-0.263,1.298-0.539c0.184-0.136,0.369-0.319,0.565-0.513
		c0.224-0.22,0.454-0.447,0.717-0.638c0.951-0.677,1.985-1.334,2.84-1.802c0.333-0.175,0.613-0.295,0.838-0.392l0.172-0.075
		l0.44-0.142c0.009-0.003,0.019-0.012,0.022-0.023l-0.023-0.035l-0.438-0.094C25.663,11.36,25.387,11.345,25.017,11.345z"/>
	<path fill="#92CC78" d="M26.86,22.65c0,0-0.101-0.129-0.276-0.354c-0.19-0.196-0.432-0.464-0.78-0.779
		c-0.7-0.61-1.675-1.359-2.662-2.031c-0.496-0.333-1.096-0.524-1.527-0.808c-0.422-0.313-0.718-0.689-0.98-1.055
		c-0.125-0.162-0.242-0.359-0.347-0.514c-0.111-0.173-0.208-0.324-0.288-0.448c-0.198-0.285-0.312-0.447-0.312-0.447l-0.009-0.013
		c-0.063-0.091-0.048-0.214,0.033-0.286c0,0,0.167-0.151,0.542-0.299c0.362-0.14,0.892-0.198,1.488-0.133
		c0.567,0.088,1.219,0.28,1.737,0.685c0.527,0.407,0.873,1.054,1.307,1.569c0.411,0.541,0.817,1.074,1.125,1.63
		c0.33,0.535,0.575,1.08,0.773,1.544c0.185,0.466,0.331,0.884,0.39,1.18c0.041,0.282,0.064,0.443,0.064,0.443
		c0.012,0.085-0.047,0.163-0.131,0.175C26.949,22.717,26.894,22.692,26.86,22.65z"/>
	<path fill="#FFFFFF" d="M26.985,22.835c-0.086,0-0.169-0.04-0.223-0.108l-0.277-0.354l-0.117-0.122
		c-0.167-0.176-0.375-0.395-0.648-0.642c-0.714-0.621-1.705-1.377-2.648-2.02c-0.252-0.169-0.537-0.303-0.811-0.432
		c-0.258-0.122-0.502-0.236-0.715-0.376c-0.442-0.328-0.747-0.716-1.012-1.087c-0.082-0.104-0.162-0.229-0.238-0.347
		c-0.038-0.06-0.075-0.116-0.111-0.169l-0.29-0.451l-0.309-0.443c-0.108-0.155-0.085-0.349,0.042-0.463
		c0.007-0.007,0.188-0.168,0.58-0.322c0.398-0.154,0.96-0.207,1.547-0.141c0.738,0.114,1.342,0.353,1.8,0.71
		c0.361,0.278,0.638,0.663,0.906,1.034c0.135,0.187,0.274,0.38,0.42,0.552c0.408,0.536,0.825,1.085,1.139,1.65
		c0.329,0.533,0.579,1.086,0.778,1.556c0.213,0.539,0.343,0.932,0.398,1.204l0.065,0.45c0.022,0.151-0.084,0.294-0.236,0.317
		L26.985,22.835z M21.263,15.582c-0.37,0-0.712,0.054-0.964,0.15c-0.343,0.136-0.502,0.274-0.503,0.275
		c-0.034,0.031-0.04,0.084-0.013,0.122l0.37,0.537l0.241,0.375c0.035,0.051,0.073,0.109,0.112,0.171
		c0.072,0.111,0.148,0.23,0.229,0.334c0.256,0.357,0.547,0.727,0.956,1.03c0.191,0.126,0.427,0.237,0.677,0.354
		c0.283,0.133,0.576,0.271,0.845,0.451c0.966,0.658,1.94,1.401,2.674,2.039c0.282,0.256,0.494,0.479,0.664,0.657l0.131,0.13
		L27,22.585v0.125l-0.004-0.125c0.015-0.002,0.023-0.018,0.021-0.034l-0.066-0.443c-0.051-0.25-0.177-0.629-0.384-1.151
		c-0.195-0.458-0.44-1-0.764-1.524c-0.308-0.555-0.72-1.096-1.118-1.619c-0.147-0.175-0.29-0.372-0.427-0.563
		c-0.258-0.357-0.524-0.727-0.857-0.983c-0.424-0.331-0.989-0.553-1.68-0.66C21.57,15.591,21.415,15.582,21.263,15.582z"/>
	<path fill="#92CC78" d="M21.688,26.094c0,0-0.037-0.159-0.101-0.437c-0.089-0.258-0.195-0.603-0.378-1.036
		c-0.377-0.849-0.944-1.94-1.554-2.965c-0.309-0.511-0.772-0.938-1.043-1.378c-0.25-0.462-0.36-0.928-0.442-1.37
		c-0.045-0.2-0.068-0.428-0.098-0.612c-0.028-0.204-0.052-0.381-0.071-0.528c-0.06-0.342-0.094-0.537-0.094-0.537l-0.003-0.016
		c-0.019-0.109,0.047-0.214,0.15-0.245c0,0,0.215-0.066,0.617-0.042c0.387,0.026,0.892,0.198,1.404,0.508
		c0.477,0.319,0.986,0.769,1.285,1.354c0.306,0.592,0.346,1.324,0.522,1.974c0.144,0.664,0.286,1.318,0.331,1.952
		c0.073,0.624,0.065,1.222,0.048,1.726c-0.03,0.501-0.074,0.941-0.145,1.234c-0.082,0.273-0.129,0.429-0.129,0.429
		c-0.025,0.082-0.111,0.128-0.193,0.104C21.739,26.192,21.7,26.146,21.688,26.094z"/>
	<path fill="#FFFFFF" d="M21.839,26.341c-0.027,0-0.054-0.004-0.081-0.012c-0.096-0.029-0.17-0.108-0.192-0.207l-0.101-0.438
		l-0.056-0.162c-0.077-0.229-0.173-0.515-0.316-0.853c-0.389-0.876-0.953-1.953-1.547-2.951c-0.157-0.259-0.357-0.499-0.551-0.731
		c-0.184-0.22-0.356-0.427-0.49-0.645c-0.262-0.482-0.375-0.963-0.459-1.411c-0.03-0.131-0.05-0.279-0.069-0.418
		c-0.01-0.069-0.019-0.136-0.029-0.197l-0.072-0.532l-0.093-0.532c-0.032-0.186,0.07-0.353,0.235-0.402
		c0.008-0.002,0.239-0.069,0.661-0.047c0.426,0.029,0.958,0.221,1.462,0.526c0.622,0.416,1.067,0.888,1.331,1.404
		c0.209,0.404,0.298,0.87,0.384,1.319c0.043,0.227,0.088,0.461,0.147,0.679c0.144,0.658,0.29,1.332,0.335,1.977
		c0.074,0.625,0.066,1.23,0.049,1.738c-0.035,0.59-0.082,0.988-0.148,1.26l-0.131,0.436C22.071,26.261,21.963,26.341,21.839,26.341z
		 M18.497,17.047c-0.263,0-0.406,0.042-0.407,0.042c-0.044,0.014-0.071,0.059-0.063,0.104l0.096,0.553l0.072,0.533
		c0.01,0.061,0.02,0.129,0.029,0.2c0.018,0.132,0.038,0.272,0.067,0.401c0.081,0.433,0.188,0.891,0.43,1.337
		c0.121,0.196,0.289,0.396,0.466,0.609c0.2,0.24,0.407,0.487,0.574,0.764c0.599,1.007,1.168,2.093,1.562,2.979
		c0.147,0.349,0.245,0.639,0.324,0.872l0.059,0.173l0.104,0.45c0.002,0.009,0.009,0.021,0.021,0.023l0.009,0.002
		c0.011,0,0.024-0.007,0.029-0.021l0.129-0.429c0.06-0.246,0.106-0.643,0.139-1.206c0.017-0.495,0.024-1.089-0.047-1.703
		c-0.044-0.633-0.189-1.298-0.329-1.94c-0.061-0.221-0.106-0.46-0.15-0.691c-0.083-0.432-0.168-0.879-0.361-1.252
		c-0.244-0.479-0.662-0.919-1.243-1.309c-0.466-0.281-0.957-0.46-1.343-0.486C18.604,17.049,18.548,17.047,18.497,17.047z"/>
	<path fill="#92CC78" d="M15.513,27.98c0,0,0.053-0.154,0.147-0.424c0.062-0.266,0.155-0.615,0.23-1.078
		c0.132-0.919,0.232-2.145,0.261-3.338c0.01-0.598-0.155-1.205-0.15-1.721c0.034-0.524,0.189-0.977,0.354-1.395
		c0.068-0.194,0.17-0.398,0.243-0.571c0.085-0.187,0.159-0.35,0.22-0.485c0.131-0.321,0.207-0.505,0.207-0.505l0.006-0.015
		c0.042-0.103,0.154-0.156,0.258-0.128c0,0,0.218,0.059,0.545,0.293c0.314,0.228,0.65,0.642,0.919,1.177
		c0.234,0.524,0.426,1.176,0.368,1.83c-0.056,0.664-0.411,1.305-0.608,1.95c-0.231,0.639-0.459,1.269-0.758,1.83
		c-0.27,0.568-0.595,1.07-0.877,1.487c-0.291,0.408-0.563,0.758-0.779,0.968c-0.215,0.187-0.338,0.294-0.338,0.294
		c-0.065,0.056-0.162,0.049-0.219-0.015C15.504,28.091,15.496,28.031,15.513,27.98z"/>
	<path fill="#FFFFFF" d="M15.659,28.312c-0.081,0-0.158-0.034-0.211-0.096c-0.065-0.075-0.086-0.182-0.053-0.277l0.146-0.424
		l0.037-0.156c0.058-0.238,0.129-0.534,0.188-0.9c0.137-0.949,0.231-2.16,0.259-3.321c0.005-0.305-0.037-0.616-0.078-0.917
		c-0.038-0.282-0.074-0.549-0.072-0.803c0.036-0.55,0.195-1.017,0.363-1.44c0.044-0.124,0.104-0.257,0.16-0.383
		c0.03-0.066,0.058-0.13,0.083-0.189l0.222-0.488l0.205-0.501c0.071-0.176,0.247-0.262,0.413-0.216
		c0.01,0.003,0.243,0.067,0.585,0.313c0.345,0.251,0.694,0.696,0.958,1.223c0.305,0.683,0.433,1.319,0.38,1.897
		c-0.038,0.453-0.21,0.895-0.376,1.32c-0.084,0.216-0.17,0.438-0.236,0.654c-0.23,0.637-0.464,1.285-0.768,1.852
		c-0.268,0.563-0.597,1.074-0.883,1.499c-0.337,0.472-0.597,0.794-0.796,0.987l-0.342,0.299
		C15.792,28.287,15.727,28.312,15.659,28.312z M17.244,18c-0.054,0-0.085,0.243-0.098,0.275l-0.212,0.63l-0.222,0.544
		c-0.024,0.059-0.054,0.152-0.084,0.22c-0.054,0.119-0.111,0.26-0.154,0.382c-0.161,0.409-0.314,0.86-0.347,1.368
		c-0.001,0.229,0.034,0.491,0.071,0.763c0.042,0.311,0.085,0.634,0.08,0.958c-0.028,1.172-0.124,2.394-0.262,3.354
		c-0.061,0.379-0.134,0.68-0.192,0.922l-0.04,0.167l-0.15,0.437c-0.003,0.009-0.002,0.023,0.005,0.031l0.022,0.01
		c0.005,0,0.013-0.001,0.02-0.007l0.338-0.294c0.183-0.179,0.433-0.489,0.76-0.946c0.293-0.436,0.603-0.917,0.865-1.469
		c0.297-0.557,0.518-1.167,0.752-1.813c0.068-0.224,0.157-0.451,0.242-0.67c0.16-0.41,0.325-0.834,0.36-1.253
		c0.048-0.535-0.072-1.13-0.357-1.769c-0.244-0.486-0.565-1.12-0.878-1.346C17.459,18.279,17.257,18,17.255,18
		C17.251,18,17.248,18,17.244,18z"/>
	<g>
		<path fill="#92CC78" d="M9.542,24.478c0,0,0.13-0.099,0.358-0.271c0.199-0.187,0.471-0.425,0.791-0.769
			c0.621-0.691,1.384-1.655,2.071-2.631c0.34-0.491,0.541-1.088,0.831-1.515c0.319-0.417,0.7-0.708,1.069-0.964
			c0.164-0.123,0.363-0.237,0.519-0.34c0.175-0.109,0.327-0.203,0.452-0.281c0.288-0.194,0.452-0.305,0.452-0.305l0.013-0.009
			c0.092-0.062,0.214-0.044,0.285,0.037c0,0,0.149,0.17,0.291,0.546c0.134,0.364,0.184,0.895,0.111,1.49
			c-0.096,0.566-0.298,1.215-0.711,1.726c-0.415,0.521-1.067,0.857-1.588,1.284c-0.547,0.403-1.086,0.8-1.646,1.1
			c-0.54,0.322-1.089,0.559-1.555,0.75c-0.469,0.178-0.889,0.318-1.186,0.373c-0.283,0.036-0.444,0.057-0.444,0.057
			c-0.085,0.011-0.163-0.049-0.174-0.134C9.474,24.565,9.5,24.51,9.542,24.478z"/>
		<path fill="#FFFFFF" d="M9.634,24.882c-0.141,0-0.26-0.104-0.277-0.244c-0.013-0.098,0.029-0.197,0.109-0.259l0.359-0.271
			l0.128-0.12c0.177-0.164,0.398-0.367,0.646-0.634c0.642-0.716,1.393-1.671,2.06-2.619c0.173-0.249,0.311-0.531,0.444-0.805
			c0.125-0.256,0.243-0.498,0.386-0.708c0.334-0.437,0.727-0.736,1.102-0.996c0.105-0.079,0.229-0.157,0.346-0.23
			c0.061-0.038,0.121-0.075,0.174-0.111l0.457-0.282l0.448-0.303c0.172-0.115,0.353-0.075,0.462,0.05
			c0.006,0.008,0.165,0.191,0.313,0.584c0.147,0.4,0.19,0.965,0.118,1.55c-0.126,0.737-0.374,1.337-0.738,1.788
			c-0.283,0.356-0.67,0.627-1.045,0.89c-0.189,0.132-0.386,0.27-0.561,0.413c-0.541,0.398-1.095,0.807-1.667,1.114
			c-0.541,0.321-1.096,0.562-1.567,0.754c-0.541,0.205-0.935,0.329-1.21,0.381L9.634,24.882z M16.219,17.481
			c-0.019,0-0.036,0.006-0.051,0.016l-0.465,0.314l-0.457,0.283c-0.053,0.035-0.114,0.073-0.177,0.112
			c-0.111,0.07-0.229,0.144-0.333,0.221c-0.362,0.251-0.736,0.537-1.045,0.94c-0.128,0.189-0.243,0.424-0.364,0.671
			c-0.137,0.281-0.279,0.572-0.464,0.839c-0.672,0.956-1.431,1.92-2.081,2.645c-0.256,0.274-0.48,0.481-0.661,0.648l-0.137,0.127
			l-0.367,0.279c-0.007,0.006,0.168,0.018,0.17,0.029C9.79,24.623,10,24.632,10,24.632v0.125l-0.178-0.125l0.353-0.057
			c0.252-0.048,0.588-0.168,1.111-0.366c0.46-0.188,0.982-0.423,1.513-0.739c0.561-0.301,1.096-0.704,1.625-1.094
			c0.178-0.146,0.372-0.286,0.565-0.421c0.36-0.252,0.73-0.513,0.991-0.841c0.337-0.418,0.566-0.979,0.684-1.669
			c0.067-0.54,0.028-1.062-0.105-1.426c-0.131-0.345-0.267-0.506-0.269-0.507C16.272,17.493,16.247,17.481,16.219,17.481z"/>
	</g>
	<path fill="#92CC78" d="M5.439,21.839c0,0,0.159-0.038,0.436-0.105c0.257-0.092,0.601-0.201,1.032-0.388
		c0.845-0.385,1.93-0.963,2.95-1.583c0.509-0.314,0.931-0.781,1.368-1.056c0.46-0.255,0.925-0.369,1.366-0.455
		c0.2-0.047,0.427-0.072,0.611-0.104c0.203-0.03,0.381-0.055,0.527-0.076c0.341-0.063,0.536-0.099,0.536-0.099l0.016-0.003
		c0.109-0.02,0.214,0.045,0.247,0.148c0,0,0.068,0.215,0.048,0.617c-0.023,0.387-0.189,0.894-0.495,1.409
		c-0.315,0.48-0.759,0.994-1.342,1.297c-0.589,0.312-1.32,0.358-1.969,0.541c-0.663,0.151-1.316,0.299-1.949,0.35
		c-0.624,0.079-1.222,0.077-1.725,0.065c-0.501-0.025-0.942-0.065-1.236-0.133c-0.273-0.08-0.43-0.125-0.43-0.125
		c-0.082-0.024-0.129-0.11-0.105-0.192C5.342,21.891,5.387,21.852,5.439,21.839z"/>
	<path fill="#FFFFFF" d="M7.571,22.528c-0.167,0-0.326-0.003-0.478-0.007c-0.576-0.028-0.988-0.072-1.261-0.136l-0.437-0.127
		c-0.071-0.021-0.13-0.067-0.167-0.134c-0.036-0.065-0.045-0.142-0.024-0.214c0.028-0.096,0.107-0.17,0.205-0.193l0.437-0.105
		l0.164-0.059c0.229-0.079,0.513-0.178,0.847-0.322c0.866-0.396,1.963-0.984,2.935-1.575c0.258-0.16,0.498-0.363,0.729-0.56
		c0.217-0.186,0.423-0.36,0.638-0.495c0.48-0.267,0.96-0.385,1.408-0.474c0.129-0.03,0.274-0.052,0.411-0.072
		c0.071-0.01,0.139-0.021,0.203-0.031l0.532-0.077l0.531-0.098c0.036-0.007,0.057-0.009,0.078-0.009c0.15,0,0.281,0.096,0.326,0.238
		c0.003,0.01,0.074,0.241,0.054,0.661c-0.025,0.427-0.212,0.961-0.512,1.467c-0.41,0.626-0.877,1.077-1.392,1.346
		c-0.403,0.213-0.868,0.307-1.317,0.396c-0.226,0.046-0.459,0.093-0.676,0.153c-0.661,0.15-1.332,0.303-1.973,0.354
		C8.455,22.505,8.041,22.528,7.571,22.528z M14.322,18.091l-0.033,0.005l-1.069,0.176c-0.061,0.011-0.132,0.021-0.205,0.032
		c-0.13,0.019-0.269,0.039-0.395,0.069c-0.432,0.085-0.889,0.197-1.333,0.443c-0.194,0.122-0.393,0.291-0.603,0.471
		c-0.238,0.202-0.485,0.412-0.76,0.582c-0.995,0.605-2.075,1.185-2.964,1.59c-0.345,0.15-0.634,0.25-0.867,0.331l-0.175,0.062
		L5.469,21.96c-0.009,0.003-0.021,0.01-0.023,0.021h0l0.02,0.037l0.43,0.125c0.252,0.059,0.649,0.101,1.207,0.128
		c0.146,0.004,0.305,0.007,0.469,0.007c0.459,0,0.863-0.023,1.235-0.07c0.629-0.051,1.262-0.194,1.932-0.347
		c0.225-0.063,0.463-0.11,0.693-0.157c0.432-0.087,0.878-0.177,1.25-0.373c0.477-0.249,0.913-0.671,1.296-1.256
		c0.277-0.469,0.451-0.962,0.474-1.349c0.019-0.368-0.042-0.57-0.042-0.572C14.397,18.117,14.362,18.091,14.322,18.091z"/>
	<path fill="#92CC78" d="M4.084,17.111c0,0,0.162,0.021,0.445,0.058c0.273,0.007,0.633,0.028,1.103,0.008
		c0.927-0.056,2.147-0.206,3.322-0.419c0.587-0.111,1.149-0.395,1.656-0.495c0.52-0.073,0.995-0.012,1.438,0.065
		c0.203,0.028,0.425,0.086,0.608,0.123c0.201,0.045,0.375,0.085,0.519,0.118c0.341,0.064,0.536,0.1,0.536,0.1l0.016,0.003
		c0.109,0.02,0.184,0.119,0.177,0.227c0,0-0.013,0.225-0.177,0.593c-0.16,0.353-0.497,0.766-0.967,1.138
		c-0.466,0.335-1.065,0.655-1.718,0.729c-0.662,0.079-1.361-0.139-2.032-0.201c-0.673-0.097-1.335-0.193-1.945-0.373
		c-0.61-0.15-1.168-0.367-1.633-0.558c-0.459-0.203-0.856-0.398-1.106-0.568c-0.227-0.173-0.356-0.271-0.356-0.271
		c-0.068-0.052-0.081-0.149-0.029-0.217C3.974,17.125,4.031,17.104,4.084,17.111z"/>
	<path fill="#FFFFFF" d="M10.739,19.502c-0.35,0-0.708-0.061-1.053-0.12c-0.228-0.038-0.463-0.078-0.689-0.1
		c-0.674-0.098-1.354-0.196-1.969-0.377c-0.608-0.149-1.173-0.369-1.646-0.563c-0.529-0.233-0.897-0.423-1.128-0.579l-0.362-0.275
		c-0.06-0.045-0.098-0.111-0.108-0.187c-0.01-0.074,0.01-0.147,0.056-0.206c0.051-0.068,0.135-0.109,0.224-0.109L4.1,16.987
		l0.445,0.058l0.169,0.005c0.244,0.008,0.544,0.019,0.912,0.003c0.948-0.058,2.184-0.214,3.305-0.417
		c0.299-0.057,0.595-0.16,0.881-0.262c0.269-0.094,0.523-0.184,0.772-0.233c0.525-0.071,1.066-0.008,1.484,0.065
		c0.132,0.018,0.278,0.05,0.415,0.08c0.068,0.016,0.134,0.03,0.195,0.042l0.523,0.119l0.531,0.1c0.185,0.035,0.305,0.188,0.294,0.36
		c0,0.01-0.016,0.251-0.187,0.636c-0.175,0.388-0.541,0.819-1.004,1.185c-0.608,0.438-1.206,0.69-1.782,0.756
		C10.951,19.496,10.845,19.502,10.739,19.502z M4.068,17.235L4.068,17.235l-0.031,0.012l0.006,0.041L4.4,17.56
		c0.213,0.144,0.568,0.326,1.081,0.553c0.46,0.189,1.016,0.404,1.612,0.552c0.604,0.178,1.245,0.271,1.923,0.369
		c0.239,0.022,0.479,0.063,0.712,0.103c0.433,0.073,0.879,0.15,1.297,0.1c0.534-0.061,1.092-0.299,1.661-0.707
		c0.428-0.338,0.767-0.735,0.926-1.088c0.15-0.338,0.166-0.547,0.166-0.549c0.002-0.046-0.03-0.087-0.076-0.096l-1.076-0.223
		c-0.06-0.012-0.128-0.027-0.198-0.043c-0.13-0.028-0.268-0.06-0.398-0.077c-0.408-0.071-0.933-0.134-1.404-0.065
		c-0.225,0.045-0.471,0.131-0.731,0.223c-0.295,0.104-0.601,0.211-0.918,0.271c-1.148,0.208-2.364,0.361-3.337,0.421
		c-0.381,0.017-0.685,0.006-0.934-0.003l-0.18-0.006L4.068,17.235z"/>
	<g>
		<ellipse fill="#FFFFFF" cx="16.438" cy="16.367" rx="4.097" ry="2.628"/>
		<path fill="#FFFFFF" d="M16.438,19.12c-2.328,0-4.222-1.235-4.222-2.753c0-1.519,1.894-2.754,4.222-2.754s4.222,1.235,4.222,2.754
			C20.66,17.885,18.766,19.12,16.438,19.12z M16.438,13.863c-2.19,0-3.972,1.123-3.972,2.504c0,1.38,1.782,2.503,3.972,2.503
			s3.972-1.123,3.972-2.503C20.41,14.986,18.628,13.863,16.438,13.863z"/>
	</g>
	<g>
		<path fill="#92CC78" d="M14.514,18.13c0.375-0.096,0.514-0.536,0.824-0.722c0,0.235,0.057,0.444,0.057,0.681
			c-0.036-0.186,0.311-0.608,0.476-0.648c0.091,0.248,0.151,0.424,0.168,0.689c0.232-0.184,0.449-0.472,0.691-0.612
			c0.122,0.131,0.137,0.269,0.215,0.417c-0.003-0.12-0.003-0.242,0.001-0.361c0.174-0.056,0.481,0.237,0.554,0.39
			c0.012-0.144-0.008-0.303,0.014-0.443c0.331-0.023,0.652,0.036,0.948,0.18c0.039-0.208-0.114-0.506-0.337-0.531
			c0.363-0.001,0.752-0.077,1.111-0.016c0.078-0.386-0.515-0.851-0.853-0.886c0.06-0.435,0.93-0.546,1.253-0.571
			c-0.23-0.146-0.565-0.213-0.826-0.244c-0.046-0.182,0.346-0.374,0.508-0.397c-0.001-0.213-0.385-0.174-0.535-0.19
			c-0.393-0.041-0.717-0.022-1.093,0.114c-0.008-0.182,0.004-0.307,0.123-0.448c0.112-0.134,0.294-0.189,0.075-0.309
			c-0.245-0.134-0.851-0.031-1.023,0.171c-0.062-0.104-0.185-0.317-0.187-0.433c-0.191,0.152-0.177,0.376-0.189,0.591
			c-0.238-0.028-0.465-0.314-0.715-0.378c-0.008,0.201-0.008,0.3,0.116,0.452c-0.309-0.208-0.525-0.299-0.889-0.39
			c-0.012,0.165-0.011,0.302,0.112,0.427c-0.261,0.146-0.801-0.008-1.11,0.033c0,0.24,0.376,0.197,0.537,0.21
			c-0.076,0.147-0.41,0.2-0.582,0.266c-0.208,0.08-0.259,0.269-0.338,0.496c0.157-0.003,0.417-0.137,0.546-0.183
			c-0.124,0.263-0.415,0.453-0.631,0.648c0.303-0.122,0.599-0.233,0.925-0.238c-0.285,0.182-0.45,0.504-0.557,0.823
			c0.161-0.183,0.548-0.337,0.795-0.29c0.035,0.169-0.07,0.284-0.129,0.435c-0.059,0.151-0.066,0.328-0.127,0.484
			c0.15-0.1,0.413-0.365,0.604-0.359c-0.002,0.161-0.171,0.377-0.228,0.529c-0.076,0.202-0.209,0.397-0.275,0.589"/>
	</g>
	<g>
		<path fill="#FFFFFF" d="M15.031,15.526c0.2-0.053,1.132-0.295,1.063,0.111c-0.396,0-1.034,0.502-1.031,0.891
			c-0.073-0.159,0.541-0.298,0.698-0.316c0.092,0.3-0.13,0.694,0.011,0.938c0.181-0.313,0.38-0.6,0.501-0.969
			c0.28,0.186,0.401,0.83,0.48,1.123c0.36-0.33,0.425-0.784,0.417-1.227c0.185,0.191,0.505,0.352,0.694,0.508
			c0.035-0.472-0.198-0.907-0.77-0.872c0.062-0.279,0.876-0.129,1.13-0.241c-0.405-0.258-0.801-0.375-1.295-0.268
			c-0.069-0.35,0.201-0.418,0.322-0.675c-0.324,0.124-0.671,0.418-0.745,0.76c-0.226,0.01-0.937-0.549-1.067-0.755
			c-0.063,0.238,0.038,0.306-0.008,0.541c-0.229,0.012-0.6,0.137-0.769,0.286C14.728,15.485,14.889,15.508,15.031,15.526"/>
	</g>
</g>
</svg>
