<?xml version="1.0" encoding="utf-8"?>
<!-- Generator: Adobe Illustrator 17.0.0, SVG Export Plug-In . SVG Version: 6.00 Build 0)  -->
<!DOCTYPE svg PUBLIC "-//W3C//DTD SVG 1.1//EN" "http://www.w3.org/Graphics/SVG/1.1/DTD/svg11.dtd">
<svg version="1.1" id="Capa_1" xmlns="http://www.w3.org/2000/svg" xmlns:xlink="http://www.w3.org/1999/xlink" x="0px" y="0px"
	 width="34.171px" height="33px" viewBox="0 0 34.171 33" enable-background="new 0 0 34.171 33" xml:space="preserve">
<g>
	<g>
		<path fill="#6E985B" d="M33.428,15.728c-1.061-0.127-1.484-0.652-2.326-1.275c-0.704-0.522-1.685-0.356-2.28-0.926
			c-0.23-0.22-0.337-0.643-0.538-0.853c-0.54-0.561-1.044-0.524-1.725-0.574c-0.757-0.055-1.172-0.464-2.261-1.225
			c-0.647-0.179-1.382-0.394-2.042-0.168c-0.567,0.195-0.893,0.741-1.411,1.007c-0.904,0.462-2.453-0.004-3.406-0.237
			c-1.164-0.285-1.108-1.332-1.914-2.057c-0.781-0.704-1.196-0.441-1.394-1.685c-0.167-1.048-0.406-1.345-1.545-1.23
			c-0.978,0.098-1.093,0.731-1.772,1.365c-0.682,0.636-1.188,0.819-1.585,1.733c-0.511,1.178-1.003,1.613-2.105,2.259
			c-1.218,0.713-2.009,1.345-3.384,1.384C1.619,13.306,1.418,16,1.736,17h-0.96v3h33v-3L33.428,15.728z"/>
	</g>
	<g>
		<polygon fill="#6E985B" points="29.512,32.699 5.339,32.522 2.049,30.417 1.316,27 33.147,27 33,29.915 		"/>
	</g>
	<g>
		<defs>
			<rect id="SVGID_91_" x="0.777" y="23" width="33" height="4"/>
		</defs>
		<clipPath id="SVGID_2_">
			<use xlink:href="#SVGID_91_"  overflow="visible"/>
		</clipPath>
		<g clip-path="url(#SVGID_2_)">
			<path fill="#6E985B" d="M0.25,27.276c-0.033,0-0.067-0.007-0.099-0.021c-0.126-0.055-0.185-0.202-0.13-0.328l1.742-4.036
				c0.054-0.127,0.202-0.186,0.329-0.131c0.126,0.055,0.185,0.202,0.13,0.328l-1.742,4.036C0.439,27.22,0.347,27.276,0.25,27.276z"
				/>
		</g>
		<g clip-path="url(#SVGID_2_)">
			<path fill="#6E985B" d="M1.28,27.276c-0.033,0-0.067-0.007-0.099-0.021c-0.126-0.055-0.185-0.202-0.13-0.328l1.742-4.036
				c0.054-0.127,0.202-0.186,0.329-0.131c0.126,0.055,0.185,0.202,0.13,0.328L1.51,27.125C1.469,27.22,1.377,27.276,1.28,27.276z"/>
		</g>
		<g clip-path="url(#SVGID_2_)">
			<path fill="#6E985B" d="M2.31,27.276c-0.033,0-0.067-0.007-0.099-0.021c-0.126-0.055-0.185-0.202-0.13-0.328l1.742-4.036
				c0.054-0.127,0.201-0.186,0.329-0.131c0.126,0.055,0.185,0.202,0.13,0.328l-1.742,4.036C2.499,27.22,2.407,27.276,2.31,27.276z"
				/>
		</g>
		<g clip-path="url(#SVGID_2_)">
			<path fill="#6E985B" d="M3.34,27.276c-0.033,0-0.067-0.007-0.099-0.021c-0.126-0.055-0.185-0.202-0.13-0.328l1.742-4.036
				c0.054-0.127,0.201-0.186,0.329-0.131c0.126,0.055,0.185,0.202,0.13,0.328l-1.742,4.036C3.529,27.22,3.436,27.276,3.34,27.276z"
				/>
		</g>
		<g clip-path="url(#SVGID_2_)">
			<path fill="#6E985B" d="M4.37,27.276c-0.033,0-0.067-0.007-0.099-0.021c-0.126-0.055-0.185-0.202-0.13-0.328l1.742-4.036
				c0.054-0.127,0.202-0.186,0.329-0.131s0.185,0.202,0.13,0.328L4.6,27.125C4.559,27.22,4.467,27.276,4.37,27.276z"/>
		</g>
		<g clip-path="url(#SVGID_2_)">
			<path fill="#6E985B" d="M5.4,27.276c-0.033,0-0.067-0.007-0.099-0.021c-0.126-0.055-0.185-0.202-0.13-0.328l1.742-4.036
				c0.054-0.127,0.202-0.186,0.329-0.131c0.126,0.055,0.185,0.202,0.13,0.328l-1.742,4.036C5.589,27.22,5.496,27.276,5.4,27.276z"/>
		</g>
		<g clip-path="url(#SVGID_2_)">
			<path fill="#6E985B" d="M6.43,27.276c-0.033,0-0.067-0.007-0.099-0.021c-0.126-0.055-0.185-0.202-0.13-0.328l1.742-4.036
				c0.054-0.127,0.201-0.186,0.329-0.131c0.126,0.055,0.185,0.202,0.13,0.328L6.66,27.125C6.619,27.22,6.527,27.276,6.43,27.276z"/>
		</g>
		<g clip-path="url(#SVGID_2_)">
			<path fill="#6E985B" d="M7.46,27.276c-0.033,0-0.067-0.007-0.099-0.021c-0.126-0.055-0.185-0.202-0.13-0.328l1.742-4.036
				c0.054-0.127,0.201-0.186,0.329-0.131c0.126,0.055,0.185,0.202,0.13,0.328l-1.742,4.036C7.649,27.22,7.557,27.276,7.46,27.276z"
				/>
		</g>
		<g clip-path="url(#SVGID_2_)">
			<path fill="#6E985B" d="M8.49,27.276c-0.033,0-0.067-0.007-0.099-0.021c-0.126-0.055-0.185-0.202-0.13-0.328l1.741-4.036
				c0.054-0.127,0.203-0.186,0.329-0.131c0.126,0.055,0.185,0.202,0.13,0.328L8.72,27.125C8.679,27.22,8.587,27.276,8.49,27.276z"/>
		</g>
		<g clip-path="url(#SVGID_2_)">
			<path fill="#6E985B" d="M9.52,27.276c-0.033,0-0.067-0.007-0.099-0.021c-0.126-0.055-0.185-0.202-0.13-0.328l1.742-4.036
				c0.054-0.127,0.202-0.186,0.329-0.131c0.126,0.055,0.185,0.202,0.13,0.328l-1.742,4.036C9.709,27.22,9.617,27.276,9.52,27.276z"
				/>
		</g>
		<g clip-path="url(#SVGID_2_)">
			<path fill="#6E985B" d="M10.55,27.276c-0.033,0-0.067-0.007-0.099-0.021c-0.126-0.055-0.185-0.202-0.13-0.328l1.742-4.036
				c0.055-0.127,0.202-0.186,0.329-0.131c0.126,0.055,0.185,0.202,0.13,0.328l-1.742,4.036C10.739,27.22,10.646,27.276,10.55,27.276
				z"/>
		</g>
		<g clip-path="url(#SVGID_2_)">
			<path fill="#6E985B" d="M11.58,27.276c-0.033,0-0.067-0.007-0.099-0.021c-0.126-0.055-0.185-0.202-0.13-0.328l1.742-4.036
				c0.054-0.127,0.201-0.186,0.329-0.131c0.126,0.055,0.185,0.202,0.13,0.328l-1.742,4.036C11.769,27.22,11.677,27.276,11.58,27.276
				z"/>
		</g>
		<g clip-path="url(#SVGID_2_)">
			<path fill="#6E985B" d="M12.61,27.276c-0.033,0-0.067-0.007-0.099-0.021c-0.126-0.055-0.185-0.202-0.13-0.328l1.742-4.036
				c0.054-0.127,0.202-0.186,0.329-0.131s0.185,0.202,0.13,0.328l-1.742,4.036C12.799,27.22,12.706,27.276,12.61,27.276z"/>
		</g>
		<g clip-path="url(#SVGID_2_)">
			<path fill="#6E985B" d="M13.64,27.276c-0.033,0-0.067-0.007-0.099-0.021c-0.126-0.055-0.185-0.202-0.13-0.328l1.742-4.036
				c0.054-0.127,0.202-0.186,0.329-0.131c0.126,0.055,0.185,0.202,0.13,0.328l-1.742,4.036C13.829,27.22,13.737,27.276,13.64,27.276
				z"/>
		</g>
		<g clip-path="url(#SVGID_2_)">
			<path fill="#6E985B" d="M14.67,27.276c-0.033,0-0.067-0.007-0.099-0.021c-0.126-0.055-0.185-0.202-0.13-0.328l1.742-4.036
				c0.054-0.127,0.201-0.186,0.329-0.131c0.126,0.055,0.185,0.202,0.13,0.328l-1.742,4.036C14.859,27.22,14.766,27.276,14.67,27.276
				z"/>
		</g>
		<g clip-path="url(#SVGID_2_)">
			<path fill="#6E985B" d="M15.7,27.276c-0.033,0-0.067-0.007-0.099-0.021c-0.126-0.055-0.185-0.202-0.13-0.328l1.742-4.036
				c0.054-0.127,0.201-0.186,0.329-0.131c0.126,0.055,0.185,0.202,0.13,0.328l-1.742,4.036C15.889,27.22,15.796,27.276,15.7,27.276z
				"/>
		</g>
		<g clip-path="url(#SVGID_2_)">
			<path fill="#6E985B" d="M16.73,27.276c-0.033,0-0.067-0.007-0.099-0.021c-0.126-0.055-0.185-0.202-0.13-0.328l1.742-4.036
				c0.054-0.127,0.202-0.186,0.329-0.131s0.185,0.202,0.13,0.328l-1.742,4.036C16.919,27.22,16.827,27.276,16.73,27.276z"/>
		</g>
		<g clip-path="url(#SVGID_2_)">
			<path fill="#6E985B" d="M17.76,27.276c-0.033,0-0.067-0.007-0.099-0.021c-0.126-0.055-0.185-0.202-0.13-0.328l1.742-4.036
				c0.054-0.127,0.202-0.186,0.329-0.131c0.126,0.055,0.185,0.202,0.13,0.328l-1.742,4.036C17.949,27.22,17.856,27.276,17.76,27.276
				z"/>
		</g>
		<g clip-path="url(#SVGID_2_)">
			<path fill="#6E985B" d="M18.79,27.276c-0.033,0-0.067-0.007-0.099-0.021c-0.126-0.055-0.185-0.202-0.13-0.328l1.742-4.036
				c0.054-0.127,0.201-0.186,0.329-0.131c0.126,0.055,0.185,0.202,0.13,0.328l-1.742,4.036C18.979,27.22,18.887,27.276,18.79,27.276
				z"/>
		</g>
		<g clip-path="url(#SVGID_2_)">
			<path fill="#6E985B" d="M19.82,27.276c-0.033,0-0.067-0.007-0.099-0.021c-0.126-0.055-0.185-0.202-0.13-0.328l1.742-4.036
				c0.054-0.127,0.201-0.186,0.329-0.131c0.126,0.055,0.185,0.202,0.13,0.328l-1.742,4.036C20.009,27.22,19.916,27.276,19.82,27.276
				z"/>
		</g>
		<g clip-path="url(#SVGID_2_)">
			<path fill="#6E985B" d="M20.85,27.276c-0.033,0-0.067-0.007-0.099-0.021c-0.126-0.055-0.185-0.202-0.13-0.328l1.742-4.036
				c0.054-0.127,0.203-0.186,0.329-0.131c0.126,0.055,0.185,0.202,0.13,0.328l-1.742,4.036C21.038,27.22,20.946,27.276,20.85,27.276
				z"/>
		</g>
		<g clip-path="url(#SVGID_2_)">
			<path fill="#6E985B" d="M21.88,27.276c-0.033,0-0.067-0.007-0.099-0.021c-0.126-0.055-0.185-0.202-0.13-0.328l1.742-4.036
				c0.054-0.127,0.202-0.186,0.329-0.131c0.126,0.055,0.185,0.202,0.13,0.328l-1.742,4.036C22.069,27.22,21.976,27.276,21.88,27.276
				z"/>
		</g>
		<g clip-path="url(#SVGID_2_)">
			<path fill="#6E985B" d="M22.91,27.276c-0.033,0-0.067-0.007-0.099-0.021c-0.126-0.055-0.185-0.202-0.13-0.328l1.742-4.036
				c0.055-0.127,0.202-0.186,0.329-0.131c0.126,0.055,0.185,0.202,0.13,0.328l-1.742,4.036C23.099,27.22,23.006,27.276,22.91,27.276
				z"/>
		</g>
		<g clip-path="url(#SVGID_2_)">
			<path fill="#6E985B" d="M23.94,27.276c-0.033,0-0.067-0.007-0.099-0.021c-0.126-0.055-0.185-0.202-0.13-0.328l1.742-4.036
				c0.054-0.127,0.201-0.186,0.329-0.131c0.126,0.055,0.185,0.202,0.13,0.328l-1.742,4.036C24.129,27.22,24.037,27.276,23.94,27.276
				z"/>
		</g>
		<g clip-path="url(#SVGID_2_)">
			<path fill="#6E985B" d="M24.97,27.276c-0.033,0-0.067-0.007-0.099-0.021c-0.126-0.055-0.185-0.202-0.13-0.328l1.742-4.036
				c0.054-0.127,0.202-0.186,0.329-0.131s0.185,0.202,0.13,0.328l-1.742,4.036C25.159,27.22,25.066,27.276,24.97,27.276z"/>
		</g>
		<g clip-path="url(#SVGID_2_)">
			<path fill="#6E985B" d="M26,27.276c-0.033,0-0.067-0.007-0.099-0.021c-0.126-0.055-0.185-0.202-0.13-0.328l1.742-4.036
				c0.054-0.127,0.202-0.186,0.329-0.131c0.126,0.055,0.185,0.202,0.13,0.328l-1.742,4.036C26.189,27.22,26.097,27.276,26,27.276z"
				/>
		</g>
		<g clip-path="url(#SVGID_2_)">
			<path fill="#6E985B" d="M27.03,27.276c-0.033,0-0.067-0.007-0.099-0.021c-0.126-0.055-0.185-0.202-0.13-0.328l1.742-4.036
				c0.054-0.127,0.201-0.186,0.329-0.131c0.126,0.055,0.185,0.202,0.13,0.328l-1.742,4.036C27.219,27.22,27.126,27.276,27.03,27.276
				z"/>
		</g>
		<g clip-path="url(#SVGID_2_)">
			<path fill="#6E985B" d="M28.059,27.276c-0.033,0-0.067-0.007-0.099-0.021c-0.126-0.055-0.185-0.202-0.13-0.328l1.742-4.036
				c0.054-0.127,0.201-0.186,0.329-0.131c0.126,0.055,0.185,0.202,0.13,0.328l-1.742,4.036
				C28.248,27.22,28.156,27.276,28.059,27.276z"/>
		</g>
		<g clip-path="url(#SVGID_2_)">
			<path fill="#6E985B" d="M29.09,27.276c-0.033,0-0.067-0.007-0.099-0.021c-0.126-0.055-0.185-0.202-0.13-0.328l1.742-4.036
				c0.054-0.127,0.202-0.186,0.329-0.131s0.185,0.202,0.13,0.328l-1.742,4.036C29.279,27.22,29.186,27.276,29.09,27.276z"/>
		</g>
		<g clip-path="url(#SVGID_2_)">
			<path fill="#6E985B" d="M30.12,27.276c-0.033,0-0.067-0.007-0.099-0.021c-0.126-0.055-0.185-0.202-0.13-0.328l1.742-4.036
				c0.054-0.127,0.202-0.186,0.329-0.131c0.126,0.055,0.185,0.202,0.13,0.328l-1.742,4.036C30.308,27.22,30.216,27.276,30.12,27.276
				z"/>
		</g>
		<g clip-path="url(#SVGID_2_)">
			<path fill="#6E985B" d="M31.15,27.276c-0.033,0-0.067-0.007-0.099-0.021c-0.126-0.055-0.185-0.202-0.13-0.328l1.742-4.036
				c0.054-0.127,0.201-0.186,0.329-0.131c0.126,0.055,0.185,0.202,0.13,0.328l-1.742,4.036C31.339,27.22,31.246,27.276,31.15,27.276
				z"/>
		</g>
		<g clip-path="url(#SVGID_2_)">
			<path fill="#6E985B" d="M32.18,27.276c-0.033,0-0.067-0.007-0.099-0.021c-0.126-0.055-0.185-0.202-0.13-0.328l1.742-4.036
				c0.054-0.127,0.201-0.186,0.329-0.131c0.126,0.055,0.185,0.202,0.13,0.328l-1.742,4.036C32.369,27.22,32.276,27.276,32.18,27.276
				z"/>
		</g>
	</g>
	<g>
		<path fill="#6E985B" d="M28.437,33H6.116c-2.944,0-5.339-2.396-5.339-5.34V5.34C0.777,2.396,3.172,0,6.116,0h22.321
			c2.944,0,5.339,2.396,5.339,5.34v22.32C33.777,30.604,31.382,33,28.437,33z M6.116,1C3.724,1,1.777,2.947,1.777,5.34v22.32
			c0,2.393,1.947,4.34,4.339,4.34h22.321c2.393,0,4.339-1.947,4.339-4.34V5.34c0-2.393-1.947-4.34-4.339-4.34H6.116z"/>
	</g>
</g>
</svg>
