<?xml version="1.0" encoding="utf-8"?>
<!-- Generator: Adobe Illustrator 17.0.0, SVG Export Plug-In . SVG Version: 6.00 Build 0)  -->
<!DOCTYPE svg PUBLIC "-//W3C//DTD SVG 1.1//EN" "http://www.w3.org/Graphics/SVG/1.1/DTD/svg11.dtd">
<svg version="1.1" id="Capa_1" xmlns="http://www.w3.org/2000/svg" xmlns:xlink="http://www.w3.org/1999/xlink" x="0px" y="0px"
	 width="33px" height="33px" viewBox="0 0 33 33" enable-background="new 0 0 33 33" xml:space="preserve">
<g>
	<g>
		<path fill="#6E985B" d="M27.661,33H5.339C2.395,33,0,30.604,0,27.66V5.34C0,2.396,2.395,0,5.339,0h22.321
			C30.605,0,33,2.396,33,5.34v22.32C33,30.604,30.605,33,27.661,33z M5.339,1C2.947,1,1,2.947,1,5.34v22.32
			C1,30.053,2.947,32,5.339,32h22.321C30.053,32,32,30.053,32,27.66V5.34C32,2.947,30.053,1,27.661,1H5.339z"/>
	</g>
	<ellipse fill="#6E985B" cx="9.097" cy="11.932" rx="2.267" ry="3.115"/>
	<ellipse fill="#6E985B" cx="23.746" cy="11.932" rx="2.427" ry="3.115"/>
	<ellipse fill="#6E985B" cx="16.342" cy="6.933" rx="3.993" ry="4.116"/>
	<path fill="#6E985B" d="M22.512,25.552c0,1.26-1.043,2.448-2.33,2.448H12.91c-1.287,0-2.33-1.188-2.33-2.448l2.512-7.196
		c0-1.26,1.043-2.356,2.33-2.356h2.248c1.287,0,2.33,1.096,2.33,2.356L22.512,25.552z"/>
	<polyline fill="none" stroke="#6E985B" stroke-miterlimit="10" points="9.432,12.698 16.5,17.466 16.5,7 	"/>
	<line fill="none" stroke="#6E985B" stroke-miterlimit="10" x1="17.804" y1="17.373" x2="23.756" y2="12.351"/>
	<line fill="none" stroke="#6E985B" stroke-width="3" stroke-miterlimit="10" x1="16.5" y1="27" x2="16.5" y2="32"/>
</g>
</svg>
