<?xml version="1.0" encoding="utf-8"?>
<!-- Generator: Adobe Illustrator 17.0.0, SVG Export Plug-In . SVG Version: 6.00 Build 0)  -->
<!DOCTYPE svg PUBLIC "-//W3C//DTD SVG 1.1//EN" "http://www.w3.org/Graphics/SVG/1.1/DTD/svg11.dtd">
<svg version="1.1" id="Capa_1" xmlns="http://www.w3.org/2000/svg" xmlns:xlink="http://www.w3.org/1999/xlink" x="0px" y="0px"
	 width="33px" height="33px" viewBox="0 0 33 33" enable-background="new 0 0 33 33" xml:space="preserve">
<g>
	<g>
		<path fill="#00BFA5" d="M27.661,33H5.339C2.395,33,0,30.604,0,27.66V5.34C0,2.396,2.395,0,5.339,0h22.321
			C30.605,0,33,2.396,33,5.34v22.32C33,30.604,30.605,33,27.661,33z M5.339,1C2.947,1,1,2.947,1,5.34v22.32
			C1,30.053,2.947,32,5.339,32h22.321C30.053,32,32,30.053,32,27.66V5.34C32,2.947,30.053,1,27.661,1H5.339z"/>
	</g>
	<g>
		<path fill="#00BFA5" d="M14.305,6.061c-0.272-0.616-0.431-0.977-0.843-1.91c2.995,1.013,5.532,1.871,8.211,2.777
			c2.424-2.059,2.482-2.076,3.939-0.869c-0.621,0.168-1.157,0.229-1.607,0.459c-0.406,0.207-0.717,0.6-1.366,1.171
			c2.85,0.647,5.014,1.823,6.238,4.477c-0.572-0.174-1.049-0.32-1.662-0.507c0.077,0.221,0.087,0.384,0.173,0.477
			c2.858,3.089,3.122,5.531,0.622,8.898c-3.087,4.156-7.09,7.109-12.246,8.178c-3.3,0.685-5.905-0.611-7.298-3.737
			c-2.238-5.021-2.398-10.231-0.564-15.398C8.877,7.335,10.834,5.635,14.305,6.061z M9.813,10.559
			c1.496-1.04,3.153-2.192,4.75-3.302C12.848,6.215,10.819,7.657,9.813,10.559z"/>
		<path fill="#00BFA5" d="M9.813,10.559c1.006-2.902,3.035-4.344,4.75-3.302C12.965,8.367,11.309,9.519,9.813,10.559z"/>
	</g>
	
		<ellipse transform="matrix(0.9002 0.4354 -0.4354 0.9002 8.7328 -7.3937)" fill="#FFFFFF" cx="20.5" cy="15.359" rx="0.657" ry="1.315"/>
	
		<ellipse transform="matrix(0.9002 0.4354 -0.4354 0.9002 8.6694 -5.1169)" fill="#FFFFFF" cx="15.5" cy="16.359" rx="0.657" ry="1.315"/>
	
		<ellipse transform="matrix(0.9002 0.4354 -0.4354 0.9002 6.3926 -5.1803)" fill="#FFFFFF" cx="14.5" cy="11.359" rx="0.657" ry="1.315"/>
	
		<ellipse transform="matrix(0.9002 0.4354 -0.4354 0.9002 10.5378 -9.2715)" fill="#FFFFFF" cx="25.5" cy="18.359" rx="0.657" ry="1.315"/>
	
		<ellipse transform="matrix(0.9002 0.4354 -0.4354 0.9002 11.2455 -6.3597)" fill="#FFFFFF" cx="19.5" cy="21.359" rx="0.657" ry="1.315"/>
	
		<ellipse transform="matrix(0.9002 0.4354 -0.4354 0.9002 8.0708 -2.5045)" fill="#FFFFFF" cx="9.5" cy="16.359" rx="0.657" ry="1.315"/>
	
		<ellipse transform="matrix(0.9002 0.4354 -0.4354 0.9002 10.8827 -2.7767)" fill="#FFFFFF" cx="11.5" cy="22.359" rx="0.657" ry="1.315"/>
	
		<ellipse transform="matrix(0.9002 0.4354 -0.4354 0.9002 12.9237 -3.6838)" fill="#FFFFFF" cx="14.5" cy="26.359" rx="0.657" ry="1.315"/>
	<g>
		<path fill="#FFFFFF" d="M17.497,7.148c-0.097,0.647-0.304,1.284-0.301,1.899c-0.008,0.302,0.062,0.588,0.218,0.747
			c0.07,0.087,0.174,0.141,0.293,0.18c0.106,0.038,0.272,0.069,0.373,0.058l0.488-0.006c0.16-0.007,0.331,0.011,0.482-0.017
			c0.306-0.049,0.599-0.095,0.913-0.131c0.332-0.039,0.66-0.087,0.995-0.119c0.35,0.001,0.701,0.021,1.05,0.034l0.276,0.011
			l0.037,0.306c0.063,0.531,0.106,1.034,0.205,1.522c0.055,0.239,0.112,0.48,0.203,0.694c0.034,0.118,0.089,0.213,0.146,0.308
			c0.048,0.108,0.116,0.187,0.191,0.256c0.025,0.029,0.094,0.097,0.083,0.097c0.052,0.029,0.131,0.077,0.136,0.065
			c0.029,0.023,0.152,0.017,0.243,0c0.207-0.049,0.422-0.182,0.633-0.319c0.423-0.283,0.795-0.659,1.197-1.001
			c-0.29,0.442-0.603,0.865-0.985,1.256c-0.194,0.194-0.413,0.372-0.703,0.494c-0.158,0.048-0.302,0.105-0.53,0.057
			c-0.129-0.023-0.16-0.053-0.226-0.078c-0.122-0.069-0.138-0.105-0.212-0.161c-0.129-0.099-0.238-0.21-0.315-0.338
			c-0.091-0.122-0.176-0.247-0.23-0.378c-0.135-0.26-0.211-0.528-0.291-0.795c-0.15-0.532-0.209-1.075-0.277-1.583l0.313,0.317
			c-0.301-0.004-0.6-0.002-0.9-0.018c-0.312,0.024-0.628,0.064-0.943,0.094c-0.331,0.038-0.684,0.069-1.023,0.096
			c-0.172,0.017-0.327-0.01-0.492-0.013l-0.487-0.028c-0.221-0.016-0.381-0.066-0.572-0.15c-0.179-0.081-0.365-0.206-0.484-0.384
			c-0.135-0.168-0.184-0.376-0.214-0.562c-0.021-0.19-0.009-0.37,0.014-0.544C16.933,8.326,17.229,7.745,17.497,7.148z"/>
	</g>
</g>
</svg>
