<?xml version="1.0" encoding="utf-8"?>
<!-- Generator: Adobe Illustrator 17.0.0, SVG Export Plug-In . SVG Version: 6.00 Build 0)  -->
<!DOCTYPE svg PUBLIC "-//W3C//DTD SVG 1.1//EN" "http://www.w3.org/Graphics/SVG/1.1/DTD/svg11.dtd">
<svg version="1.1" id="Capa_1" xmlns="http://www.w3.org/2000/svg" xmlns:xlink="http://www.w3.org/1999/xlink" x="0px" y="0px"
	 width="33px" height="33px" viewBox="0 0 33 33" enable-background="new 0 0 33 33" xml:space="preserve">
<g>
	<g>
		<path fill="#6E985B" d="M27.661,33H5.339C2.395,33,0,30.604,0,27.66V5.34C0,2.396,2.395,0,5.339,0h22.321
			C30.605,0,33,2.396,33,5.34v22.32C33,30.604,30.605,33,27.661,33z M5.339,1C2.947,1,1,2.947,1,5.34v22.32
			C1,30.053,2.947,32,5.339,32h22.321C30.053,32,32,30.053,32,27.66V5.34C32,2.947,30.053,1,27.661,1H5.339z"/>
	</g>
	<g>
		<path fill="#6E985B" d="M6.26,25.259c-0.521-2.126-1.159-4.573,0.117-6.556c1.176-1.826,5.624-2.072,7.282-3.37
			c2.922-2.287,2.288-8.023,6.161-8.848c4.627-0.985,8.384,4.05,8.309,8.228C27.962,24.052,13.726,31.597,6.612,25.87L6.26,25.259z"
			/>
		<path fill="#FFFFFF" d="M12.523,16.156c0.718,1.128,1.622,1.952,2.995,2.149c1.479,0.213,3.235-0.377,3.66-1.955
			c0.372-1.378-0.398-3.197-1.664-3.879c-1.16-0.625-1.825,0.37-2.319,1.29c-0.638,1.188-1.292,1.874-2.58,2.324"/>
	</g>
</g>
</svg>
