<?xml version="1.0" encoding="utf-8"?>
<!-- Generator: Adobe Illustrator 17.0.0, SVG Export Plug-In . SVG Version: 6.00 Build 0)  -->
<!DOCTYPE svg PUBLIC "-//W3C//DTD SVG 1.1//EN" "http://www.w3.org/Graphics/SVG/1.1/DTD/svg11.dtd">
<svg version="1.1" id="Capa_1" xmlns="http://www.w3.org/2000/svg" xmlns:xlink="http://www.w3.org/1999/xlink" x="0px" y="0px"
	 width="33px" height="33px" viewBox="0 0 33 33" enable-background="new 0 0 33 33" xml:space="preserve">
<g>
	<path fill="#00BFA5" d="M0.851,12.297c0,0,2.922,1.602,6.12-2.396c0,0,3.71,5.748,9.806,0.351c0,0,5.403,5.422,9.6-0.374
		l6.099-5.189c0,0,0.003-3.689-6.193-4.689H5c0,0-5.299,2.609-4.3,5.407"/>
	<path fill="#00BFA5" d="M25.535,9.858c0,0,4.779,3.876,6.779,2.318L32.219,4l-7.465,4.589"/>
	<g>
		<g>
			<g>
				<path fill="#00BFA5" d="M0.452,23.445c0.281-0.44,0.417-0.502,0.963-0.42c0.96,0.144,1.853-0.062,2.697-0.484
					c0.89-0.445,1.657-1.041,2.3-1.778c0.407-0.467,0.89-0.451,1.25,0.046c0.973,1.346,2.327,2.124,4.027,2.193
					c1.754,0.071,3.161-0.664,4.195-2.021c0.572-0.751,0.912-0.751,1.494-0.01c0.989,1.259,2.321,1.989,3.962,2.035
					c1.742,0.049,3.131-0.694,4.158-2.04c0.055-0.072,0.102-0.148,0.156-0.221c0.311-0.418,0.803-0.428,1.142-0.024
					c0.226,0.269,0.433,0.555,0.682,0.803c0.784,0.784,1.698,1.36,2.86,1.466c0.356,0.033,0.723,0,1.08-0.039
					c0.445-0.049,0.776,0.126,0.85,0.493c0.072,0.357-0.178,0.677-0.608,0.753c-1.116,0.198-2.183,0.05-3.201-0.425
					c-0.849-0.397-1.558-0.965-2.211-1.652c-1.309,1.321-2.879,2.159-4.803,2.148c-1.909-0.011-3.477-0.841-4.802-2.142
					c-1.322,1.331-2.906,2.17-4.844,2.142C9.882,24.24,8.308,23.4,6.982,22.059c-0.085,0.074-0.166,0.144-0.247,0.215
					c-1.085,0.948-2.283,1.72-3.76,1.955c-0.602,0.096-1.232,0.035-1.85,0.028c-0.321-0.004-0.515-0.213-0.672-0.455
					C0.452,23.682,0.452,23.564,0.452,23.445z"/>
			</g>
		</g>
		<g>
			<g>
				<path fill="#00BFA5" d="M0.452,28.979c0.21-0.362,0.514-0.495,0.952-0.413c0.935,0.176,1.81-0.041,2.642-0.439
					c0.919-0.44,1.697-1.056,2.363-1.799c0.437-0.488,0.892-0.458,1.282,0.075c1.968,2.687,5.97,3.003,8.172,0.165
					c0.049-0.063,0.094-0.13,0.14-0.195c0.374-0.527,0.895-0.526,1.267-0.001c0.667,0.94,1.566,1.594,2.695,1.949
					c2.107,0.662,4.317-0.091,5.602-1.891c0.086-0.121,0.177-0.251,0.298-0.334c0.336-0.233,0.719-0.098,1.017,0.297
					c0.744,0.986,1.663,1.774,2.936,2.056c0.481,0.107,1.002,0.053,1.505,0.071c0.184,0.007,0.378-0.025,0.549,0.022
					c0.271,0.076,0.432,0.366,0.404,0.635c-0.03,0.289-0.247,0.509-0.585,0.569c-0.86,0.154-1.71,0.115-2.544-0.152
					c-1.036-0.331-1.891-0.921-2.645-1.66c-0.079-0.077-0.157-0.156-0.257-0.257c-1.3,1.33-2.883,2.161-4.797,2.15
					c-1.902-0.011-3.482-0.835-4.804-2.151c-1.308,1.341-2.9,2.175-4.831,2.15c-1.924-0.024-3.514-0.866-4.818-2.203
					c-0.367,0.293-0.71,0.592-1.08,0.857c-1.266,0.906-2.651,1.496-4.28,1.392c-0.196-0.013-0.39-0.045-0.585-0.071
					c-0.297-0.039-0.462-0.235-0.596-0.464C0.452,29.216,0.452,29.098,0.452,28.979z"/>
			</g>
		</g>
	</g>
	<g>
		<g>
			<g>
				<path fill="#FFFFFF" d="M0.452,12.43c0.281-0.454,0.417-0.518,0.963-0.434c0.96,0.148,1.853-0.064,2.697-0.5
					c0.89-0.46,1.657-1.075,2.3-1.837c0.407-0.483,0.89-0.466,1.25,0.048c0.973,1.391,2.327,2.194,4.027,2.266
					c1.754,0.074,3.161-0.687,4.195-2.088c0.572-0.776,0.912-0.776,1.494-0.011c0.989,1.3,2.321,2.055,3.962,2.102
					c1.742,0.051,3.131-0.718,4.158-2.107c0.055-0.074,0.102-0.153,0.156-0.228c0.311-0.432,0.803-0.442,1.142-0.025
					c0.226,0.278,0.433,0.573,0.682,0.83c0.784,0.81,1.698,1.405,2.86,1.515c0.356,0.034,0.723,0,1.08-0.041
					c0.445-0.05,0.776,0.13,0.85,0.509c0.072,0.368-0.178,0.699-0.608,0.778c-1.116,0.205-2.183,0.052-3.201-0.44
					c-0.849-0.41-1.558-0.997-2.211-1.706c-1.309,1.365-2.879,2.231-4.803,2.219c-1.909-0.012-3.477-0.869-4.802-2.213
					c-1.322,1.376-2.906,2.242-4.844,2.213c-1.919-0.029-3.493-0.897-4.819-2.283c-0.085,0.076-0.166,0.149-0.247,0.222
					c-1.085,0.979-2.283,1.777-3.76,2.02c-0.602,0.099-1.232,0.036-1.85,0.028c-0.321-0.004-0.515-0.22-0.672-0.471
					C0.452,12.675,0.452,12.552,0.452,12.43z"/>
			</g>
		</g>
		<g>
			<g>
				<path fill="#00BFA5" d="M0.452,17.631c0.21-0.374,0.514-0.512,0.952-0.427c0.935,0.181,1.81-0.042,2.642-0.454
					c0.919-0.455,1.697-1.091,2.363-1.859c0.437-0.504,0.892-0.473,1.282,0.077c1.968,2.776,5.97,3.103,8.172,0.17
					c0.049-0.066,0.094-0.134,0.14-0.202c0.374-0.544,0.895-0.544,1.267-0.001c0.667,0.971,1.566,1.647,2.695,2.013
					c2.107,0.684,4.317-0.094,5.602-1.954c0.086-0.125,0.177-0.259,0.298-0.345c0.336-0.241,0.719-0.101,1.017,0.307
					c0.744,1.019,1.663,1.833,2.936,2.124c0.481,0.11,1.002,0.055,1.505,0.074c0.184,0.007,0.378-0.026,0.549,0.023
					c0.271,0.078,0.432,0.378,0.404,0.656c-0.03,0.299-0.247,0.526-0.585,0.588c-0.86,0.159-1.71,0.118-2.544-0.157
					c-1.036-0.342-1.891-0.952-2.645-1.715c-0.079-0.08-0.157-0.161-0.257-0.266c-1.3,1.375-2.883,2.233-4.797,2.221
					c-1.902-0.011-3.482-0.863-4.804-2.223c-1.308,1.385-2.9,2.247-4.831,2.222c-1.924-0.025-3.514-0.895-4.818-2.276
					c-0.367,0.302-0.71,0.611-1.08,0.885c-1.266,0.936-2.651,1.546-4.28,1.438c-0.196-0.013-0.39-0.047-0.585-0.073
					c-0.297-0.04-0.462-0.243-0.596-0.48C0.452,17.876,0.452,17.754,0.452,17.631z"/>
			</g>
		</g>
	</g>
	<g>
		<path fill="#00BFA5" d="M27.661,33H5.339C2.395,33,0,30.604,0,27.66V5.34C0,2.396,2.395,0,5.339,0h22.321
			C30.605,0,33,2.396,33,5.34v22.32C33,30.604,30.605,33,27.661,33z M5.339,1C2.947,1,1,2.947,1,5.34v22.32
			C1,30.053,2.947,32,5.339,32h22.321C30.053,32,32,30.053,32,27.66V5.34C32,2.947,30.053,1,27.661,1H5.339z"/>
	</g>
</g>
</svg>
