<?xml version="1.0" encoding="utf-8"?>
<!-- Generator: Adobe Illustrator 17.0.0, SVG Export Plug-In . SVG Version: 6.00 Build 0)  -->
<!DOCTYPE svg PUBLIC "-//W3C//DTD SVG 1.1//EN" "http://www.w3.org/Graphics/SVG/1.1/DTD/svg11.dtd">
<svg version="1.1" id="Capa_1" xmlns="http://www.w3.org/2000/svg" xmlns:xlink="http://www.w3.org/1999/xlink" x="0px" y="0px"
	 width="33px" height="33px" viewBox="0 0 33 33" enable-background="new 0 0 33 33" xml:space="preserve">
<g>
	<g>
		<path fill="#00BFA5" d="M27.661,33H5.339C2.395,33,0,30.604,0,27.66V5.34C0,2.396,2.395,0,5.339,0h22.321
			C30.605,0,33,2.396,33,5.34v22.32C33,30.604,30.605,33,27.661,33z M5.339,1C2.947,1,1,2.947,1,5.34v22.32
			C1,30.053,2.947,32,5.339,32h22.321C30.053,32,32,30.053,32,27.66V5.34C32,2.947,30.053,1,27.661,1H5.339z"/>
	</g>
	<g>
		<g>
			<path fill="#00BFA5" d="M15.695,11.467c0.194-0.759,0.389-1.524,0.601-2.355c-0.634-0.224-1.18-0.408-1.718-0.611
				c-0.545-0.205-1.106-0.387-1.618-0.654c-1.635-0.855-2.328-2.384-1.758-4.203c0.163-0.52,0.783-1.23,1.254-1.277
				c1.894-0.189,3.567,0.938,4.061,2.604c0.256,0.863,0.33,1.777,0.503,2.76c0.513-0.266,0.934-0.485,1.661-0.862
				c-0.854,1.665-1.565,3.052-2.496,4.867c1.516-0.207,2.42-0.442,3.323-0.433c2.987,0.03,6.536,2.948,7.055,5.835
				c0.944,5.25-1.286,9.31-5.296,12.575c-1.234,1.004-2.754,1.535-4.438,0.864c-0.256-0.102-0.614-0.178-0.848-0.084
				c-2.542,1.02-4.343-0.321-5.932-1.891c-2.536-2.507-4.264-5.467-4.348-9.096c-0.092-3.983,2.681-7.408,6.503-8.011
				C13.275,11.324,14.4,11.467,15.695,11.467z M13.293,12.353c-2.475,0.035-4.317,1.334-5.377,3.772
				c-1.596,3.673-0.718,7.039,1.421,10.208C7,18.623,7.934,15.031,13.293,12.353z"/>
			<path fill="#FFFFFF" d="M13.293,12.353C7.934,15.031,7,18.623,9.337,26.333c-2.139-3.169-3.018-6.535-1.421-10.208
				C8.975,13.686,10.818,12.388,13.293,12.353z"/>
		</g>
		<g>
			<path fill="#FFFFFF" d="M12.62,4.025c0,0,0.308,0.201,0.654,0.565c0.168,0.193,0.392,0.365,0.589,0.581
				c0.194,0.209,0.401,0.431,0.608,0.654c0.105,0.119,0.201,0.266,0.309,0.362c0.11,0.099,0.197,0.217,0.294,0.322
				c0.046,0.055,0.096,0.104,0.136,0.162c0.015,0.023,0.055,0.068,0.049,0.071l0.072,0.079c0.097,0.101,0.182,0.207,0.258,0.305
				c0.157,0.189,0.274,0.4,0.343,0.528c0.07,0.135,0.1,0.215,0.1,0.215S15.67,7.769,15.23,7.573
				c-0.117-0.049-0.242-0.103-0.366-0.171l-0.096-0.049l-0.113-0.074c-0.068-0.041-0.129-0.092-0.195-0.14
				c-0.271-0.188-0.541-0.419-0.744-0.66L13.41,6.103C13.26,5.91,13.222,5.8,13.127,5.652c-0.153-0.28-0.304-0.541-0.354-0.785
				C12.635,4.387,12.62,4.025,12.62,4.025z"/>
		</g>
	</g>
</g>
</svg>
