<?xml version="1.0" encoding="utf-8"?>
<!-- Generator: Adobe Illustrator 17.0.0, SVG Export Plug-In . SVG Version: 6.00 Build 0)  -->
<!DOCTYPE svg PUBLIC "-//W3C//DTD SVG 1.1//EN" "http://www.w3.org/Graphics/SVG/1.1/DTD/svg11.dtd">
<svg version="1.1" id="Capa_1" xmlns="http://www.w3.org/2000/svg" xmlns:xlink="http://www.w3.org/1999/xlink" x="0px" y="0px"
	 width="33.462px" height="33.235px" viewBox="0 0 33.462 33.235" enable-background="new 0 0 33.462 33.235" xml:space="preserve">
<g>
	<g>
		<path d="M0.575,25.685"/>
	</g>
</g>
<g>
	<path fill="#6E985B" d="M32.653,15.612L24.09,26.054l5.917,6.126c0,0,1.88-0.348,2.785-2.645"/>
	<polygon fill="#B2FF59" points="21.629,23.919 29.458,32.349 8.995,32.725 	"/>
	<polygon fill="#B2FF59" points="1.767,3.907 7.117,9.351 1.203,13.482 1.016,5.033 	"/>
	<polyline fill="#6E985B" points="21.948,0.715 15.941,17.706 7.117,9.351 18.945,0.621 	"/>
	<path fill="#92CC78" d="M12.28,14.796L1.391,24.464c0,0-1.971,8.448,4.693,8.261c7.043-0.198,2.91,0,2.91,0l11.828-8.918"/>
	<g>
		<defs>
			<path id="SVGID_95_" d="M32.456,28.477c0,2.673-2.167,4.84-4.84,4.84H5.296c-2.673,0-4.84-2.167-4.84-4.84V6.156
				c0-2.673,2.167-4.84,4.84-4.84h22.321c2.673,0,4.84,2.167,4.84,4.84V28.477z"/>
		</defs>
		<clipPath id="SVGID_2_">
			<use xlink:href="#SVGID_95_"  overflow="visible"/>
		</clipPath>
		<g clip-path="url(#SVGID_2_)">
			<g>
				<polygon fill="#6E985B" points="31.962,35.494 -0.811,1.934 -0.087,1.193 32.686,34.753 				"/>
			</g>
		</g>
		<g clip-path="url(#SVGID_2_)">
			<g>
				<path fill="#6E985B" d="M24.125,26.806l-0.793-0.531c3.669-4.599,9.342-11.959,10.766-13.959h-1.296l0.035-0.691
					c0.518-8.218,0.754-12.023,0.957-13.72L22.971-0.741L16.42,18.045l-0.964-0.361l6.763-19.415L33.987-3.24
					c0.107-0.33,0.227-0.325,0.393-0.322c0.099,0.003,0.281,0.035,0.398,0.219l3.142-0.402l-1.149,1.103
					c-0.381,0.366-1.274,1.286-2.031,1.205c-0.198,2.567-0.573,7.753-0.845,12.753h1.314l0.17,0.16
					C35.549,11.846,35.783,12.192,24.125,26.806z"/>
			</g>
		</g>
		<g clip-path="url(#SVGID_2_)">
			<g>
				<polygon fill="#6E985B" points="-3.893,17.796 -4.478,16.935 19.937,-0.454 3.837,-2.635 3.971,-3.676 22.692,-1.138 				"/>
			</g>
		</g>
		<g clip-path="url(#SVGID_2_)">
			<g>
				<polygon fill="#6E985B" points="0.456,39.285 0.456,24.659 12.214,14.277 12.843,15.069 1.456,25.138 -2.739,39.765 
					21.06,23.063 21.629,23.919 				"/>
			</g>
		</g>
	</g>
	<g>
		<path fill="#6E985B" d="M28.117,33.317H5.796c-2.944,0-5.339-2.396-5.339-5.34V5.657c0-2.944,2.395-5.34,5.339-5.34h22.321
			c2.944,0,5.339,2.396,5.339,5.34v22.32C33.456,30.921,31.061,33.317,28.117,33.317z M5.796,1.317c-2.393,0-4.339,1.947-4.339,4.34
			v22.32c0,2.393,1.947,4.34,4.339,4.34h22.321c2.393,0,4.339-1.947,4.339-4.34V5.657c0-2.393-1.947-4.34-4.339-4.34H5.796z"/>
	</g>
</g>
</svg>
