<?xml version="1.0" encoding="utf-8"?>
<!-- Generator: Adobe Illustrator 17.0.0, SVG Export Plug-In . SVG Version: 6.00 Build 0)  -->
<!DOCTYPE svg PUBLIC "-//W3C//DTD SVG 1.1//EN" "http://www.w3.org/Graphics/SVG/1.1/DTD/svg11.dtd">
<svg version="1.1" id="Capa_1" xmlns="http://www.w3.org/2000/svg" xmlns:xlink="http://www.w3.org/1999/xlink" x="0px" y="0px"
	 width="33px" height="33px" viewBox="0 0 33 33" enable-background="new 0 0 33 33" xml:space="preserve">
<g>
	<g>
		<g>
			<path fill="#6E985B" d="M33,27.66c0,2.949-2.391,5.34-5.34,5.34H5.34C2.391,33,0,30.609,0,27.66V5.34C0,2.391,2.391,0,5.34,0
				h22.32C30.609,0,33,2.391,33,5.34V27.66z M32,5.34C32,2.943,30.057,1,27.661,1H5.339C2.943,1,1,2.943,1,5.34v22.32
				C1,30.057,2.943,32,5.339,32h22.321C30.057,32,32,30.057,32,27.66V5.34z"/>
		</g>
	</g>
	<path fill="#6E985B" d="M22.54,4.83c0,0-9.693-3.433-18.78,14.337"/>
	<path fill="#6E985B" d="M27.458,26.938c0.31,0.463,0.186,1.09-0.277,1.401l-0.265,0.178c-0.463,0.31-1.09,0.186-1.401-0.277
		L11.026,6.596c-0.31-0.463-0.186-1.09,0.277-1.401l0.265-0.178c0.463-0.31,1.09-0.186,1.401,0.277L27.458,26.938z"/>
	<path fill="#6E985B" d="M9.827,19.239c-0.58,0.283-2.399,0.309-2.85,0.822c-0.34,0.387-0.223,1.755-0.229,2.263
		c-0.006,0.564-0.073,1.359,0.187,1.892c0.389,0.798-0.014,0.297,0.852,0.692c0.95,0.433,3.153,2.226,4.028,2.224
		c1.22-0.003,3.004-1.882,4.054-2.396c-0.69-1.947-1.001-1.206-1.285-2.108c-0.13-0.413-0.365-1.771-0.668-2.059
		c-0.729-0.693-3.709,0.505-3.829-1.054"/>
</g>
</svg>
