<?xml version="1.0" encoding="utf-8"?>
<!-- Generator: Adobe Illustrator 17.0.0, SVG Export Plug-In . SVG Version: 6.00 Build 0)  -->
<!DOCTYPE svg PUBLIC "-//W3C//DTD SVG 1.1//EN" "http://www.w3.org/Graphics/SVG/1.1/DTD/svg11.dtd">
<svg version="1.1" id="Capa_1" xmlns="http://www.w3.org/2000/svg" xmlns:xlink="http://www.w3.org/1999/xlink" x="0px" y="0px"
	 width="33px" height="33px" viewBox="0 0 33 33" enable-background="new 0 0 33 33" xml:space="preserve">
<g>
	<path fill="#00BFA5" d="M10,33V9.833C10,8.269,8.83,7,7.233,7h-0.34C5.295,7,4,8.269,4,9.833V33"/>
	<path fill="#00BFA5" d="M20,32V16.833C20,15.269,19.018,14,17.42,14h-0.34C15.482,14,14,15.269,14,16.833V32"/>
	<path fill="#00BFA5" d="M29,32V20.833C29,19.269,28.205,18,26.608,18h-0.34C24.67,18,23,19.269,23,20.833V32"/>
	<g>
		<path fill="#00BFA5" d="M27.661,33H5.339C2.395,33,0,30.604,0,27.66V5.34C0,2.396,2.395,0,5.339,0h22.321
			C30.605,0,33,2.396,33,5.34v22.32C33,30.604,30.605,33,27.661,33z M5.339,1C2.947,1,1,2.947,1,5.34v22.32
			C1,30.053,2.947,32,5.339,32h22.321C30.053,32,32,30.053,32,27.66V5.34C32,2.947,30.053,1,27.661,1H5.339z"/>
	</g>
</g>
</svg>
