<?xml version="1.0" encoding="utf-8"?>
<!-- Generator: Adobe Illustrator 17.0.0, SVG Export Plug-In . SVG Version: 6.00 Build 0)  -->
<!DOCTYPE svg PUBLIC "-//W3C//DTD SVG 1.1//EN" "http://www.w3.org/Graphics/SVG/1.1/DTD/svg11.dtd">
<svg version="1.1" id="Capa_1" xmlns="http://www.w3.org/2000/svg" xmlns:xlink="http://www.w3.org/1999/xlink" x="0px" y="0px"
	 width="33px" height="33px" viewBox="0 0 33 33" enable-background="new 0 0 33 33" xml:space="preserve">
<g>
	<g>
		<g>
			<path fill="#6E985B" d="M11.298,11.174c0.473,0.321,1.021,0.668,1.354,1.086c0.446,0.559,1.562,1.712,2.073,2.186
				c0.899-0.52,1.038-1.576,1.782-2.262c0.801-0.739-0.352-1.716,0.157-2.863c-0.965-0.508-1.794-0.779-1.96-2.03
				c-0.888,0.568-1.089-0.585-1.938-1.601c-0.063,1.62-0.714,2.895-1.208,3.343c0,0,0.021,1.777-0.259,1.983"/>
		</g>
		<g>
			<path fill="#FFFFFF" d="M12.999,7.103c0,0,0.199,0.344,0.453,0.884c0.26,0.537,0.543,1.279,0.796,2.033
				c0.121,0.378,0.208,0.769,0.306,1.128c0.087,0.364,0.121,0.714,0.173,1.008c0.039,0.297,0.016,0.552,0.025,0.724
				c0.001,0.173,0.002,0.272,0.002,0.272s-0.074-0.395-0.193-0.967c-0.148-0.571-0.347-1.328-0.598-2.074
				C13.481,8.607,12.999,7.103,12.999,7.103z"/>
		</g>
		<g>
			<path fill="#FFFFFF" d="M15.145,11.713c0,0-0.027-0.112-0.042-0.278c-0.003-0.082-0.017-0.177,0.032-0.283
				c0.04-0.105,0.083-0.217,0.126-0.329c0.12-0.182,0.249-0.364,0.359-0.479c0.113-0.118,0.207-0.192,0.207-0.192
				s-0.014,0.112-0.06,0.276c-0.047,0.168-0.144,0.353-0.244,0.541c-0.075,0.173-0.212,0.318-0.254,0.49
				C15.205,11.612,15.145,11.713,15.145,11.713z"/>
		</g>
		<g>
			<path fill="#FFFFFF" d="M14.511,9.762c0,0-0.043-0.084-0.083-0.209c-0.051-0.121-0.024-0.306-0.009-0.488
				c0.051-0.164,0.103-0.33,0.176-0.438c0.072-0.111,0.136-0.181,0.136-0.181s0.021,0.092,0.027,0.224
				c0.005,0.133-0.017,0.295-0.047,0.457c-0.028,0.15-0.085,0.293-0.115,0.426C14.555,9.678,14.511,9.762,14.511,9.762z"/>
		</g>
		<g>
			<path fill="#FFFFFF" d="M12.072,9.396c0,0,0.108-0.037,0.269-0.061c0.081,0.013,0.199,0.003,0.299,0.046
				c0.1,0.041,0.208,0.086,0.3,0.148c0.194,0.137,0.309,0.305,0.412,0.422c0.094,0.122,0.159,0.226,0.159,0.226
				s-0.103-0.023-0.26-0.091c-0.16-0.058-0.317-0.222-0.479-0.31c-0.155-0.131-0.319-0.198-0.447-0.274
				C12.175,9.445,12.072,9.396,12.072,9.396z"/>
		</g>
		<g>
			<path fill="#FFFFFF" d="M12.414,11.176c0,0,0.085-0.048,0.215-0.097c0.067-0.014,0.136-0.056,0.229-0.046
				c0.092,0.004,0.189,0.009,0.287,0.013c0.088,0.036,0.177,0.071,0.259,0.105c0.086,0.027,0.139,0.099,0.195,0.139
				c0.102,0.1,0.156,0.178,0.156,0.178s-0.101-0.004-0.232-0.027c-0.121-0.028-0.282-0.065-0.443-0.103
				c-0.151-0.024-0.303-0.072-0.444-0.092C12.503,11.214,12.414,11.176,12.414,11.176z"/>
		</g>
	</g>
	<g>
		<g>
			<path fill="#6E985B" d="M23.769,15.091c-0.314,0.488-0.651,1.054-1.067,1.403c-0.556,0.467-1.697,1.631-2.164,2.161
				c0.551,0.899,1.627,1.013,2.343,1.749c0.771,0.794,1.733-0.402,2.911,0.084c0.49-0.993,0.744-1.841,2.009-2.042
				c-0.6-0.887,0.566-1.121,1.575-2.009c-1.646-0.022-2.957-0.649-3.425-1.139c0,0-1.804,0.068-2.02-0.212"/>
		</g>
		<g>
			<path fill="#FFFFFF" d="M27.946,16.711c0,0-0.344,0.211-0.885,0.483c-0.538,0.278-1.284,0.585-2.043,0.861
				c-0.381,0.133-0.775,0.231-1.137,0.341c-0.367,0.098-0.722,0.141-1.018,0.202c-0.3,0.047-0.56,0.03-0.734,0.044
				c-0.176,0.006-0.276,0.009-0.276,0.009s0.399-0.085,0.977-0.221c0.576-0.166,1.339-0.387,2.09-0.662
				c0.378-0.129,0.758-0.251,1.108-0.388c0.354-0.126,0.684-0.243,0.967-0.344C27.565,16.842,27.946,16.711,27.946,16.711z"/>
		</g>
		<g>
			<path fill="#FFFFFF" d="M23.323,19.01c0,0,0.113-0.03,0.281-0.05c0.083-0.005,0.18-0.021,0.288,0.025
				c0.108,0.038,0.223,0.079,0.337,0.12c0.188,0.117,0.376,0.243,0.496,0.352c0.122,0.112,0.201,0.205,0.201,0.205
				s-0.114-0.011-0.281-0.054c-0.172-0.043-0.362-0.137-0.555-0.234c-0.178-0.072-0.329-0.206-0.504-0.245
				C23.427,19.068,23.323,19.01,23.323,19.01z"/>
		</g>
		<g>
			<path fill="#FFFFFF" d="M25.287,18.316c0,0,0.084-0.046,0.21-0.09c0.121-0.055,0.31-0.033,0.495-0.022
				c0.168,0.047,0.337,0.096,0.45,0.168c0.115,0.07,0.187,0.133,0.187,0.133s-0.093,0.023-0.227,0.033
				c-0.135,0.008-0.3-0.01-0.465-0.036c-0.153-0.025-0.3-0.079-0.436-0.106C25.373,18.358,25.287,18.316,25.287,18.316z"/>
		</g>
		<g>
			<path fill="#FFFFFF" d="M25.595,15.831c0,0,0.041,0.108,0.069,0.272c-0.011,0.083,0.002,0.202-0.039,0.305
				c-0.039,0.103-0.082,0.213-0.142,0.308c-0.134,0.201-0.301,0.322-0.418,0.429c-0.122,0.099-0.225,0.167-0.225,0.167
				s0.021-0.105,0.085-0.266c0.055-0.164,0.217-0.327,0.302-0.494c0.129-0.161,0.193-0.329,0.266-0.461
				C25.547,15.936,25.595,15.831,25.595,15.831z"/>
		</g>
		<g>
			<path fill="#FFFFFF" d="M23.796,16.224c0,0,0.051,0.085,0.104,0.215c0.016,0.067,0.06,0.136,0.053,0.232
				c-0.002,0.093-0.004,0.192-0.006,0.292c-0.034,0.091-0.068,0.181-0.1,0.266c-0.025,0.088-0.097,0.144-0.136,0.202
				c-0.098,0.106-0.176,0.163-0.176,0.163s0.001-0.103,0.022-0.236c0.025-0.123,0.059-0.288,0.093-0.452
				c0.021-0.154,0.065-0.309,0.081-0.453C23.76,16.316,23.796,16.224,23.796,16.224z"/>
		</g>
	</g>
	<g>
		<g>
			<path fill="#6E985B" d="M21.182,8.142c0.131,0.735,0.307,1.564,0.221,2.257c-0.116,0.927-0.676,4.316-0.653,5.226
				c1.307,0.367,2.962-1.362,4.242-1.691c1.445-0.371,1.284-1.895,2.821-2.467c-0.406-1.366-0.908-2.389,0.11-3.686
				c-1.342-0.312-0.447-1.553-0.272-3.274c-1.573,1.42-3.358,1.975-4.228,1.922c0,0-1.643,1.642-2.091,1.567"/>
		</g>
		<g>
			<path fill="#FFFFFF" d="M26.541,6.017c0,0-0.135,0.503-0.413,1.23c-0.265,0.733-0.7,1.675-1.174,2.6
				c-0.243,0.459-0.53,0.896-0.775,1.316c-0.261,0.413-0.558,0.765-0.784,1.081c-0.109,0.162-0.253,0.279-0.361,0.395
				c-0.112,0.113-0.209,0.211-0.29,0.292c-0.163,0.157-0.256,0.247-0.256,0.247s0.073-0.108,0.2-0.298
				c0.065-0.092,0.143-0.204,0.233-0.333c0.084-0.133,0.2-0.263,0.295-0.433c0.399-0.66,0.926-1.537,1.393-2.453
				c0.243-0.453,0.496-0.9,0.706-1.335C25.54,7.9,25.749,7.5,25.928,7.157C26.296,6.473,26.541,6.017,26.541,6.017z"/>
		</g>
		<g>
			<path fill="#FFFFFF" d="M24.19,12.23c0,0,0.015-0.036,0.049-0.092c0.042-0.05,0.065-0.144,0.161-0.214
				c0.089-0.075,0.195-0.178,0.323-0.231c0.127-0.068,0.266-0.11,0.405-0.165c0.285-0.061,0.566-0.1,0.78-0.097
				c0.212-0.004,0.366,0.014,0.366,0.014s-0.116,0.103-0.314,0.2c-0.197,0.103-0.469,0.178-0.729,0.26
				c-0.129,0.033-0.266,0.057-0.379,0.101c-0.122,0.036-0.229,0.058-0.32,0.094C24.335,12.169,24.191,12.238,24.19,12.23z"/>
		</g>
		<g>
			<path fill="#FFFFFF" d="M25.435,9.857c0,0,0.035-0.121,0.12-0.269c0.066-0.158,0.264-0.302,0.448-0.454
				c0.2-0.102,0.402-0.204,0.571-0.235c0.166-0.039,0.293-0.038,0.293-0.038s-0.064,0.108-0.185,0.23
				c-0.12,0.126-0.292,0.253-0.47,0.373c-0.087,0.051-0.174,0.102-0.256,0.149c-0.084,0.042-0.178,0.085-0.248,0.132
				C25.558,9.825,25.435,9.857,25.435,9.857z"/>
		</g>
		<g>
			<path fill="#FFFFFF" d="M23.551,7.242c0,0,0.137,0.063,0.303,0.196c0.062,0.088,0.179,0.189,0.23,0.321
				c0.053,0.131,0.11,0.273,0.135,0.415c0.049,0.307-0.003,0.567-0.019,0.77C24.178,9.144,24.135,9.3,24.135,9.3
				s-0.078-0.116-0.152-0.326c-0.034-0.108-0.073-0.224-0.086-0.352c-0.014-0.136-0.026-0.256-0.062-0.379
				c-0.019-0.264-0.105-0.479-0.152-0.668C23.594,7.387,23.551,7.242,23.551,7.242z"/>
		</g>
		<g>
			<path fill="#FFFFFF" d="M22.198,9.187c0,0,0.127,0.031,0.286,0.113c0.074,0.05,0.176,0.076,0.252,0.172
				c0.08,0.09,0.165,0.185,0.249,0.28c0.047,0.115,0.094,0.23,0.139,0.338c0.053,0.105,0.035,0.221,0.048,0.31
				c0.005,0.185-0.024,0.308-0.024,0.308s-0.094-0.097-0.186-0.242c-0.084-0.138-0.196-0.323-0.308-0.508
				C22.54,9.796,22.446,9.61,22.336,9.46C22.241,9.31,22.198,9.187,22.198,9.187z"/>
		</g>
	</g>
	<g>
		<path fill="#92CC78" d="M15.11,16.904c-0.083-0.22-0.274-0.373-0.388-0.576c-0.137-0.242-0.225-0.55-0.311-0.813
			c-0.209-0.637,0.134-1.152,0.496-1.696c0.416-0.626,0.883-1.229,1.229-1.899c0.193-0.373,0.289-1.394,0.712-1.492
			c0.396,1.01,0.903,2.077,1.122,3.142c0.389,1.885-0.963,2.95-2.44,3.712"/>
		<path fill="#FFFFFF" d="M15.586,17.394l-0.114-0.223c1.31-0.675,2.764-1.692,2.375-3.575c-0.166-0.805-0.501-1.618-0.825-2.404
			c-0.082-0.197-0.163-0.395-0.24-0.589c-0.162,0.146-0.271,0.541-0.355,0.843c-0.058,0.206-0.112,0.401-0.18,0.533
			c-0.251,0.487-0.569,0.943-0.875,1.385c-0.122,0.175-0.243,0.349-0.36,0.525c-0.36,0.542-0.671,1.009-0.481,1.588l0.042,0.128
			c0.074,0.23,0.151,0.47,0.26,0.663c0.042,0.075,0.099,0.145,0.158,0.219c0.09,0.111,0.183,0.227,0.238,0.374l-0.234,0.088
			c-0.041-0.109-0.118-0.204-0.199-0.306c-0.063-0.078-0.128-0.159-0.181-0.252c-0.122-0.216-0.206-0.479-0.28-0.71l-0.041-0.126
			c-0.228-0.694,0.147-1.259,0.51-1.805c0.119-0.178,0.241-0.354,0.363-0.529c0.302-0.435,0.615-0.885,0.859-1.357
			c0.056-0.108,0.107-0.291,0.161-0.485c0.129-0.463,0.275-0.988,0.634-1.071l0.105-0.024l0.039,0.101
			c0.092,0.235,0.19,0.474,0.29,0.714c0.329,0.797,0.668,1.621,0.839,2.448C18.515,15.593,16.975,16.678,15.586,17.394z"/>
	</g>
	<g>
		<path fill="#92CC78" d="M11.063,16.438c-0.207,0.11-0.336,0.318-0.522,0.457c-0.223,0.166-0.518,0.292-0.768,0.41
			c-0.606,0.287-1.159,0.012-1.745-0.28c-0.673-0.335-1.33-0.722-2.038-0.981c-0.394-0.145-1.419-0.113-1.569-0.52
			c0.953-0.52,1.948-1.155,2.976-1.507c1.821-0.622,3.047,0.586,3.988,1.957"/>
	</g>
	<g>
		<path fill="#92CC78" d="M13.694,22.9c0.097,0.214,0.297,0.354,0.425,0.549c0.152,0.233,0.26,0.534,0.363,0.791
			c0.25,0.622-0.059,1.158-0.385,1.725c-0.375,0.651-0.801,1.284-1.103,1.974c-0.168,0.385-0.198,1.41-0.614,1.535
			c-0.461-0.982-1.035-2.014-1.324-3.062c-0.511-1.855,0.769-3.006,2.195-3.862"/>
	</g>
	<g>
		<path fill="#92CC78" d="M17.235,22.51c0.231-0.041,0.417-0.201,0.637-0.277c0.263-0.09,0.582-0.12,0.856-0.157
			c0.665-0.089,1.108,0.342,1.577,0.797c0.539,0.524,1.048,1.092,1.643,1.555c0.331,0.258,1.318,0.539,1.336,0.972
			c-1.066,0.205-2.207,0.508-3.294,0.53c-1.924,0.039-2.725-1.485-3.204-3.077"/>
	</g>
	<g>
		<path fill="#6E985B" d="M27.661,33H5.339C2.395,33,0,30.604,0,27.66V5.34C0,2.396,2.395,0,5.339,0h22.321
			C30.605,0,33,2.396,33,5.34v22.32C33,30.604,30.605,33,27.661,33z M5.339,1C2.947,1,1,2.947,1,5.34v22.32
			C1,30.053,2.947,32,5.339,32h22.321C30.053,32,32,30.053,32,27.66V5.34C32,2.947,30.053,1,27.661,1H5.339z"/>
	</g>
	<path fill="#92CC78" d="M15.065,19.965c0.005-0.396-0.2-0.755-0.255-1.144c-0.066-0.465-0.014-1.003,0.012-1.469
		c0.064-1.13,0.919-1.728,1.824-2.36c1.04-0.727,2.144-1.388,3.1-2.227c0.533-0.467,1.313-2.012,2.037-1.905
		c0.001,1.832,0.139,3.819-0.172,5.628c-0.549,3.201-3.33,4.042-6.121,4.329"/>
	<path fill="#FFFFFF" d="M15.516,21.065l-0.051-0.498c2.461-0.252,5.356-0.948,5.9-4.121c0.234-1.365,0.208-2.848,0.183-4.282
		c-0.006-0.341-0.012-0.68-0.014-1.013c-0.32,0.155-0.708,0.672-1.008,1.07c-0.218,0.29-0.425,0.564-0.615,0.731
		c-0.696,0.61-1.475,1.132-2.228,1.636c-0.3,0.201-0.6,0.402-0.894,0.608c-0.891,0.622-1.661,1.159-1.718,2.169l-0.014,0.225
		c-0.026,0.407-0.053,0.828,0,1.195c0.021,0.149,0.067,0.294,0.113,0.438c0.073,0.233,0.148,0.474,0.145,0.744l-0.5-0.006
		c0.002-0.19-0.058-0.384-0.122-0.588c-0.052-0.165-0.105-0.335-0.131-0.518c-0.059-0.419-0.03-0.886-0.003-1.298l0.014-0.221
		c0.071-1.252,1.017-1.912,1.931-2.551c0.297-0.208,0.6-0.41,0.902-0.613c0.74-0.495,1.504-1.008,2.176-1.597
		c0.151-0.133,0.343-0.387,0.545-0.656c0.494-0.657,1.035-1.413,1.677-1.308L22,10.645v0.216c0,0.425,0.025,0.857,0.032,1.295
		c0.025,1.457,0.06,2.964-0.182,4.375C21.249,20.035,18.153,20.795,15.516,21.065z"/>
	<path fill="#92CC78" d="M14.404,20.059c-0.38-0.111-0.781-0.01-1.17-0.062c-0.466-0.062-0.97-0.256-1.412-0.407
		c-1.071-0.366-1.417-1.35-1.782-2.392c-0.42-1.197-0.76-2.439-1.311-3.585c-0.307-0.639-1.585-1.806-1.287-2.475
		c1.764,0.492,3.716,0.894,5.374,1.679c2.935,1.39,2.997,4.295,2.523,7.06"/>
	<path fill="#FFFFFF" d="M14.333,20.299c-0.182-0.054-0.385-0.046-0.599-0.041c-0.172,0.006-0.35,0.011-0.534-0.013
		c-0.421-0.056-0.865-0.211-1.257-0.349l-0.203-0.07c-1.185-0.405-1.567-1.492-1.937-2.543c-0.12-0.341-0.232-0.684-0.345-1.026
		c-0.279-0.849-0.568-1.727-0.956-2.535c-0.088-0.183-0.281-0.436-0.486-0.703c-0.5-0.653-1.066-1.393-0.804-1.981l0.088-0.197
		l0.208,0.058c0.409,0.114,0.829,0.224,1.252,0.334c1.41,0.368,2.868,0.748,4.161,1.36c3.213,1.521,3.111,4.716,2.663,7.328
		l-0.493-0.084c0.419-2.439,0.526-5.415-2.383-6.793c-1.251-0.592-2.686-0.966-4.074-1.327c-0.33-0.086-0.658-0.172-0.98-0.259
		c0.063,0.35,0.457,0.862,0.759,1.258c0.221,0.289,0.43,0.562,0.54,0.79c0.402,0.838,0.696,1.731,0.98,2.596
		c0.112,0.34,0.224,0.679,0.341,1.015c0.361,1.026,0.671,1.911,1.627,2.238l0.206,0.071c0.387,0.136,0.788,0.275,1.158,0.324
		c0.149,0.02,0.301,0.014,0.452,0.01c0.244-0.011,0.496-0.017,0.756,0.06L14.333,20.299z"/>
	<g>
		<path fill="#92CC78" d="M15.288,19.436c-0.084,0.387,0.046,0.779,0.022,1.172c-0.029,0.469-0.187,0.985-0.306,1.437
			c-0.289,1.094-1.246,1.509-2.259,1.948c-1.164,0.504-2.379,0.931-3.483,1.562c-0.615,0.351-1.689,1.709-2.377,1.459
			c0.366-1.795,0.628-3.77,1.294-5.48c1.178-3.026,2.857-2.357,5.649-2.08"/>
		<path fill="#FFFFFF" d="M7.063,27.294c-0.09,0-0.178-0.014-0.265-0.045l-0.203-0.074l0.043-0.211
			c0.085-0.416,0.164-0.842,0.244-1.271c0.267-1.434,0.542-2.916,1.062-4.25c1.099-2.822,2.692-2.628,4.899-2.354
			c0.319,0.039,0.654,0.08,1.008,0.115l-0.049,0.498c-0.358-0.036-0.697-0.077-1.02-0.117c-2.202-0.27-3.415-0.42-4.372,2.04
			c-0.502,1.29-0.773,2.749-1.036,4.159c-0.062,0.335-0.124,0.667-0.188,0.994c0.345-0.088,0.829-0.517,1.201-0.846
			c0.272-0.241,0.53-0.47,0.751-0.595c0.805-0.46,1.673-0.815,2.512-1.159c0.333-0.137,0.666-0.273,0.995-0.416
			c0.998-0.432,1.859-0.805,2.117-1.781l0.058-0.216c0.107-0.395,0.217-0.802,0.24-1.173c0.009-0.15-0.007-0.302-0.023-0.452
			c-0.025-0.242-0.051-0.493,0.006-0.757l0.488,0.105c-0.04,0.186-0.02,0.388,0.002,0.601c0.018,0.172,0.036,0.349,0.025,0.534
			c-0.026,0.422-0.148,0.874-0.257,1.272l-0.057,0.212c-0.32,1.212-1.378,1.67-2.401,2.113c-0.332,0.144-0.668,0.281-1.004,0.419
			c-0.825,0.338-1.677,0.688-2.454,1.131c-0.176,0.101-0.415,0.312-0.667,0.535C8.19,26.773,7.602,27.294,7.063,27.294z"/>
	</g>
	<path fill="#92CC78" d="M15.731,19.832c0.323,0.229,0.735,0.263,1.087,0.439c0.42,0.21,0.834,0.558,1.203,0.844
		c0.894,0.694,0.9,1.738,0.908,2.841c0.008,1.269-0.074,2.553,0.073,3.816c0.082,0.704,0.911,2.223,0.412,2.759
		c-1.508-1.039-3.223-2.054-4.536-3.336c-2.324-2.269-1.438-5.036-0.089-7.497"/>
	<path fill="#FFFFFF" d="M19.449,30.859l-0.177-0.122c-0.35-0.241-0.71-0.479-1.074-0.722c-1.215-0.807-2.471-1.641-3.496-2.642
		c-2.543-2.483-1.407-5.47-0.134-7.795l0.438,0.24c-1.188,2.17-2.258,4.949,0.045,7.197c0.991,0.968,2.227,1.789,3.423,2.583
		c0.283,0.188,0.564,0.375,0.84,0.562c0.053-0.352-0.151-0.964-0.309-1.436c-0.115-0.346-0.224-0.672-0.254-0.924
		c-0.108-0.924-0.095-1.866-0.083-2.776c0.005-0.356,0.01-0.713,0.008-1.067c-0.007-1.088-0.014-2.025-0.811-2.646l-0.169-0.133
		c-0.323-0.255-0.657-0.519-0.992-0.686c-0.135-0.067-0.281-0.111-0.425-0.156c-0.233-0.071-0.474-0.146-0.694-0.302l0.289-0.408
		c0.155,0.109,0.348,0.169,0.553,0.232c0.165,0.051,0.335,0.104,0.501,0.187c0.38,0.19,0.751,0.482,1.078,0.74l0.167,0.131
		c0.989,0.769,0.997,1.92,1.004,3.034c0.002,0.36-0.003,0.72-0.008,1.08c-0.012,0.895-0.025,1.819,0.08,2.711
		c0.023,0.201,0.124,0.504,0.231,0.824c0.26,0.779,0.555,1.663,0.115,2.135L19.449,30.859z"/>
	<path fill="#92CC78" d="M16.07,19.459c0.294-0.128,0.49-0.398,0.758-0.568c0.321-0.203,0.734-0.343,1.087-0.478
		c0.854-0.328,1.578,0.104,2.345,0.561c0.881,0.525,1.735,1.12,2.67,1.546c0.521,0.238,1.919,0.3,2.08,0.87
		c-1.35,0.608-2.769,1.369-4.205,1.741c-2.541,0.657-4.084-1.113-5.221-3.075"/>
	<path fill="#FFFFFF" d="M19.772,23.519c-2.188,0-3.542-1.849-4.405-3.338l0.433-0.25c0.994,1.715,2.452,3.609,4.942,2.958
		c1.077-0.278,2.158-0.788,3.204-1.28c0.226-0.106,0.45-0.212,0.673-0.314c-0.239-0.15-0.703-0.255-1.038-0.331
		c-0.29-0.065-0.564-0.128-0.755-0.215c-0.687-0.313-1.334-0.717-1.959-1.107c-0.244-0.152-0.488-0.305-0.734-0.451
		c-0.745-0.444-1.387-0.825-2.127-0.543l-0.162,0.062c-0.309,0.115-0.629,0.235-0.881,0.395c-0.102,0.064-0.191,0.145-0.28,0.225
		c-0.15,0.133-0.305,0.271-0.512,0.361l-0.2-0.459c0.134-0.058,0.253-0.164,0.38-0.276c0.11-0.098,0.221-0.195,0.345-0.273
		c0.295-0.187,0.655-0.321,0.972-0.44l0.159-0.06c0.968-0.369,1.778,0.112,2.562,0.58c0.25,0.148,0.496,0.303,0.743,0.457
		c0.612,0.382,1.245,0.776,1.902,1.076c0.145,0.066,0.394,0.122,0.658,0.183c0.661,0.148,1.41,0.318,1.56,0.847l0.059,0.208
		l-0.197,0.088c-0.314,0.142-0.632,0.292-0.953,0.442c-1.066,0.503-2.169,1.022-3.292,1.313
		C20.481,23.473,20.116,23.519,19.772,23.519z"/>
	<path fill="#92CC78" d="M13.296,20.501c-0.294,0.126-0.491,0.396-0.761,0.564c-0.322,0.201-0.736,0.34-1.089,0.473
		c-0.856,0.324-1.578-0.112-2.342-0.572c-0.878-0.529-1.729-1.128-2.663-1.558c-0.52-0.24-1.917-0.309-2.076-0.879
		c1.352-0.602,2.775-1.357,4.213-1.722c2.544-0.646,4.079,1.132,5.207,3.099"/>
	<path fill="#FFFFFF" d="M10.849,21.901c-0.677,0-1.282-0.364-1.871-0.719c-0.252-0.152-0.5-0.308-0.747-0.464
		c-0.609-0.384-1.239-0.781-1.894-1.084c-0.144-0.066-0.393-0.123-0.656-0.185c-0.66-0.151-1.408-0.324-1.556-0.854l-0.058-0.208
		l0.197-0.088c0.313-0.14,0.631-0.287,0.951-0.437c1.07-0.498,2.176-1.013,3.301-1.299c2.85-0.727,4.495,1.489,5.486,3.217
		l-0.434,0.248c-0.987-1.72-2.443-3.613-4.929-2.98c-1.08,0.274-2.165,0.779-3.213,1.268c-0.225,0.105-0.449,0.209-0.671,0.311
		c0.238,0.151,0.702,0.258,1.037,0.336c0.289,0.066,0.563,0.129,0.753,0.218c0.685,0.315,1.329,0.722,1.951,1.114
		c0.245,0.154,0.489,0.309,0.736,0.457c0.743,0.447,1.381,0.828,2.125,0.553l0.17-0.063c0.307-0.114,0.625-0.232,0.875-0.389
		c0.1-0.063,0.189-0.143,0.278-0.222c0.151-0.134,0.308-0.271,0.516-0.36l0.197,0.459c-0.135,0.058-0.255,0.164-0.382,0.276
		c-0.11,0.097-0.22,0.192-0.344,0.271c-0.294,0.184-0.651,0.316-0.967,0.434l-0.167,0.062
		C11.297,21.862,11.069,21.901,10.849,21.901z"/>
	<g>
		<circle fill="#FFFFFF" cx="14.423" cy="19.794" r="0.767"/>
	</g>
	<g>
		<circle fill="#FFFFFF" cx="15.423" cy="20.794" r="0.767"/>
	</g>
	<g>
		<circle fill="#FFFFFF" cx="13.423" cy="18.794" r="0.767"/>
	</g>
	<g>
		<circle fill="#FFFFFF" cx="13.423" cy="20.794" r="0.767"/>
	</g>
	<g>
		<circle fill="#FFFFFF" cx="15.423" cy="19.794" r="0.767"/>
	</g>
</g>
</svg>
