<?xml version="1.0" encoding="utf-8"?>
<!-- Generator: Adobe Illustrator 17.0.0, SVG Export Plug-In . SVG Version: 6.00 Build 0)  -->
<!DOCTYPE svg PUBLIC "-//W3C//DTD SVG 1.1//EN" "http://www.w3.org/Graphics/SVG/1.1/DTD/svg11.dtd">
<svg version="1.1" id="Capa_1" xmlns="http://www.w3.org/2000/svg" xmlns:xlink="http://www.w3.org/1999/xlink" x="0px" y="0px"
	 width="33px" height="33px" viewBox="0 0 33 33" enable-background="new 0 0 33 33" xml:space="preserve">
<g>
	<g>
		<g>
			<path fill="#B2FF59" d="M33,27.66c0,2.949-2.391,5.34-5.34,5.34H5.34C2.391,33,0,30.609,0,27.66V5.34C0,2.391,2.391,0,5.34,0
				h22.32C30.609,0,33,2.391,33,5.34V27.66z M32,5.34C32,2.943,30.057,1,27.661,1H5.339C2.943,1,1,2.943,1,5.34v22.32
				C1,30.057,2.943,32,5.339,32h22.321C30.057,32,32,30.057,32,27.66V5.34z"/>
		</g>
	</g>
	<path fill="#B2FF59" d="M21.121,16.607c-2.979,1.455-5.451,4.737-6.112,8.024c-0.929,4.621,3.887,6.715,7.35,4.398
		c1.896-1.207,2.557-6.252,2.567-8.38c0.006-1.253,0.56-3.302,0.138-4.449c-0.749-2.038-2.265-0.604-3.398,0.188"/>
	<path fill="#B2FF59" d="M23.616,4.686c-4.058,1.873-3.004,8.104,1.3,8.136c3.19,0.024,4.288-3.547,3.399-6.174
		C27.63,4.625,25.65,4.606,23.8,4.66"/>
	<path fill="#B2FF59" d="M7.311,6.517C6.124,7.025,4.954,7.596,4.203,8.693c-0.947,1.383-1.11,3.196-1.064,4.824
		c0.09,3.224,1.148,8.39,4.891,9.255c2.477,0.573,5.603-1.379,4.71-4.156c-0.776-2.413-2.907-3.803-2.203-6.59
		c0.268-1.064,1.029-2.311,0.686-3.435C10.846,7.36,9.26,6.858,8.199,6.427"/>
</g>
</svg>
