<?xml version="1.0" encoding="utf-8"?>
<!-- Generator: Adobe Illustrator 17.0.0, SVG Export Plug-In . SVG Version: 6.00 Build 0)  -->
<!DOCTYPE svg PUBLIC "-//W3C//DTD SVG 1.1//EN" "http://www.w3.org/Graphics/SVG/1.1/DTD/svg11.dtd">
<svg version="1.1" id="Capa_1" xmlns="http://www.w3.org/2000/svg" xmlns:xlink="http://www.w3.org/1999/xlink" x="0px" y="0px"
	 width="33.25px" height="33px" viewBox="0 0 33.25 33" enable-background="new 0 0 33.25 33" xml:space="preserve">
<g>
	<g>
		<defs>
			<path id="SVGID_111_" d="M32.25,28.16c0,2.673-2.167,4.84-4.84,4.84H5.09c-2.673,0-4.84-2.167-4.84-4.84V5.84
				C0.25,3.167,2.417,1,5.09,1H27.41c2.673,0,4.84,2.167,4.84,4.84V28.16z"/>
		</defs>
		<clipPath id="SVGID_2_">
			<use xlink:href="#SVGID_111_"  overflow="visible"/>
		</clipPath>
		<g clip-path="url(#SVGID_2_)">
			<path fill="#92CC78" d="M17.81,7.592c-0.305-0.509-0.595-0.909-0.785-1.351c-0.09-0.208-0.061-0.544,0.057-0.733
				c0.06-0.097,0.459-0.055,0.665,0.026c0.662,0.259,1.287,0.624,1.963,0.83c0.389,0.119,0.887,0.121,1.267-0.015
				c1.016-0.366,1.841-0.334,2.685,0.487c0.712,0.693,1.632,1.171,2.453,1.753c0.977,0.693,1.084,1.813,0.204,2.627
				c-0.218,0.201-0.617,0.317-0.92,0.295c-1.279-0.094-1.775,0.15-2.37,1.285c-0.068,0.129-0.139,0.291-0.254,0.355
				c-1.135,0.635-1.164,1.817-1.492,2.871c-0.146,0.47-0.493,0.885-0.783,1.301c-0.263,0.377-0.596,0.705-0.859,1.081
				c-0.46,0.658-0.874,1.347-1.337,2.003c-0.51,0.723-1.348,0.499-2.041,0.59c-1.298,0.172-1.53,0.437-1.745,1.768
				c-0.179,1.105-0.353,2.176,0.023,3.261c0.166,0.479,0.314,0.968,0.528,1.426c0.204,0.437,0.483,0.839,0.775,1.333
				c-0.331,0.125-0.568,0.214-0.861,0.324c0.119,0.338,0.239,0.677,0.358,1.016c0.129,0.369-0.016,0.537-0.391,0.608
				c-1.404,0.269-2.515-0.572-2.374-2.034c0.223-2.327-0.524-4.398-1.351-6.479c-0.116-0.292-0.192-0.6-0.317-0.999
				c-0.683,0.107-1.409,0.211-2.131,0.337c-2.454,0.429-4.897,0.579-7.276-0.368c-0.545-0.217-0.992-0.123-1.459,0.166
				c-0.894,0.553-1.783,1.119-2.706,1.622c-0.438,0.239-0.697,0.536-0.708,1.02c-0.029,1.223-0.133,2.46,0.848,3.449
				c0.293,0.296,0.595,0.616,0.281,1.157c-0.127,0.218,0.095,0.64,0.157,0.961c-1.186,0.59-1.744,0.438-2.245-0.647
				c-0.756-1.638-1.295-3.342-1.487-5.146c-0.031-0.291-0.077-0.588-0.167-0.865c-0.155-0.477-0.16-0.884,0.223-1.286
				c0.37-0.388,0.397-0.855,0.148-1.36c-0.938-1.903-0.894-3.969-0.714-5.979c0.085-0.949,0.416-2.012,1.297-2.727
				c0.429-0.348,0.694-0.896,1.119-1.251c0.906-0.756,2.049-0.975,3.169-0.995c2.609-0.045,5.221,0.007,7.831,0.059
				c1.069,0.021,2.136,0.206,3.203,0.195c0.745-0.008,1.484-0.266,2.232-0.331c0.765-0.067,1.541-0.007,2.309-0.057
				c0.434-0.028,0.919-0.065,1.277-0.276C16.711,8.543,17.233,8.046,17.81,7.592z"/>
		</g>
	</g>
	<g>
		<path fill="#92CC78" d="M27.911,33H5.589c-2.944,0-5.339-2.396-5.339-5.34V5.34C0.25,2.396,2.645,0,5.589,0h22.321
			c2.944,0,5.339,2.396,5.339,5.34v22.32C33.25,30.604,30.855,33,27.911,33z M5.589,1C3.197,1,1.25,2.947,1.25,5.34v22.32
			c0,2.393,1.947,4.34,4.339,4.34h22.321c2.393,0,4.339-1.947,4.339-4.34V5.34c0-2.393-1.947-4.34-4.339-4.34H5.589z"/>
	</g>
</g>
</svg>
