<?xml version="1.0" encoding="utf-8"?>
<!-- Generator: Adobe Illustrator 17.0.0, SVG Export Plug-In . SVG Version: 6.00 Build 0)  -->
<!DOCTYPE svg PUBLIC "-//W3C//DTD SVG 1.1//EN" "http://www.w3.org/Graphics/SVG/1.1/DTD/svg11.dtd">
<svg version="1.1" id="Capa_1" xmlns="http://www.w3.org/2000/svg" xmlns:xlink="http://www.w3.org/1999/xlink" x="0px" y="0px"
	 width="33px" height="33px" viewBox="0 0 33 33" enable-background="new 0 0 33 33" xml:space="preserve">
<g>
	<path fill="#6E985B" d="M27.661,33H5.339C2.395,33,0,30.604,0,27.66V5.34C0,2.396,2.395,0,5.339,0h22.321
		C30.605,0,33,2.396,33,5.34v22.32C33,30.604,30.605,33,27.661,33z M5.339,1C2.947,1,1,2.947,1,5.34v22.32
		C1,30.053,2.947,32,5.339,32h22.321C30.053,32,32,30.053,32,27.66V5.34C32,2.947,30.053,1,27.661,1H5.339z"/>
</g>
<g>
	<g>
		<path fill="#6E985B" d="M8.288,30.489c-1.422,0-2.75-0.897-3.229-2.32c-0.601-1.784,0.358-3.716,2.142-4.316
			c13.78-4.642,15.414-18.559,15.429-18.698c0.199-1.871,1.877-3.236,3.749-3.027c1.871,0.198,3.227,1.877,3.028,3.748
			c-0.08,0.749-2.157,18.416-20.03,24.435C9.015,30.432,8.648,30.489,8.288,30.489z"/>
	</g>
	<g>
		<path fill="#FFFFFF" d="M24.9,5.853c0,0,0.079,0.33,0.071,0.786c-0.017,0.462-0.04,1.041-0.171,1.599
			c-0.087,0.291-0.171,0.583-0.284,0.845c-0.092,0.265-0.254,0.5-0.399,0.689c-0.281,0.384-0.54,0.579-0.54,0.579
			s-0.041-0.351,0.004-0.785c0.01-0.11,0.021-0.226,0.045-0.344c0.028-0.115,0.018-0.257,0.045-0.387
			c0.027-0.27,0.093-0.546,0.156-0.823c0.143-0.583,0.341-1.16,0.596-1.536C24.659,6.088,24.9,5.853,24.9,5.853z"/>
	</g>
	<g>
		<path fill="#FFFFFF" d="M12.934,23.26c0,0,0.085-0.073,0.24-0.186c0.15-0.115,0.394-0.252,0.631-0.442
			c0.123-0.091,0.253-0.188,0.394-0.276c0.138-0.103,0.279-0.225,0.434-0.327c0.309-0.209,0.61-0.47,0.927-0.703
			c0.3-0.253,0.62-0.489,0.888-0.741c0.131-0.129,0.289-0.23,0.407-0.351c0.116-0.123,0.237-0.232,0.352-0.335
			c0.242-0.198,0.385-0.404,0.531-0.531c0.135-0.132,0.224-0.209,0.224-0.209s-0.01,0.108-0.046,0.298
			c-0.047,0.181-0.075,0.481-0.236,0.768c-0.137,0.303-0.322,0.653-0.592,0.966c-0.133,0.158-0.253,0.343-0.422,0.478
			c-0.16,0.146-0.323,0.294-0.486,0.442c-0.365,0.244-0.712,0.518-1.097,0.673c-0.363,0.184-0.737,0.31-1.067,0.38
			c-0.321,0.096-0.587,0.086-0.779,0.098C13.046,23.266,12.934,23.26,12.934,23.26z"/>
	</g>
	
		<path fill="none" stroke="#FFFFFF" stroke-width="0.25" stroke-linecap="round" stroke-linejoin="round" stroke-miterlimit="10" d="
		M27.224,3.472c0,0-0.265,17.068-20.64,24.742"/>
	
		<path fill="none" stroke="#FFFFFF" stroke-width="0.25" stroke-linecap="round" stroke-linejoin="round" stroke-miterlimit="10" d="
		M28.811,5.192c0,0-2.382,15.215-15.215,21.302"/>
	
		<path fill="none" stroke="#FFFFFF" stroke-width="0.25" stroke-linecap="round" stroke-linejoin="round" stroke-miterlimit="10" d="
		M24.445,3.736c0,0-2.514,15.348-13.628,19.449"/>
	<ellipse fill="none" stroke="#FFFFFF" stroke-width="0.5" stroke-miterlimit="10" cx="5.723" cy="28.221" rx="0.86" ry="0.992"/>
</g>
</svg>
