<?xml version="1.0" encoding="utf-8"?>
<!-- Generator: Adobe Illustrator 17.0.0, SVG Export Plug-In . SVG Version: 6.00 Build 0)  -->
<!DOCTYPE svg PUBLIC "-//W3C//DTD SVG 1.1//EN" "http://www.w3.org/Graphics/SVG/1.1/DTD/svg11.dtd">
<svg version="1.1" id="Capa_1" xmlns="http://www.w3.org/2000/svg" xmlns:xlink="http://www.w3.org/1999/xlink" x="0px" y="0px"
	 width="33px" height="33px" viewBox="0 0 33 33" enable-background="new 0 0 33 33" xml:space="preserve">
<g>
	<g>
		<path fill="#00BFA5" d="M27.66,33H5.34C2.396,33,0,30.604,0,27.66V5.34C0,2.396,2.396,0,5.34,0h22.32C30.604,0,33,2.396,33,5.34
			v22.32C33,30.604,30.604,33,27.66,33z M5.34,1C2.947,1,1,2.947,1,5.34v22.32C1,30.053,2.947,32,5.34,32h22.32
			c2.393,0,4.34-1.947,4.34-4.34V5.34C32,2.947,30.053,1,27.66,1H5.34z"/>
	</g>
	<g>
		<circle fill="#00BFA5" cx="17.25" cy="21.3" r="9.2"/>
		<circle fill="#FFFFFF" cx="23.72" cy="21.3" r="0.581"/>
		<circle fill="#FFFFFF" cx="24.835" cy="22.415" r="0.581"/>
		<circle fill="#FFFFFF" cx="23.72" cy="17.954" r="0.581"/>
		<circle fill="#FFFFFF" cx="24.835" cy="20.185" r="0.581"/>
		<path fill="#00BFA5" d="M16.927,14.992c0,0-0.13-0.854,0.021-2.126c0.02-0.321,0.079-0.662,0.154-1.02
			c0.074-0.358,0.133-0.744,0.241-1.129c0.253-0.757,0.465-1.595,0.853-2.361c0.192-0.383,0.384-0.766,0.573-1.143
			c0.165-0.39,0.439-0.712,0.663-1.046c0.227-0.332,0.463-0.641,0.683-0.934c0.204-0.305,0.445-0.557,0.689-0.771
			c0.93-0.893,1.603-1.396,1.603-1.396s-0.407,0.771-1.097,1.789c-0.181,0.249-0.355,0.532-0.51,0.852
			c-0.165,0.312-0.335,0.642-0.529,0.97c-0.406,0.646-0.707,1.407-1.059,2.138c-0.197,0.357-0.349,0.734-0.485,1.111
			c-0.14,0.375-0.305,0.736-0.451,1.091c-0.243,0.724-0.517,1.394-0.704,1.984c-0.192,0.591-0.365,1.083-0.467,1.435
			C16.991,14.789,16.927,14.992,16.927,14.992z"/>
		<path fill="#00BFA5" d="M18.66,9.614c0.053-1.008,0.246-1.723-0.677-2.421c-0.665-0.503-1.935-0.621-2.757-0.671
			c-2.04-0.124-4.189-0.561-5.646-2.118C9.19,5.401,9.427,5.881,10.032,6.676c0.698,0.916,1.123,1.914,1.604,2.952
			c0.615,1.326,1.596,1.75,3.02,1.929c1.393,0.175,2.311-0.348,3.474-1.059"/>
		<path fill="#FFFFFF" d="M11.174,6.47c0,0,0.09,0.09,0.248,0.247c0.144,0.169,0.379,0.388,0.645,0.639
			c0.256,0.261,0.602,0.529,0.968,0.796c0.368,0.268,0.776,0.531,1.213,0.735c0.426,0.225,0.883,0.391,1.318,0.522
			c0.23,0.053,0.414,0.138,0.633,0.179c0.211,0.049,0.411,0.094,0.595,0.137c0.369,0.093,0.667,0.12,0.887,0.163
			c0.219,0.043,0.344,0.068,0.344,0.068S17.9,9.97,17.679,9.996c-0.217,0.003-0.555,0.082-0.929,0.039
			c-0.189-0.014-0.393-0.029-0.609-0.045c-0.212-0.006-0.464-0.062-0.696-0.105C14.967,9.792,14.468,9.619,14,9.386
			c-0.468-0.233-0.907-0.526-1.27-0.851c-0.371-0.316-0.665-0.664-0.898-0.974c-0.245-0.304-0.39-0.586-0.496-0.78
			C11.233,6.583,11.174,6.47,11.174,6.47z"/>
	</g>
</g>
</svg>
