<?xml version="1.0" encoding="utf-8"?>
<!-- Generator: Adobe Illustrator 17.0.0, SVG Export Plug-In . SVG Version: 6.00 Build 0)  -->
<!DOCTYPE svg PUBLIC "-//W3C//DTD SVG 1.1//EN" "http://www.w3.org/Graphics/SVG/1.1/DTD/svg11.dtd">
<svg version="1.1" id="Capa_1" xmlns="http://www.w3.org/2000/svg" xmlns:xlink="http://www.w3.org/1999/xlink" x="0px" y="0px"
	 width="34.13px" height="32.751px" viewBox="0 0 34.13 32.751" enable-background="new 0 0 34.13 32.751" xml:space="preserve">
<g>
	<g>
		<defs>
			<path id="SVGID_97_" d="M32.701,28.16c0,2.673-2.167,4.84-4.84,4.84H5.54c-2.673,0-4.84-2.167-4.84-4.84V5.84
				C0.701,3.167,2.868,1,5.54,1h22.321c2.673,0,4.84,2.167,4.84,4.84V28.16z"/>
		</defs>
		<clipPath id="SVGID_2_">
			<use xlink:href="#SVGID_97_"  overflow="visible"/>
		</clipPath>
		<path clip-path="url(#SVGID_2_)" fill="#00BFA5" d="M6.023,2.218c2.408-2.085,2.408-0.127,3.474,1.093
			c0.511,0.584-0.366,2.394-0.001,3.044c0.787,1.401,2.492,1.452,3.244,2.791c0.96,1.708,0.644,3.599,1.628,5.466
			c0.54,1.026,1.53,1.767,2.03,2.768c0.332,0.665,0.35,2.433,0.895,2.843c1.804,1.356,3.498-1.157,5.224-1.412
			c2.479-0.365,3.511,1.182,4.823,3.072c0.432,0.623,1.085,0.74,1.411,1.357c0.398,0.753-0.015,1.85,0.641,2.703
			c0.912,1.185,2.436,0.712,3.514,1.517c1.217,0.909,1.447,2.601,2.773,3.41c-3.221,1.275-7.352,1.652-10.734,2.555
			c-2.713,0.725-7.105,1.018-9.837,0.304C9.719,32.322,4.5,36.99,1.718,32.019C-0.703,27.69-1.956,15.09-1.193,9.732
			C-0.926,7.863-1.14,9.483,0.32,8.105c1.062-1.003,4.736-6.05,6.103-6.047"/>
	</g>
	<g>
		<path fill="#00BFA5" d="M28.361,33H6.04c-2.944,0-5.339-2.396-5.339-5.34V5.34C0.701,2.396,3.096,0,6.04,0h22.321
			c2.944,0,5.34,2.396,5.34,5.34v22.32C33.701,30.604,31.305,33,28.361,33z M6.04,1C3.648,1,1.701,2.947,1.701,5.34v22.32
			c0,2.393,1.947,4.34,4.339,4.34h22.321c2.393,0,4.34-1.947,4.34-4.34V5.34c0-2.393-1.947-4.34-4.34-4.34H6.04z"/>
	</g>
	<path fill="#00BFA5" d="M18.981,14.853c0.396,0.509,0.796,2.284,1.392,2.619c0.449,0.253,1.763-0.143,2.261-0.242
		c0.553-0.11,1.345-0.209,1.813-0.573c0.7-0.545,0.294-0.048,0.501-0.977c0.228-1.019,1.529-3.544,1.346-4.4
		c-0.255-1.193-2.461-2.552-3.18-3.473c-1.763,1.076-0.974,1.228-1.798,1.692c-0.377,0.212-1.658,0.722-1.877,1.078
		c-0.528,0.856,1.258,3.525-0.242,3.964"/>
	<path fill="#FFFFFF" d="M6.534,24.65c0.563-0.572,1.153-1.119,1.738-1.67c0.61-0.533,1.237-1.055,1.864-1.578l0.167-0.139
		l0.226,0.132l1.311,0.764l0.662,0.406l0.33,0.204c0.139,0.085,0.21,0.154,0.319,0.232c0.198,0.157,0.401,0.326,0.567,0.432
		c0.188,0.099,0.365,0.195,0.542,0.194c0.128,0.02,0.397-0.087,0.793-0.067c0.099,0.005,0.193,0.023,0.283,0.056
		c0.057,0.021,0.066,0.015,0.16,0.06l0.083,0.047c0.113,0.068,0.219,0.113,0.338,0.201c0.119,0.096,0.244,0.194,0.349,0.296
		l0.26,0.32l0.196,0.342l0.141,0.35c0.156,0.468,0.239,0.928,0.334,1.373c0.049,0.222,0.099,0.443,0.18,0.65
		c0.072,0.211,0.161,0.418,0.297,0.599c0.125,0.188,0.299,0.354,0.505,0.484c0.202,0.141,0.442,0.231,0.687,0.328
		c-0.256-0.055-0.53-0.093-0.767-0.219c-0.242-0.109-0.468-0.267-0.642-0.456c-0.185-0.183-0.329-0.399-0.439-0.618
		c-0.117-0.219-0.198-0.447-0.278-0.671c-0.16-0.448-0.269-0.896-0.451-1.302c-0.091-0.202-0.199-0.389-0.32-0.564l-0.212-0.235
		l-0.227-0.18c-0.082-0.061-0.22-0.117-0.327-0.176l-0.086-0.044c0.036,0.019-0.02-0.001-0.025-0.001
		c-0.033-0.014-0.067-0.02-0.103-0.019c-0.137-0.024-0.378,0.081-0.783,0.079c-0.359-0.009-0.663-0.162-0.918-0.299
		c-0.266-0.164-0.433-0.326-0.626-0.48c-0.094-0.07-0.206-0.17-0.286-0.216l-0.315-0.201l-0.628-0.403l-1.289-0.831l0.393-0.007
		c-0.657,0.473-1.316,0.947-1.99,1.41C7.882,23.711,7.222,24.193,6.534,24.65z"/>
	<path fill="#FFFFFF" d="M22.397,12.145c0.119-0.025,0.238-0.047,0.357-0.066l0.336-0.095l0.102-0.029l0.022,0.137
		c0.015,0.09,0.036,0.177,0.077,0.267l0.132,0.28c0.046,0.097,0.092,0.208,0.12,0.336c0.01,0.072,0.016,0.117,0.009,0.225
		c-0.011,0.055-0.012,0.097-0.031,0.164c-0.056,0.166-0.158,0.286-0.252,0.359c-0.091,0.076-0.17,0.129-0.204,0.181
		c-0.026,0.023-0.032,0.055-0.047,0.082l-0.006,0.01l-0.073,0.003l-0.072,0.001v0.001c0-0.015,0.062,0.034,0.08-0.033l0.034,0.01
		l0.012,0.039l-0.004,0.078c-0.016,0.062,0.016,0.061,0.011,0.095c-0.005,0.018,0.021,0.078,0.029,0.117
		c0.023,0.09,0.065,0.184,0.098,0.298c0.017,0.053,0.032,0.113,0.04,0.18c0.013,0.062,0.019,0.129,0.008,0.205
		c-0.001,0.073-0.017,0.143-0.054,0.21l-0.048,0.1l-0.006,0.012l-0.002,0.003l-0.016,0.021l-0.003,0.004l-0.014,0.014l-0.028,0.029
		l-0.11,0.114c-0.04,0.039-0.111,0.079-0.166,0.114c-0.058,0.041-0.118,0.067-0.182,0.076c-0.064,0.01-0.123,0.039-0.188,0.029
		c-0.064-0.004-0.127-0.007-0.187-0.015c-0.059-0.02-0.117-0.043-0.172-0.066c-0.101-0.063-0.204-0.129-0.261-0.231
		c-0.077-0.086-0.096-0.204-0.129-0.302c0.07,0.085,0.12,0.175,0.208,0.229c0.072,0.067,0.168,0.099,0.252,0.126
		c0.046,0.005,0.091,0.01,0.133,0.019l0.129-0.017c0.043,0.001,0.079-0.033,0.118-0.045c0.041-0.013,0.075-0.033,0.099-0.061
		c0.028-0.028,0.057-0.035,0.088-0.073l0.093-0.129l0.023-0.032l0.012-0.064L22.768,15h0.057c0.003,0-0.124,0.13-0.124,0.113v-0.002
		l0.028-0.006l0.027-0.046c0.016-0.027,0.027-0.06,0.021-0.094c0.004-0.03,0.002-0.068-0.012-0.109
		c-0.007-0.038-0.018-0.08-0.038-0.126c-0.028-0.089-0.073-0.188-0.107-0.302c-0.016-0.064-0.039-0.102-0.046-0.191
		c-0.007-0.071-0.02-0.178-0.007-0.22l0.014-0.078l0.007-0.039l0.052-0.01l0.06-0.035v-0.002l-0.013-0.003l0.013-0.006v-0.025
		c0-0.067,0.023-0.136,0.074-0.188c0.095-0.117,0.18-0.177,0.25-0.235c0.076-0.054,0.097-0.105,0.123-0.134
		c0.016-0.032,0.022-0.097,0.035-0.144c-0.004,0.003,0.002-0.06-0.003-0.091c-0.007-0.082-0.028-0.172-0.06-0.271
		c-0.059-0.193-0.142-0.422-0.116-0.67l0.124,0.108c-0.127,0.003-0.251,0.008-0.373,0.006
		C22.636,12.184,22.516,12.166,22.397,12.145z"/>
	<path fill="#00BFA5" d="M28.44,18.712c0,0.809-0.124,4.506,1.773,2.844c1.291-1.131-0.051-3.318-1.637-3.118"/>
	<path fill="#00BFA5" d="M16.566,14.216c-0.219,0.279-0.199,0.531-0.199,0.784c0.001,0.226,0.2,0.453,0.214,0.7
		c1.207,0.053,1.33-0.023,1.266-1.269C17.481,14.165,17.047,14.203,16.566,14.216"/>
</g>
</svg>
