<?xml version="1.0" encoding="utf-8"?>
<!-- Generator: Adobe Illustrator 17.0.0, SVG Export Plug-In . SVG Version: 6.00 Build 0)  -->
<!DOCTYPE svg PUBLIC "-//W3C//DTD SVG 1.1//EN" "http://www.w3.org/Graphics/SVG/1.1/DTD/svg11.dtd">
<svg version="1.1" id="Capa_1" xmlns="http://www.w3.org/2000/svg" xmlns:xlink="http://www.w3.org/1999/xlink" x="0px" y="0px"
	 width="33px" height="33px" viewBox="0 0 33 33" enable-background="new 0 0 33 33" xml:space="preserve">
<g>
	<g>
		<path fill="#6E985B" d="M19.178,18.782c0,0-0.175,0.88-0.37,2.201c-0.181,1.323-0.369,3.086-0.409,4.822
			c-0.031,0.87,0.119,1.729,0.143,2.515c0.018,0.392,0.028,0.767,0.003,1.132c0.013,0.354,0,0.696-0.018,1.019
			c0.006,0.314,0.006,0.607-0.002,0.877c-0.024,0.275,0.007,0.499,0.002,0.701c0.004,0.398-0.02,0.657-0.02,0.657l-0.181,0.086
			c0,0-0.187-0.157-0.469-0.486c-0.138-0.165-0.322-0.37-0.455-0.63c-0.139-0.259-0.31-0.557-0.446-0.897
			c-0.118-0.34-0.244-0.715-0.342-1.12c-0.074-0.402-0.133-0.833-0.154-1.278c0.012-0.442,0.037-0.901,0.115-1.357
			c0.084-0.454,0.14-0.918,0.231-1.37c0.154-0.911,0.348-1.807,0.588-2.63c0.224-0.826,0.489-1.578,0.723-2.216
			c0.467-1.277,0.871-2.09,0.871-2.09L19.178,18.782z"/>
	</g>
	<g>
		<path fill="#92CC78" d="M14.083,13.667c-1.429-0.28-2.878-0.277-4.304-0.53c-0.872-0.155-2.359-0.774-2.705,0.448
			c-0.457,1.618,1.414,3.232,2.613,3.907c1.58,0.89,3.032,1.571,4.442,2.743c1.309,1.087,2.341,1.396,3.954,0.766"/>
	</g>
	<g>
		<path fill="#92CC78" d="M21.077,16.474c0.082-0.635,1.384-1.568,1.95-1.837c0.47-0.224,1.073-0.302,1.581-0.426
			c0.744-0.182,1.445-0.3,1.911-0.902c0.386-0.5,0.669-1.246,1.291-1.533c0.37,0.784,0.37,1.666,0.493,2.512
			c0.242,1.67-0.311,2.638-1.604,3.684c-1.245,1.007-2.534,1.991-3.899,2.831c-1.295,0.798-2.261,1.204-3.453,0.06"/>
	</g>
	<g>
		<path fill="#92CC78" d="M13.471,9.826c0.373-1.529,0.808-1.983,2.332-2.162c1.433-0.168,2.571-1.304,3.931-1.432
			c1.466-0.139,2.19,1.649,2.267,2.866c0.084,1.318-0.641,2.672-1.364,3.731c-1.617,2.369-4.061,1.58-6.379,0.74"/>
	</g>
	<g>
		<path fill="#92CC78" d="M19.083,13.371c0.405-0.494,1.086-0.611,1.467-1.183c0.448-0.673,0.527-1.506,0.842-2.246
			c0.554-1.301,1.494-1.588,2.791-1.584c0.463,1.248,1.905,1.871,2.127,3.184c0.155,0.916-0.414,2.411-0.849,3.249
			c-1.111,2.141-3.601,3.858-5.788,4.686"/>
		<path fill="#FFFFFF" d="M19.763,19.709l-0.178-0.467c1.886-0.714,4.498-2.339,5.655-4.568c0.489-0.942,0.956-2.312,0.824-3.091
			c-0.108-0.64-0.555-1.112-1.026-1.612c-0.385-0.406-0.781-0.826-1.021-1.363c-1.115,0.021-1.908,0.291-2.394,1.432
			c-0.117,0.273-0.199,0.559-0.286,0.861c-0.14,0.482-0.283,0.981-0.578,1.426c-0.236,0.355-0.571,0.557-0.867,0.735
			c-0.234,0.141-0.456,0.273-0.615,0.468l-0.387-0.316c0.214-0.262,0.483-0.424,0.744-0.58c0.274-0.166,0.534-0.322,0.709-0.584
			c0.252-0.38,0.379-0.82,0.514-1.287c0.087-0.304,0.178-0.67,0.306-0.971C21.811,8.269,22.985,8,24.162,8c0.008,0,0.015,0,0.022,0
			h0.173l0.061,0.216c0.193,0.522,0.577,0.954,0.983,1.385c0.503,0.532,1.022,1.095,1.155,1.884c0.174,1.025-0.467,2.63-0.873,3.412
			C24.462,17.252,21.73,18.965,19.763,19.709z"/>
	</g>
	<g>
		<path fill="#92CC78" d="M27.66,33H5.34C2.396,33,0,30.604,0,27.66V5.34C0,2.396,2.396,0,5.34,0h22.32C30.604,0,33,2.396,33,5.34
			v22.32C33,30.604,30.604,33,27.66,33z M5.34,1C2.947,1,1,2.947,1,5.34v22.32C1,30.053,2.947,32,5.34,32h22.32
			c2.393,0,4.34-1.947,4.34-4.34V5.34C32,2.947,30.053,1,27.66,1H5.34z"/>
	</g>
	<g>
		<path fill="#92CC78" d="M17.213,20.066c-2.561-0.088-5.517-0.848-6.623-3.458c-0.686-1.618-0.102-3.561-0.405-5.281
			c-0.201-1.141-0.203-3.19,1.557-2.844c1.059,0.208,1.93,1.578,2.853,2.134c1.779,1.071,2.518,2.577,3.405,4.427"/>
		<path fill="#FFFFFF" d="M17.204,20.316c-2.461-0.086-5.646-0.781-6.845-3.61c-0.426-1.004-0.388-2.115-0.351-3.19
			c0.024-0.72,0.05-1.464-0.07-2.146C9.855,10.899,9.646,9.306,10.4,8.565c0.339-0.331,0.805-0.443,1.389-0.327
			c0.717,0.141,1.32,0.726,1.904,1.291c0.356,0.346,0.693,0.672,1.03,0.875c1.868,1.124,2.625,2.704,3.502,4.532l-0.451,0.217
			c-0.842-1.757-1.569-3.273-3.309-4.321c-0.387-0.232-0.76-0.594-1.12-0.943c-0.531-0.516-1.081-1.048-1.652-1.16
			c-0.416-0.079-0.726-0.02-0.942,0.194c-0.462,0.452-0.469,1.517-0.32,2.361c0.129,0.732,0.103,1.503,0.077,2.248
			c-0.036,1.067-0.07,2.076,0.313,2.979c1.095,2.587,4.086,3.226,6.401,3.306L17.204,20.316z"/>
	</g>
	<g>
		<path fill="#92CC78" d="M21.093,11.849c-1.844,0.015-3.939-0.379-5.69,0.406c-0.799,0.358-1.694,1.031-1.702,2.083
			c-0.009,1.162,0.967,2.206,1.543,3.08c0.725,1.1,1.203,2.271,1.732,3.487c0.396,0.91,0.913,1.652,1.922,1.469
			c2.532-0.459,3.46-3.673,3.945-5.999c0.244-1.168,0.862-2.769,0.662-3.979c-0.188-1.137-1.427-0.766-2.173-0.613L21.093,11.849z"
			/>
		<path fill="#FFFFFF" d="M18.602,22.651c-1.009,0-1.521-0.88-1.854-1.647l-0.16-0.37c-0.47-1.085-0.913-2.109-1.552-3.079
			c-0.116-0.177-0.25-0.361-0.388-0.552c-0.564-0.779-1.205-1.663-1.197-2.667c0.011-1.293,1.164-2.002,1.85-2.311
			c0.793-0.354,1.697-0.513,2.934-0.513c0.474,0,0.95,0.223,1.42,0.246C20.104,11.779,20.551,12,20.983,12h0.075l0.407-0.3
			c0.303-0.065,0.681-0.248,1.032-0.248c0.9,0,1.179,0.495,1.255,0.953c0.155,0.942-0.148,2.052-0.416,3.053
			c-0.095,0.352-0.185,0.675-0.248,0.981c-0.507,2.429-1.488,5.707-4.146,6.188C18.823,22.648,18.71,22.651,18.602,22.651z
			 M18.233,12.013c-1.162,0-2.004,0.145-2.729,0.47c-0.577,0.259-1.546,0.844-1.555,1.857c-0.007,0.84,0.582,1.652,1.102,2.37
			c0.143,0.196,0.28,0.387,0.401,0.569c0.663,1.007,1.114,2.051,1.593,3.156l0.16,0.369c0.475,1.09,0.93,1.451,1.647,1.323
			c2.36-0.428,3.269-3.518,3.745-5.804c0.066-0.314,0.158-0.66,0.255-1.021c0.255-0.952,0.544-2.031,0.405-2.867
			c-0.068-0.416-0.288-0.585-0.761-0.585c-0.298,0-0.632,0.072-0.926,0.136l-0.589,0.111c-0.44,0-0.895-0.021-1.354-0.042
			C19.168,12.035,18.699,12.013,18.233,12.013z"/>
	</g>
	<g>
		<g>
			<path fill="#92CC78" d="M16.583,11.917c-1.331-0.316-0.984-1.499,0.149-1.782c0.804-0.2,1.63-0.197,2.448-0.211
				c0.8-0.014,1.805,0.258,1.386,1.406c-0.237,0.65-1.371,0.632-1.951,0.395c-1.212-0.494-0.209-1.111,0.634-0.975"/>
		</g>
		<g>
			<path fill="#FFFFFF" d="M16.583,11.917c0,0-0.046-0.012-0.132-0.034c-0.083-0.032-0.219-0.032-0.365-0.12
				c-0.074-0.05-0.156-0.106-0.245-0.167c-0.061-0.086-0.135-0.188-0.186-0.306c-0.06-0.252-0.01-0.59,0.219-0.817
				c0.207-0.251,0.494-0.408,0.859-0.522c0.318-0.058,0.654-0.119,1.001-0.182c0.347-0.059,0.729-0.055,1.106-0.077
				c0.372-0.018,0.778-0.032,1.201,0.096c0.202,0.063,0.418,0.161,0.584,0.347c0.171,0.166,0.273,0.434,0.266,0.658
				c0.016,0.121,0.002,0.23-0.03,0.329c-0.036,0.119-0.031,0.168-0.104,0.341c-0.057,0.079-0.078,0.148-0.164,0.234
				c-0.093,0.081-0.205,0.187-0.3,0.219c-0.39,0.183-0.773,0.174-1.114,0.126c-0.34-0.049-0.668-0.168-0.914-0.335
				c-0.133-0.086-0.262-0.198-0.314-0.376c-0.05-0.192,0.075-0.353,0.177-0.423c0.217-0.151,0.427-0.182,0.596-0.2
				c0.169-0.017,0.302,0.002,0.39,0.015c0.087,0.018,0.134,0.028,0.134,0.028s-0.194-0.025-0.507,0.053
				c-0.152,0.037-0.347,0.107-0.49,0.245c-0.157,0.147-0.071,0.29,0.159,0.416c0.236,0.129,0.505,0.196,0.807,0.214
				c0.297,0.02,0.627-0.024,0.874-0.154c0.072-0.028,0.079-0.068,0.132-0.089c0.046-0.034,0.09-0.144,0.135-0.213
				c-0.018-0.069,0.094-0.293,0.051-0.405c0-0.277-0.205-0.458-0.519-0.553c-0.298-0.099-0.66-0.105-1.025-0.091
				c-0.362,0.019-0.714-0.017-1.065,0.029c-0.351,0.037-0.691,0.073-1.013,0.107c-0.112,0.031-0.27,0.078-0.39,0.127
				c-0.104,0.08-0.248,0.122-0.316,0.225c-0.197,0.167-0.249,0.391-0.246,0.584c0.027,0.091,0.072,0.178,0.109,0.259
				c0.067,0.062,0.129,0.119,0.184,0.171c0.122,0.1,0.258,0.136,0.332,0.182C16.541,11.896,16.583,11.917,16.583,11.917z"/>
		</g>
	</g>
	<path fill="#6E985B" d="M17.417,25.5c-0.455,0.248-1.218-0.06-1.737,0.179c0.293,0.788,2.016,0.716,1.505,1.981
		c-0.287,0.71-1.368,0.785-1.877,1.262c0.734,0.044,1.314,0.314,1.832,0.777c0.999,0.891,0.22-0.339,0.672-0.962
		c0.422-0.581,1.489-0.211,1.951-0.62c0.716-0.634-1.09-0.843-1.513-1.118"/>
</g>
</svg>
