<?xml version="1.0" encoding="utf-8"?>
<!-- Generator: Adobe Illustrator 17.0.0, SVG Export Plug-In . SVG Version: 6.00 Build 0)  -->
<!DOCTYPE svg PUBLIC "-//W3C//DTD SVG 1.1//EN" "http://www.w3.org/Graphics/SVG/1.1/DTD/svg11.dtd">
<svg version="1.1" id="Capa_1" xmlns="http://www.w3.org/2000/svg" xmlns:xlink="http://www.w3.org/1999/xlink" x="0px" y="0px"
	 width="33px" height="33px" viewBox="0 0 33 33" enable-background="new 0 0 33 33" xml:space="preserve">
<g>
	<g>
		<g>
			<path fill="#92CC78" d="M33,27.66c0,2.949-2.391,5.34-5.34,5.34H5.34C2.391,33,0,30.609,0,27.66V5.34C0,2.391,2.391,0,5.34,0
				h22.32C30.609,0,33,2.391,33,5.34V27.66z M32,5.34C32,2.943,30.057,1,27.661,1H5.339C2.943,1,1,2.943,1,5.34v22.32
				C1,30.057,2.943,32,5.339,32h22.321C30.057,32,32,30.057,32,27.66V5.34z"/>
		</g>
	</g>
	<g>
		<path fill="#92CC78" d="M13.832,25.289c-0.614,1.725-1.564,2.576-2.957,2.579c-1.716,0.003-2.704-0.963-3.162-2.594
			c-0.486,0-0.958,0-1.371,0c0-0.564,0.012-1.077-0.003-1.59c-0.022-0.724-0.406-1.103-1.142-1.134
			c-0.389-0.016-0.78-0.003-1.309-0.003c0.077-0.753,0.18-1.469,0.212-2.188c0.017-0.383-0.044-0.784-0.153-1.152
			c-0.097-0.326-0.279-0.64-0.48-0.918c-0.348-0.48-0.272-0.901,0.088-1.34c0.384,0.436,0.763,0.867,1.187,1.349
			c0.274-0.468,0.496-0.857,0.728-1.24c1.348-2.229,3.491-3.221,5.907-3.775c2.687-0.616,5.412-0.693,8.149-0.512
			c0.238,0.016,0.517,0.201,0.684,0.39c1.263,1.431,2.493,2.891,3.762,4.317c0.208,0.234,0.536,0.401,0.841,0.503
			c1.263,0.422,2.497,0.894,3.425,1.902c0.663,0.72,1.124,1.537,0.988,2.601c-0.694,0.21-1.681-0.281-2.061,0.565
			c-0.282,0.628-0.209,1.416-0.303,2.208c-0.489,0-1.128,0-1.791,0c-0.087,0.241-0.156,0.439-0.23,0.634
			c-0.468,1.231-1.632,2.02-2.924,1.985c-1.264-0.035-2.423-0.855-2.786-2.073c-0.128-0.428-0.306-0.529-0.714-0.523
			C16.899,25.302,15.382,25.289,13.832,25.289z M15.083,18.476c1.628,0,3.227-0.049,4.82,0.021c0.79,0.035,1.125-0.218,1.336-0.974
			c0.159-0.57,0.14-0.948-0.281-1.373c-0.562-0.568-1.048-1.211-1.593-1.797c-0.144-0.155-0.391-0.31-0.587-0.306
			c-1.226,0.023-2.45,0.092-3.694,0.146C15.083,15.659,15.083,17.034,15.083,18.476z M13.659,14.337
			c-2.319,0.321-4.454,0.958-6.308,2.398c-0.626,0.486-0.647,1.036-0.491,1.7c2.283,0,4.523,0,6.799,0
			C13.659,17.061,13.659,15.729,13.659,14.337z M12.574,24.831c-0.004-1.008-0.815-1.804-1.824-1.791
			c-0.968,0.013-1.779,0.812-1.798,1.772c-0.019,0.948,0.857,1.842,1.811,1.847C11.737,26.665,12.578,25.816,12.574,24.831z
			 M23.794,24.867c0.013-1.011-0.78-1.823-1.785-1.83c-0.989-0.007-1.829,0.82-1.831,1.802c-0.002,0.932,0.826,1.781,1.771,1.816
			C22.913,26.691,23.782,25.849,23.794,24.867z M26.544,21.618c0.747,0,1.446,0,2.305,0c-0.392-0.614-0.719-1.126-1.034-1.621
			C26.87,20.323,26.57,20.713,26.544,21.618z"/>
		<path fill="#92CC78" d="M28.783,25.289c-1.321,0-1.703-0.505-1.339-1.792c0.038-0.133,0.163-0.345,0.249-0.345
			c0.715-0.003,1.5-0.14,2.125,0.11c0.609,0.243,0.369,1.041,0.297,1.592c-0.067,0.513-0.558,0.434-0.944,0.435
			C29.042,25.29,28.912,25.289,28.783,25.289z"/>
		<path fill="#92CC78" d="M4.501,25.289c-0.195,0-0.391-0.01-0.585,0.002c-0.518,0.032-0.74-0.194-0.755-0.722
			c-0.044-1.512-0.048-1.522,1.457-1.521c0.217,0,0.469-0.069,0.641,0.019c0.231,0.118,0.409,0.351,0.59,0.552
			c0.044,0.049,0.013,0.168,0.016,0.254C5.906,25.267,5.884,25.289,4.501,25.289z"/>
	</g>
</g>
</svg>
