<?xml version="1.0" encoding="utf-8"?>
<!-- Generator: Adobe Illustrator 17.0.0, SVG Export Plug-In . SVG Version: 6.00 Build 0)  -->
<!DOCTYPE svg PUBLIC "-//W3C//DTD SVG 1.1//EN" "http://www.w3.org/Graphics/SVG/1.1/DTD/svg11.dtd">
<svg version="1.1" id="Capa_1" xmlns="http://www.w3.org/2000/svg" xmlns:xlink="http://www.w3.org/1999/xlink" x="0px" y="0px"
	 width="33px" height="33px" viewBox="0 0 33 33" enable-background="new 0 0 33 33" xml:space="preserve">
<g>
	<g>
		<path fill="#6E985B" d="M14.66,22.467c0.385,0,0.783-0.014,1.193-0.042c0.367-0.025,0.644-0.342,0.619-0.708
			c-0.025-0.368-0.331-0.646-0.709-0.62c-2.338,0.159-4.189-0.168-5.657-0.99c-2.674-1.503-2.477-4.995-2.006-7.869
			c0.049-0.3,0.107-0.597,0.165-0.893c0.164-0.837,0.333-1.704,0.302-2.631L8.533,7.913c-0.02-0.445-0.04-0.877-0.044-1.306
			C8.78,6.89,9.034,7.224,9.308,7.584c0.333,0.438,0.677,0.89,1.13,1.305c0.92,0.844,2.07,1.332,3.183,1.807
			c1.284,0.546,2.498,1.063,3.263,2.063c1.556,2.034,1.702,5.283,0.326,7.242c-0.211,0.3-0.138,0.715,0.162,0.927
			c0.302,0.213,0.717,0.138,0.927-0.162c1.714-2.44,1.556-6.312-0.359-8.814c-0.978-1.279-2.412-1.889-3.799-2.479
			c-1.055-0.45-2.053-0.875-2.804-1.564c-0.366-0.334-0.66-0.72-0.97-1.13c-0.574-0.754-1.167-1.533-2.23-2.004
			C7.941,4.686,7.716,4.699,7.53,4.809c-0.185,0.109-0.306,0.3-0.325,0.515c-0.081,0.914-0.04,1.796-0.001,2.65l0.033,0.784
			c0.025,0.776-0.122,1.531-0.279,2.331c-0.06,0.309-0.121,0.62-0.173,0.933c-0.317,1.941-1.16,7.093,2.669,9.245
			C10.886,22.071,12.597,22.467,14.66,22.467z"/>
	</g>
	<g>
		<path fill="#6E985B" d="M9.884,8.94c0,0-0.051,0.237-0.118,0.652c0.019,0.21,0.029,0.492,0.09,0.806
			c0.089,0.282,0.152,0.641,0.314,0.969c0.267,0.7,0.71,1.432,1.165,2.186c0.241,0.381,0.437,0.738,0.655,1.138
			c0.223,0.41,0.453,0.827,0.642,1.233c0.439,0.798,0.783,1.642,1.097,2.425c0.131,0.401,0.257,0.788,0.377,1.156
			c0.073,0.375,0.15,0.732,0.23,1.068c0.033,0.34,0.064,0.653,0.091,0.929c0.048,0.284-0.004,0.525,0.005,0.733
			c-0.002,0.422-0.003,0.663-0.003,0.663s0.102-0.213,0.263-0.611c0.063-0.201,0.212-0.44,0.243-0.737
			c0.054-0.294,0.122-0.631,0.166-1.005c0.003-0.37,0.01-0.779-0.015-1.21c-0.069-0.418-0.112-0.877-0.234-1.326
			c-0.143-0.438-0.23-0.925-0.439-1.36c-0.182-0.448-0.372-0.902-0.6-1.338c-0.226-0.444-0.467-0.848-0.703-1.249
			c-0.232-0.416-0.548-0.821-0.81-1.17c-0.541-0.711-1.073-1.325-1.46-1.887c-0.215-0.276-0.345-0.547-0.508-0.782
			c-0.117-0.245-0.218-0.458-0.302-0.634C9.937,9.176,9.884,8.94,9.884,8.94z"/>
	</g>
	<ellipse fill="#FFFFFF" cx="20.176" cy="18.051" rx="3.962" ry="4.542"/>
	<g>
		<path fill="#6E985B" d="M19.461,22.554c-0.307,0-0.623-0.011-0.949-0.033c-0.293-0.02-0.514-0.272-0.495-0.564
			s0.269-0.513,0.565-0.494c1.87,0.119,3.344-0.135,4.513-0.791c2.132-1.198,1.976-3.983,1.601-6.276
			c-0.039-0.24-0.086-0.477-0.132-0.713c-0.131-0.669-0.267-1.359-0.242-2.099l0.027-0.644c0.016-0.354,0.032-0.696,0.035-1.037
			c-0.232,0.227-0.434,0.492-0.652,0.779c-0.266,0.35-0.541,0.711-0.903,1.042c-0.734,0.672-1.651,1.063-2.539,1.441
			c-1.024,0.437-1.992,0.849-2.603,1.646c-1.241,1.622-1.358,4.212-0.26,5.774c0.168,0.24,0.11,0.571-0.129,0.74
			c-0.24,0.168-0.571,0.109-0.74-0.129c-1.367-1.947-1.242-5.035,0.286-7.03c0.78-1.02,1.923-1.507,3.029-1.979
			c0.842-0.358,1.638-0.697,2.238-1.247c0.292-0.267,0.526-0.575,0.774-0.901c0.458-0.602,0.93-1.223,1.778-1.599
			c0.156-0.069,0.336-0.059,0.484,0.028c0.147,0.087,0.244,0.239,0.259,0.41c0.064,0.728,0.032,1.43,0.001,2.109l-0.026,0.63
			c-0.021,0.618,0.097,1.222,0.222,1.859c0.048,0.247,0.097,0.494,0.138,0.745c0.253,1.548,0.925,5.658-2.128,7.374
			C22.474,22.238,21.108,22.554,19.461,22.554z"/>
	</g>
	<path fill="#6E985B" d="M23.273,11.764c0,0,0.041,0.189,0.094,0.52c-0.015,0.167-0.023,0.393-0.071,0.643
		c-0.071,0.225-0.121,0.511-0.25,0.773c-0.213,0.559-0.566,1.142-0.929,1.744c-0.192,0.304-0.349,0.589-0.522,0.908
		c-0.178,0.327-0.362,0.66-0.512,0.984c-0.35,0.637-0.625,1.31-0.875,1.935c-0.104,0.32-0.205,0.629-0.301,0.922
		c-0.058,0.299-0.12,0.584-0.184,0.852c-0.027,0.272-0.051,0.521-0.073,0.741c-0.038,0.227,0.003,0.419-0.004,0.584
		c0.002,0.336,0.003,0.529,0.003,0.529s-0.081-0.17-0.21-0.487c-0.051-0.16-0.169-0.351-0.193-0.588
		c-0.043-0.234-0.097-0.504-0.132-0.802c-0.003-0.295-0.008-0.621,0.012-0.965c0.055-0.334,0.089-0.7,0.187-1.058
		c0.114-0.349,0.184-0.738,0.35-1.085c0.145-0.357,0.297-0.719,0.478-1.067c0.181-0.355,0.373-0.676,0.561-0.996
		c0.185-0.332,0.437-0.655,0.646-0.933c0.432-0.567,0.856-1.057,1.164-1.505c0.172-0.22,0.275-0.436,0.405-0.624
		c0.093-0.195,0.174-0.366,0.241-0.506C23.231,11.953,23.273,11.764,23.273,11.764z"/>
	<path fill="#6E985B" d="M32.25,28.983c0,1.963-2.005,4.017-4.605,4.017H5.938C3.339,33,1,31.409,1,29.446l-0.486-5.239
		C0.514,22.244,3.339,21,5.938,21h21.708c2.599,0,4.704,1.244,4.704,3.207L32.25,28.983z"/>
	<circle fill="#FFFFFF" cx="4.563" cy="24.688" r="0.938"/>
	<circle fill="#FFFFFF" cx="9.563" cy="28.688" r="0.938"/>
	<circle fill="#FFFFFF" cx="14.563" cy="25.688" r="0.938"/>
	<circle fill="#FFFFFF" cx="20.563" cy="29.688" r="0.938"/>
	<circle fill="#FFFFFF" cx="24.563" cy="25.688" r="0.938"/>
	<g>
		<path fill="#6E985B" d="M27.661,33H5.339C2.395,33,0,30.604,0,27.66V5.34C0,2.396,2.395,0,5.339,0h22.321
			C30.605,0,33,2.396,33,5.34v22.32C33,30.604,30.605,33,27.661,33z M5.339,1C2.947,1,1,2.947,1,5.34v22.32
			C1,30.053,2.947,32,5.339,32h22.321C30.053,32,32,30.053,32,27.66V5.34C32,2.947,30.053,1,27.661,1H5.339z"/>
	</g>
</g>
</svg>
