<?xml version="1.0" encoding="utf-8"?>
<!-- Generator: Adobe Illustrator 17.0.0, SVG Export Plug-In . SVG Version: 6.00 Build 0)  -->
<!DOCTYPE svg PUBLIC "-//W3C//DTD SVG 1.1//EN" "http://www.w3.org/Graphics/SVG/1.1/DTD/svg11.dtd">
<svg version="1.1" id="Capa_1" xmlns="http://www.w3.org/2000/svg" xmlns:xlink="http://www.w3.org/1999/xlink" x="0px" y="0px"
	 width="33px" height="33px" viewBox="0 0 33 33" enable-background="new 0 0 33 33" xml:space="preserve">
<g>
	<g>
		<path fill="#6E985B" d="M27.661,33H5.339C2.395,33,0,30.604,0,27.66V5.34C0,2.396,2.395,0,5.339,0h22.321
			C30.605,0,33,2.396,33,5.34v22.32C33,30.604,30.605,33,27.661,33z M5.339,1C2.947,1,1,2.947,1,5.34v22.32
			C1,30.053,2.947,32,5.339,32h22.321C30.053,32,32,30.053,32,27.66V5.34C32,2.947,30.053,1,27.661,1H5.339z"/>
	</g>
	<g>
		<g>
			<path fill="#6E985B" d="M13.367,10.759c-0.46,1.896-0.857,3.534-1.289,5.317c2.933,0.004,4.573-1.341,5.731-3.586
				c0.972,1.755,1.866,3.369,2.76,4.983c0.178-0.041,0.355-0.083,0.533-0.124c0.844-1.858,0.903-3.837,0.571-5.747
				c3.312-0.898,4.85,1.202,6.082,3.565c1.544,2.961,1.507,5.985-0.218,8.901c-2.338,3.952-7.454,5.892-12.942,4.943
				c-4.776-0.827-8.779-4.54-9.613-8.918c-0.791-4.153,1.923-8.959,5.945-10.156C11.629,9.729,12.617,10.486,13.367,10.759z
				 M26.956,21.473c-2.041,4.016-5.585,5.786-9.777,6.616C21.875,28.586,26.65,25.344,26.956,21.473z M7.813,21.663
				c0.1-1.642,0.003-3.328,0.356-4.914c0.353-1.582,1.159-3.063,1.859-4.822C7.122,14.855,6.204,18.66,7.813,21.663z"/>
		</g>
		<g>
			<path fill="#6E985B" d="M17.971,11.427c-1.358,2.024-2.426,4.035-5.441,4.108c0.642-1.808,1.229-3.46,1.823-5.131
				c-1.18,0.043-2.277-0.517-2.856-2.32c1.087,0.123,1.975,0.175,2.844,0.332c2.15,0.389,3.113-0.363,3.169-2.559
				c0.008-0.317-0.079-0.636-0.151-1.164c0.878,0.145,1.653,0.273,2.482,0.41c-0.285,1.31-0.542,2.493-0.792,3.64
				c2.044,0.331,3.905,0.633,6.066,0.983c-1.362,1.807-2.744,1.128-4.06,0.966c0,1.96,0,3.824,0,5.689
				c-0.168,0.052-0.335,0.105-0.503,0.157C19.749,14.948,18.945,13.356,17.971,11.427z"/>
		</g>
		<g>
			<path fill="#6E985B" d="M26.956,21.473c-0.306,3.871-5.081,7.112-9.777,6.616C21.371,27.26,24.915,25.49,26.956,21.473z"/>
		</g>
		<g>
			<path fill="#6E985B" d="M7.813,21.663c-1.609-3.002-0.69-6.807,2.215-9.736c-0.7,1.759-1.506,3.24-1.859,4.822
				C7.815,18.334,7.913,20.021,7.813,21.663z"/>
		</g>
	</g>
</g>
</svg>
