<?xml version="1.0" encoding="utf-8"?>
<!-- Generator: Adobe Illustrator 17.0.0, SVG Export Plug-In . SVG Version: 6.00 Build 0)  -->
<!DOCTYPE svg PUBLIC "-//W3C//DTD SVG 1.1//EN" "http://www.w3.org/Graphics/SVG/1.1/DTD/svg11.dtd">
<svg version="1.1" id="Capa_1" xmlns="http://www.w3.org/2000/svg" xmlns:xlink="http://www.w3.org/1999/xlink" x="0px" y="0px"
	 width="33.195px" height="32.69px" viewBox="0 0 33.195 32.69" enable-background="new 0 0 33.195 32.69" xml:space="preserve">
<g>
	<g>
		<defs>
			<path id="SVGID_93_" d="M32.695,27.66c0,2.673-2.167,4.84-4.84,4.84H5.534c-2.673,0-4.84-2.167-4.84-4.84V5.34
				c0-2.673,2.167-4.84,4.84-4.84h22.321c2.673,0,4.84,2.167,4.84,4.84V27.66z"/>
		</defs>
		<clipPath id="SVGID_2_">
			<use xlink:href="#SVGID_93_"  overflow="visible"/>
		</clipPath>
		<g clip-path="url(#SVGID_2_)">
			<g>
				<path fill="#92CC78" d="M7.892,37.697c-3.903,0-7.091-1.398-8.975-3.939c-3.915-5.278-0.421-13.367,8.693-20.127
					c4.91-3.642,9.887-5.646,14.015-5.646c3.156,0,5.71,1.195,7.386,3.456c4.152,5.599,0.779,15.159-7.518,21.312
					c-2.005,1.486-4.143,2.669-6.354,3.515C12.693,37.202,10.187,37.697,7.892,37.697z M21.626,9.152
					c-3.879,0-8.609,1.924-13.319,5.416c-8.42,6.245-11.895,13.85-8.451,18.494c1.658,2.235,4.512,3.467,8.036,3.467
					c2.153,0,4.516-0.468,6.832-1.354c2.112-0.807,4.156-1.938,6.075-3.36c7.779-5.77,11.043-14.598,7.275-19.679
					C26.606,10.156,24.437,9.152,21.626,9.152z"/>
			</g>
			<g>
				<path fill="#92CC78" d="M9.772,34.104c-3.215,0-5.85-1.167-7.421-3.284c-1.647-2.222-1.717-5.007-0.202-8.054
					c1.324-2.661,3.88-5.481,7.198-7.942c3.969-2.943,7.915-4.564,11.11-4.564c2.466,0,4.487,0.968,5.845,2.798
					c1.67,2.252,1.96,5.299,0.818,8.578c-1.115,3.2-3.472,6.255-6.639,8.604c-1.951,1.447-4.132,2.552-6.307,3.195
					C12.671,33.878,11.189,34.104,9.772,34.104z M20.457,11.438c-2.944,0-6.64,1.539-10.408,4.333
					c-3.171,2.352-5.602,5.022-6.844,7.521c-0.91,1.829-1.633,4.498,0.093,6.825c1.343,1.812,3.642,2.809,6.474,2.809
					c1.304,0,2.672-0.209,4.068-0.622c2.044-0.604,4.098-1.646,5.939-3.012c2.979-2.208,5.19-5.065,6.228-8.044
					c1.01-2.899,0.778-5.559-0.652-7.487C24.212,12.219,22.564,11.438,20.457,11.438z"/>
			</g>
			<g>
				<path fill="#92CC78" d="M10.131,30.335c-2.239,0-4.063-0.796-5.135-2.243c-2.179-2.938-0.128-6.969,5.776-11.348
					c5.711-4.234,9.978-4.878,12.152-1.948c2.406,3.244,0.342,8.866-4.601,12.532c-1.662,1.232-3.504,2.137-5.329,2.617
					C12.008,30.204,11.045,30.335,10.131,30.335z M19.225,14.146c-1.959,0-4.643,1.222-7.76,3.533
					c-2.471,1.833-7.958,6.45-5.534,9.719c1.219,1.643,3.847,2.188,6.768,1.42c1.682-0.442,3.387-1.281,4.931-2.426
					c4.427-3.283,6.382-8.175,4.359-10.903C21.319,14.586,20.415,14.146,19.225,14.146z"/>
			</g>
			<g>
				<path fill="#92CC78" d="M11.487,27.395c-1.513,0-2.75-0.545-3.484-1.533c-1.958-2.64,1.891-5.494,4.19-7.2
					c2.31-1.713,4.042-2.774,5.54-2.774c0.889,0,1.624,0.384,2.184,1.14c1.649,2.224,0.325,5.907-3.015,8.385
					c-1.388,1.028-2.973,1.709-4.464,1.916C12.113,27.372,11.795,27.395,11.487,27.395z M17.733,17.052
					c-1.242,0-3.063,1.224-4.846,2.545c-3.128,2.321-4.998,4.156-3.949,5.571c0.623,0.839,1.871,1.212,3.34,1.005
					c1.301-0.181,2.696-0.783,3.93-1.697c2.721-2.02,3.991-5.113,2.773-6.756C18.644,17.264,18.247,17.052,17.733,17.052z"/>
			</g>
		</g>
		<use xlink:href="#SVGID_93_"  overflow="visible" fill="none" stroke="#92CC78" stroke-miterlimit="10"/>
	</g>
	<g>
		<path fill="#92CC78" d="M33.195,27.66c0,2.949-2.391,5.34-5.339,5.34H5.534c-2.949,0-5.339-2.391-5.339-5.34V5.34
			C0.195,2.391,2.585,0,5.534,0h22.321c2.949,0,5.339,2.391,5.339,5.34V27.66z M32.195,5.34c0-2.397-1.943-4.34-4.339-4.34H5.534
			C3.138,1,1.195,2.943,1.195,5.34v22.32c0,2.397,1.943,4.34,4.339,4.34h22.321c2.397,0,4.339-1.943,4.339-4.34V5.34z"/>
	</g>
</g>
<g>
	<g>
		<defs>
			<path id="SVGID_95_" d="M68.195,28.16c0,2.673-2.167,4.84-4.84,4.84H41.034c-2.673,0-4.84-2.167-4.84-4.84V5.84
				c0-2.673,2.167-4.84,4.84-4.84h22.321c2.673,0,4.84,2.167,4.84,4.84V28.16z"/>
		</defs>
		<clipPath id="SVGID_4_">
			<use xlink:href="#SVGID_95_"  overflow="visible"/>
		</clipPath>
		<g clip-path="url(#SVGID_4_)">
			<g>
				<polygon fill="#6E985B" points="31.846,17.479 31.261,16.618 55.676,-0.771 39.576,-2.952 39.71,-3.993 58.43,-1.455 				"/>
			</g>
		</g>
		<g clip-path="url(#SVGID_4_)">
			<g>
				<polygon fill="#6E985B" points="36.195,38.968 36.195,24.342 47.953,13.96 48.582,14.752 37.195,24.821 33,39.448 
					56.798,22.746 57.368,23.602 				"/>
			</g>
		</g>
	</g>
</g>
</svg>
