<?xml version="1.0" encoding="utf-8"?>
<!-- Generator: Adobe Illustrator 17.0.0, SVG Export Plug-In . SVG Version: 6.00 Build 0)  -->
<!DOCTYPE svg PUBLIC "-//W3C//DTD SVG 1.1//EN" "http://www.w3.org/Graphics/SVG/1.1/DTD/svg11.dtd">
<svg version="1.1" id="Capa_1" xmlns="http://www.w3.org/2000/svg" xmlns:xlink="http://www.w3.org/1999/xlink" x="0px" y="0px"
	 width="33px" height="33px" viewBox="0 0 33 33" enable-background="new 0 0 33 33" xml:space="preserve">
<g>
	<g>
		<g>
			<path fill="#00BFA5" d="M33,27.66c0,2.949-2.391,5.34-5.34,5.34H5.34C2.391,33,0,30.609,0,27.66V5.34C0,2.391,2.391,0,5.34,0
				h22.32C30.609,0,33,2.391,33,5.34V27.66z M32,5.34C32,2.943,30.057,1,27.661,1H5.339C2.943,1,1,2.943,1,5.34v22.32
				C1,30.057,2.943,32,5.339,32h22.321C30.057,32,32,30.057,32,27.66V5.34z"/>
		</g>
	</g>
</g>
<g>
	<path fill="#C6502C" d="M17.594,17.787c-0.103,0.006-0.207,0.012-0.442,0.026c1.356-2.087,1.851-4.272,1.252-6.638
		c-0.602-2.382-2.088-4.069-4.447-5.319c1.79-0.285,3.3-0.459,4.737,0.369c3.154,1.385,4.464,5.474,2.752,8.483
		C20.563,16.259,19.211,17.177,17.594,17.787z"/>
	<path fill="#C1027A" d="M16.261,18.55c-0.06-0.117-0.124-0.232-0.176-0.353c-0.019-0.045-0.012-0.101-0.022-0.221
		c2.357,0.631,4.598,0.374,6.635-0.96c2.01-1.316,3.186-3.214,3.567-5.763c0.746,0.955,1.076,1.886,1.197,2.905
		c0.021,0.175,0.042,0.351,0.063,0.526c-0.003,0.188-0.007,0.375-0.01,0.563c-0.026,0.074-0.068,0.146-0.075,0.221
		c-0.229,2.443-1.475,4.198-3.717,5.134c-2.335,0.974-4.518,0.579-6.438-1.101C16.934,19.195,16.601,18.868,16.261,18.55z"/>
	<path fill="#673E87" d="M15.236,17.035c0.531-0.363,0.322,0.169,0.335,0.309c0.165,1.697,0.761,3.21,1.86,4.521
		c1.101,1.313,2.483,2.205,4.148,2.567c1.028,0.224,2.096,0.265,3.289,0.404c-1.001,1.191-2.149,1.924-3.597,2.184
		c-0.335,0.054-0.669,0.15-1.004,0.154c-2.349,0.028-4.208-0.938-5.443-2.925c-1.259-2.025-1.208-4.142-0.15-6.255
		c0.103-0.205,0.164-0.431,0.244-0.648c0.051-0.054,0.103-0.109,0.154-0.163C15.126,17.133,15.181,17.084,15.236,17.035z"/>
	<path fill="#5B9ED6" d="M16.039,15.742c0.113,0.068,0.227,0.133,0.337,0.205c0.017,0.011,0.015,0.049-0.009-0.04
		c-0.994,0.641-2.05,1.156-2.9,1.904c-2.436,2.144-3.222,5.538-2.118,8.588c0.089,0.247,0.178,0.494,0.268,0.741
		c-0.036,0.033-0.068,0.068-0.098,0.106c-1.215-0.342-2.064-1.168-2.81-2.129c-0.142-0.183-0.298-0.356-0.447-0.533
		c0.008-0.047,0.002-0.091-0.018-0.134c-0.003-0.032-0.008-0.064-0.015-0.096c-0.046-0.122-0.085-0.247-0.138-0.366
		c-1.524-3.375,0.475-7.492,4.057-8.398C13.468,15.255,14.75,15.455,16.039,15.742z"/>
	<path fill="#669F43" d="M17.461,16.075c-0.013,0.1-0.026,0.199-0.04,0.299c-0.049,0.003-0.096,0.015-0.141,0.036
		c-3.068-3.864-8.65-4.074-11.975-0.649c-0.031,0.032-0.088,0.038-0.201,0.083c-0.044-1.475,0.441-2.731,1.285-3.873
		c0.062-0.048,0.135-0.085,0.184-0.144c1.591-1.927,3.701-2.517,6.032-2.021c2.44,0.519,3.981,2.157,4.63,4.575
		C17.381,14.925,17.389,15.509,17.461,16.075z"/>
	<path fill="#B2C993" d="M17.461,16.075c-0.072-0.566-0.08-1.15-0.226-1.696c-0.649-2.418-2.191-4.055-4.63-4.575
		c-2.33-0.496-4.441,0.094-6.032,2.021c-0.048,0.059-0.122,0.096-0.184,0.144c-0.221,0.016-0.495-0.045-0.655,0.063
		c-0.627,0.425-1.217,0.903-2.019,1.333c0.231-0.735,0.387-1.505,0.707-2.198C5.897,7.97,9.79,6.381,13.087,7.585
		c3.412,1.247,5.374,4.861,4.501,8.299C17.571,15.954,17.504,16.012,17.461,16.075z"/>
	<path fill="#D697B7" d="M16.261,18.55c0.341,0.318,0.673,0.646,1.024,0.952c1.92,1.68,4.103,2.075,6.438,1.101
		c2.243-0.935,3.488-2.69,3.717-5.134c0.007-0.075,0.049-0.147,0.075-0.221c0.051,0.088,0.102,0.176,0.249,0.43
		c0.368-1.117,0.694-2.106,1.047-3.173c1.163,2.379,1.255,4.708-0.092,6.992c-1.37,2.322-3.495,3.536-6.15,3.487
		c-2.781-0.051-4.904-1.408-6.212-3.92C16.278,18.917,16.29,18.723,16.261,18.55z"/>
	<path fill="#DDA987" d="M17.594,17.787c1.617-0.61,2.969-1.528,3.852-3.078c1.713-3.009,0.402-7.098-2.752-8.483
		c-0.591-0.567-1.167-1.152-1.782-1.692c-0.251-0.22-0.586-0.345-0.895-0.52c2.297-0.721,5.375,0.397,6.951,2.511
		c3.201,4.294,0.84,10.302-4.431,11.255C18.232,17.836,17.909,17.787,17.594,17.787z"/>
	<path fill="#9C81AD" d="M14.917,17.346c-0.08,0.216-0.141,0.443-0.244,0.648c-1.058,2.113-1.109,4.23,0.15,6.255
		c1.235,1.987,3.095,2.952,5.443,2.925c0.335-0.004,0.669-0.1,1.004-0.154c0.489,0.11,0.974,0.278,1.469,0.314
		c0.598,0.044,1.204-0.024,1.806-0.043l0.043,0.041c-3.017,3.629-9.245,2.725-11.395-1.653c-1.333-2.715-0.78-6.066,1.341-8.079
		C14.644,17.496,14.789,17.429,14.917,17.346z"/>
	<path fill="#95C7ED" d="M8.242,24.449c0.02,0.043,0.026,0.088,0.018,0.134c0.225,1.006,0.45,2.012,0.675,3.019
		c-0.023,0.022-0.045,0.044-0.066,0.067c-2.286-1.108-3.542-3.009-3.746-5.46c-0.329-3.97,1.951-6.898,5.857-7.635
		c1.809-0.341,3.559-0.026,5.059,1.168c-1.288-0.287-2.571-0.486-3.893-0.152c-3.581,0.905-5.58,5.023-4.057,8.398
		c0.054,0.119,0.093,0.244,0.138,0.366c-0.014,0.01-0.028,0.02-0.043,0.03C8.204,24.405,8.223,24.427,8.242,24.449z"/>
	<path fill="#B2C993" d="M17.28,16.41c0.045-0.021,0.091-0.033,0.141-0.036c-0.013,0.045-0.026,0.09-0.039,0.134
		C17.348,16.476,17.314,16.443,17.28,16.41z"/>
	<path fill="#9C81AD" d="M15.236,17.035c-0.055,0.049-0.11,0.099-0.165,0.148C15.126,17.133,15.181,17.084,15.236,17.035z"/>
	<path fill="#5B9ED6" d="M11.616,27.139c0.031,0.037,0.062,0.074,0.093,0.11c-0.064-0.002-0.127-0.004-0.191-0.005
		C11.548,27.207,11.58,27.172,11.616,27.139z"/>
	<path fill="#9C81AD" d="M24.546,27.291c0.032-0.028,0.064-0.057,0.096-0.085c-0.018,0.042-0.036,0.084-0.053,0.126
		C24.589,27.332,24.546,27.291,24.546,27.291z"/>
	<path fill="#95C7ED" d="M8.935,27.602c0.01,0.048,0.021,0.097,0.031,0.145c-0.032-0.026-0.065-0.053-0.097-0.079
		C8.89,27.646,8.912,27.624,8.935,27.602z"/>
	<path fill="#FEFDFE" d="M8.242,24.449c-0.019-0.022-0.038-0.044-0.057-0.066c0.014-0.01,0.029-0.02,0.043-0.03
		C8.234,24.385,8.239,24.417,8.242,24.449z"/>
</g>
</svg>
