<?xml version="1.0" encoding="utf-8"?>
<!-- Generator: Adobe Illustrator 17.0.0, SVG Export Plug-In . SVG Version: 6.00 Build 0)  -->
<!DOCTYPE svg PUBLIC "-//W3C//DTD SVG 1.1//EN" "http://www.w3.org/Graphics/SVG/1.1/DTD/svg11.dtd">
<svg version="1.1" id="Capa_1" xmlns="http://www.w3.org/2000/svg" xmlns:xlink="http://www.w3.org/1999/xlink" x="0px" y="0px"
	 width="127.442px" height="126.864px" viewBox="0 0 127.442 126.864" enable-background="new 0 0 127.442 126.864"
	 xml:space="preserve">
<g>
	<ellipse fill="#FFFFFF" cx="63.857" cy="63.503" rx="62.905" ry="63.131"/>
</g>
<g>
	<g>
		<defs>
			<circle id="SVGID_13_" cx="64.06" cy="63.382" r="63.382"/>
		</defs>
		<clipPath id="SVGID_2_">
			<use xlink:href="#SVGID_13_"  overflow="visible"/>
		</clipPath>
		<path clip-path="url(#SVGID_2_)" fill="none" d="M1.314,52.212c0.271-1.49,0.593-2.962,0.967-4.413
			c-1.712,1.228-3.425,2.548-5.143,3.973C-1.473,51.932-0.08,52.078,1.314,52.212z"/>
		<path clip-path="url(#SVGID_2_)" fill="#88C0B5" d="M66.368,24.628c5.368,1.055,13.666,0.775,22.452,0.479
			c8.803-0.297,17.783-0.598,25.11,0.326c-11.549-15.219-29.828-25.05-50.406-25.05c-16.227,0-31.025,6.115-42.221,16.162
			c11.545,1.178,22.503,3.444,33.909,5.81C58.838,23.107,62.587,23.885,66.368,24.628z"/>
		<path clip-path="url(#SVGID_2_)" fill="#5C8F56" d="M38.363,77.759c4.358-0.526,8.839-1.505,13.173-2.452
			c6.751-1.475,13.75-2.999,20.671-2.941c5.067,0.043,10.84,1.583,16.953,3.214c11.122,2.967,22.621,6.034,30.757,0.338
			c3.589-2.512,7.201-3.817,6.773-5.373c-0.386-1.401-4.758-5.01-17.171-7.167c-8.544-1.484-18.752-2.237-26.955-2.842
			c-4.982-0.367-8.917-0.657-11.287-1.021c-13.128-2.016-26.825-2.459-40.071-2.887c-9.945-0.321-20.164-0.652-30.333-1.638
			c-0.385,2.823-0.589,5.704-0.589,8.633c0,9.367,2.039,18.258,5.694,26.255C9.279,83.835,26.06,79.244,38.363,77.759z"/>
		<path clip-path="url(#SVGID_2_)" fill="#9ABA11" d="M51.829,34.205c6.012,1.055,11.818,2.585,17.433,4.065
			c11.992,3.161,23.319,6.147,36.175,4.719c8.218-0.913,13.401-2.078,16.676-3.201c-1.601-3.932-3.585-7.666-5.908-11.156
			c-7.549-1.382-17.858-1.036-27.29-0.718c-8.951,0.303-17.405,0.588-23.088-0.53c-3.795-0.746-7.552-1.525-11.185-2.279
			c-12.119-2.514-23.727-4.916-36.034-5.995C11.856,25.923,6.643,34.263,3.534,43.567C18.36,33.917,33.69,31.022,51.829,34.205z"/>
		<path clip-path="url(#SVGID_2_)" fill="#88C0B5" d="M68.546,40.985c-5.559-1.465-11.307-2.98-17.202-4.015
			c-18.772-3.294-33.902-0.047-49.063,10.828c-0.374,1.451-0.696,2.923-0.967,4.413c10.029,0.965,20.14,1.292,29.983,1.61
			c13.329,0.43,27.111,0.875,40.406,2.918c2.261,0.347,6.342,0.648,11.067,0.997c20.588,1.518,39.381,3.408,43.894,9.418
			c0.064-1.169,0.1-2.346,0.1-3.531c0-7.432-1.286-14.563-3.641-21.187c-3.652,1.253-9.127,2.426-17.376,3.343
			C92.372,47.266,80.798,44.215,68.546,40.985z"/>
		<path clip-path="url(#SVGID_2_)" fill="#9ABA11" d="M121.528,78.218c-9.208,6.445-21.896,3.061-33.091,0.075
			c-5.936-1.583-11.542-3.079-16.253-3.119c-6.635-0.064-13.448,1.435-20.048,2.876c-4.398,0.961-8.945,1.955-13.436,2.497
			C21.772,82.59,8.177,88.485,8.207,92.005c0.006,0.721,1.058,4.424,21.236,6.515c11.456,1.187,22.277,1.124,32.742,1.065
			c16.627-0.096,32.371-0.183,50.059,4.359c6.886-8.311,11.684-18.413,13.595-29.504C124.823,75.658,123.391,76.914,121.528,78.218z
			"/>
		<path clip-path="url(#SVGID_2_)" fill="#FFFFFF" d="M1.648,46.649c13.288-3.141,9.788-21.713,22.556-21.847
			c4.828,2.711,6.744,5.203,9.57,10.95c3.3,6.712,0.55,15.268,3.779,21.379c3.045,5.763,8.547,4.926,12.611,9.316
			c1.379,1.489,2.787,6.355,3.748,7.884c1.189,1.893,4.156,4.035,5.786,7.016c1.286,2.351,1.499,6.872,3.062,8.846
			c2.274,2.871,6.405,3.128,9.004,5.977c4.062-3.367,12.963-25.611,17.526-25.288c5.227,0.37,10.775,23.544,13.123,27.152
			c3.707,5.697,7.155,7.412,13.446,11.625c-6.052,17.227-34.246,22.158-49.37,23.634c-31.593,3.083-62.246-18.13-69.754-49.585
			c-1.818-7.618-8.422-23.676-3.875-30.971"/>
		<path clip-path="url(#SVGID_2_)" fill="#9ABA11" d="M17.536,94.288c0.295-1.953,2.027-2.785,3.918-1.385
			c-0.723-7.385,11.596-2.85,14.05-0.6c4.521,4.146,1.298,14.841,9.016,14.612c4.017-0.12,5.945-4.74,10.263-2.027
			c2.253,1.415,0.592,5.926,1.415,7.779c1.492,3.358-0.217,6.02,5.966,5.836c4.661-0.138,4.85-3.552,8.116-5.198
			c3.973-2.002,6.489,1.503,8.87,1.272c2.985-0.29,5.557-5.31,8.045-0.119c2.462-1.894,10.349,0.245,10.597,3.486
			c-3.384,0.655-8.021,4.036-10.736,6.028c0.649,0.304,1.324,0.53,2.026,0.677c-12.999-0.134-25.998-0.328-38.995-0.582
			c-6.317-0.045-12.622-0.311-18.918-0.8c-5.967-1.526,1.066-0.761-0.29-1.522c-2.372-1.331-3.391-1.591-5.059-2.679
			c-2.567-1.674-3.03-2.495-5.354-5.051c-2.465-2.711-5.516-4.497-8.284-6.957"/>
		<path clip-path="url(#SVGID_2_)" fill="#5C8F56" d="M2.362,88.375c1.56-1.307,3.198-2.004,5.601-1.528
			c0.074,0.076,0.753,2.661,0.784,2.756c1.251,0.02,2.384-0.361,3.612-0.252c0.356,1.033,0.038,2.1,0.342,3.149
			c4.853,1.407,5.669,5.707,10.647,6.86c0.856-4.142,3.079-5.386,5.585-1.896c6.384-1.75,6.497,3.447,8.981,6.676
			c-3.769,6.124,1.332,4.951,5.303,3.097c1.389-3.613,1.452-2.911,2.989-2.947c3.12,2.125,9.033,3.467,8.747,8.295
			c2.408,1.76,2.888,1.445,1.187,4.678c1.862,1.459,2.327,1.644,4.679,1.622c0.36-0.634-0.224-1.485,0.183-2.103
			c1.326,0.561,3.826,0.077,5.476,0.849c0.184-4.669,4.236-7.313,6.725-2.771c1.264,0.272,2.574,0.176,3.905,0.34
			c0.16,0.062,3.15,1.865,4.322,2.451c0.133,1.029-0.036,2.1,0.101,3.124c1.383-0.323,3.236,0.032,4.627-0.227
			c0.541,1.342,0.667,4.123,0.257,5.575c-23.478,8.369-54.896,0.036-72.509-16.573c-4.478-4.222-9.384-10.374-11.21-16.135"/>
	</g>
</g>
</svg>
