<?xml version="1.0" encoding="utf-8"?>
<!-- Generator: Adobe Illustrator 17.0.0, SVG Export Plug-In . SVG Version: 6.00 Build 0)  -->
<!DOCTYPE svg PUBLIC "-//W3C//DTD SVG 1.1//EN" "http://www.w3.org/Graphics/SVG/1.1/DTD/svg11.dtd">
<svg version="1.1" id="Capa_1" xmlns="http://www.w3.org/2000/svg" xmlns:xlink="http://www.w3.org/1999/xlink" x="0px" y="0px"
	 width="153.431px" height="115.608px" viewBox="0 0 153.431 115.608" enable-background="new 0 0 153.431 115.608"
	 xml:space="preserve">
<g>
	<g>
		<path fill="#5C8F56" d="M136.675,15.22v19.248h-3.604l-0.46-1.05c-1.151,0.968-2.619,1.529-4.265,1.529
			c-4.339,0-7.43-3.154-7.43-7.55c0-4.395,3.091-7.534,7.43-7.534c1.306,0,2.5,0.352,3.514,0.982V15.22H136.675z M132.163,27.397
			c0-1.847-1.341-3.236-3.165-3.236c-1.825,0-3.166,1.39-3.166,3.236c0,1.847,1.341,3.236,3.166,3.236
			C130.822,30.634,132.163,29.244,132.163,27.397z"/>
		<path fill="#5C8F56" d="M153.279,27.264c0,0.426-0.037,0.852-0.1,1.29h-10.501c0.319,1.622,1.349,2.461,2.887,2.461
			c1.138,0,2.088-0.498,2.556-1.326h4.848c-0.995,3.228-3.856,5.244-7.404,5.244c-4.412,0-7.681-3.225-7.681-7.545
			c0-4.336,3.243-7.523,7.681-7.523C150.124,19.863,153.28,23.115,153.279,27.264L153.279,27.264z M142.764,25.856h5.717
			c-0.427-1.413-1.447-2.176-2.916-2.176C144.145,23.679,143.159,24.451,142.764,25.856z"/>
	</g>
	<g>
		<path fill="#5C8F56" d="M16.072,95.87v19.248h-3.604l-0.46-1.05c-1.151,0.968-2.619,1.529-4.265,1.529
			c-4.339,0-7.43-3.154-7.43-7.55c0-4.395,3.091-7.534,7.43-7.534c1.306,0,2.5,0.352,3.514,0.982V95.87H16.072z M11.56,108.047
			c0-1.847-1.341-3.236-3.165-3.236c-1.825,0-3.166,1.39-3.166,3.236c0,1.847,1.341,3.236,3.166,3.236
			C10.219,111.283,11.56,109.894,11.56,108.047z"/>
		<path fill="#5C8F56" d="M32.677,107.913c0,0.426-0.037,0.852-0.1,1.29H22.075c0.319,1.622,1.349,2.461,2.887,2.461
			c1.138,0,2.088-0.498,2.556-1.326h4.848c-0.995,3.228-3.856,5.244-7.404,5.244c-4.412,0-7.681-3.225-7.681-7.545
			c0-4.336,3.242-7.523,7.681-7.523C29.521,100.513,32.677,103.765,32.677,107.913L32.677,107.913z M22.161,106.506h5.717
			c-0.427-1.413-1.447-2.176-2.916-2.176C23.542,104.329,22.556,105.101,22.161,106.506z"/>
	</g>
	<g>
		<g>
			<path fill="#5C8F56" d="M9.245,55.651h-2.46v7.535H0V38.559h10.674c5.309,0,9.157,3.567,9.157,8.715
				c0,3.022-1.476,5.498-3.908,6.955l4.89,8.956H13.24L9.245,55.651z M6.785,49.935h3.099c1.896,0,2.989-1.142,2.989-2.681
				c0-1.539-1.092-2.666-2.989-2.666H6.785V49.935z"/>
			<path fill="#5C8F56" d="M41.24,53.507c0,0.572-0.05,1.144-0.134,1.732H26.998c0.429,2.179,1.813,3.306,3.879,3.306
				c1.528,0,2.805-0.669,3.434-1.781h6.512c-1.337,4.336-5.18,7.045-9.947,7.045c-5.927,0-10.319-4.333-10.319-10.136
				c0-5.824,4.356-10.107,10.319-10.107C37.001,43.566,41.241,47.935,41.24,53.507L41.24,53.507z M27.114,51.616h7.68
				c-0.574-1.899-1.943-2.923-3.917-2.923C28.969,48.693,27.643,49.729,27.114,51.616z"/>
			<path fill="#5C8F56" d="M52.241,63.807c-6.093,0-10.49-4.268-10.49-10.147c0-5.878,4.377-10.066,10.51-10.066
				c5.339,0,9.343,3.366,10.058,8.419h-6.374c-0.551-1.55-1.999-2.556-3.705-2.556c-2.3,0-3.936,1.748-3.936,4.223
				c0,2.475,1.657,4.263,3.936,4.263c1.756,0,3.179-1.075,3.72-2.772h6.429C61.65,60.332,57.591,63.808,52.241,63.807L52.241,63.807
				z"/>
			<path fill="#5C8F56" d="M63.595,55.03V44.188h6.544v10.557c0,2.006,1.079,3.185,2.827,3.185c1.748,0,2.805-1.199,2.805-3.185
				V44.188h6.544V55.03c0,5.316-3.738,8.779-9.349,8.779C67.354,63.808,63.595,60.346,63.595,55.03z"/>
			<path fill="#5C8F56" d="M97.178,44.098v5.988h-2.54c-2.316,0-3.287,1.016-3.287,3.44v9.66h-6.544V44.188h4.384l1.021,2.108
				c1.34-1.55,2.972-2.199,5.232-2.199H97.178z"/>
			<path fill="#5C8F56" d="M105.538,63.808c-5.178,0-8.325-2.734-8.385-6.851h6.298c0,1.389,0.968,2.029,2.208,2.029
				c0.957,0,1.865-0.488,1.865-1.47c0-1.096-1.439-1.408-3.263-1.71c-2.945-0.477-6.851-1.366-6.851-5.974
				c0-3.808,3.245-6.266,8.113-6.266c4.837,0,7.973,2.573,8.047,6.423h-6.129c0-1.213-0.815-1.777-2-1.777
				c-1.049,0-1.754,0.519-1.754,1.4c0,1.081,1.453,1.333,3.258,1.655c3,0.533,6.991,1.157,6.991,5.974
				C113.937,61.21,110.586,63.808,105.538,63.808L105.538,63.808z"/>
			<path fill="#5C8F56" d="M114.515,53.687c0-5.889,4.457-10.121,10.651-10.121c6.174,0,10.651,4.232,10.651,10.121
				c0,5.869-4.478,10.122-10.651,10.122C118.972,63.808,114.515,59.556,114.515,53.687z M129.263,53.688
				c0-2.497-1.711-4.243-4.097-4.243s-4.097,1.731-4.097,4.243c0,2.512,1.711,4.243,4.097,4.243S129.263,56.199,129.263,53.688z"/>
			<path fill="#5C8F56" d="M144.795,63.808c-5.178,0-8.325-2.734-8.385-6.851h6.298c0,1.389,0.968,2.029,2.208,2.029
				c0.957,0,1.864-0.488,1.864-1.47c0-1.096-1.438-1.408-3.263-1.71c-2.945-0.477-6.851-1.366-6.851-5.974
				c0-3.808,3.245-6.266,8.112-6.266c4.837,0,7.973,2.573,8.048,6.423h-6.129c0-1.213-0.814-1.777-2-1.777
				c-1.049,0-1.754,0.519-1.754,1.4c0,1.081,1.453,1.333,3.257,1.655c3,0.533,6.991,1.157,6.991,5.974
				C153.193,61.21,149.842,63.808,144.795,63.808L144.795,63.808z"/>
		</g>
	</g>
	<g>
		<g>
			<path fill="#9ABA11" d="M20.574,67.332v22.78h-5.19L6.335,77.749v12.362H0.253v-22.78h5.493l8.748,11.951V67.332H20.574z"/>
			<path fill="#9ABA11" d="M41.861,72.52v17.573h-4.679l-0.518-1.243c-1.439,1.166-3.261,1.838-5.303,1.838
				c-5.373,0-9.214-3.92-9.214-9.381c0-5.442,3.841-9.316,9.214-9.316c2.07,0,3.918,0.691,5.37,1.888l0.619-1.359L41.861,72.52z
				 M36.104,81.32c0-2.281-1.667-3.994-3.934-3.994c-2.281,0-3.934,1.713-3.934,3.994c0,2.295,1.667,4.008,3.934,4.008
				S36.104,83.615,36.104,81.32z"/>
			<path fill="#9ABA11" d="M56.255,84.809v5.302H52.09c-3.887,0-6.248-2.376-6.248-6.281v-6.631h-3.217v-1.415l7.873-8.384h1.244
				v5.138h4.414v4.661h-4.262v5.593c0,1.258,0.759,2.017,2.036,2.017H56.255z"/>
			<path fill="#9ABA11" d="M57.58,82.567V72.538h6.053v9.765c0,1.855,0.998,2.946,2.615,2.946c1.617,0,2.595-1.109,2.595-2.946
				v-9.765h6.053v10.029c0,4.917-3.457,8.12-8.648,8.12C61.056,90.687,57.58,87.484,57.58,82.567z"/>
			<path fill="#9ABA11" d="M88.644,72.455v5.539h-2.35c-2.143,0-3.041,0.94-3.041,3.182v8.936h-6.053V72.538h4.056l0.944,1.95
				c1.239-1.434,2.749-2.034,4.84-2.034H88.644z"/>
			<path fill="#9ABA11" d="M108.076,72.52v17.573h-4.679l-0.518-1.243c-1.439,1.166-3.261,1.838-5.302,1.838
				c-5.374,0-9.215-3.92-9.215-9.381c0-5.442,3.841-9.316,9.215-9.316c2.069,0,3.918,0.691,5.369,1.888l0.619-1.359L108.076,72.52z
				 M102.319,81.32c0-2.281-1.667-3.994-3.934-3.994c-2.281,0-3.934,1.713-3.934,3.994c0,2.295,1.667,4.008,3.934,4.008
				S102.319,83.615,102.319,81.32z"/>
			<path fill="#9ABA11" d="M110.619,66.193h6.053v23.919h-6.053V66.193z"/>
			<path fill="#9ABA11" d="M137.315,81.159c0,0.529-0.045,1.059-0.124,1.602h-13.049c0.397,2.016,1.677,3.058,3.588,3.058
				c1.414,0,2.595-0.619,3.177-1.648h6.024c-1.237,4.011-4.792,6.516-9.201,6.516c-5.483,0-9.545-4.008-9.545-9.376
				c0-5.387,4.029-9.349,9.545-9.349C133.394,71.963,137.316,76.004,137.315,81.159L137.315,81.159z M124.249,79.409h7.104
				c-0.531-1.756-1.798-2.704-3.623-2.704C125.965,76.705,124.739,77.664,124.249,79.409z"/>
			<path fill="#9ABA11" d="M145.576,90.687c-4.79,0-7.701-2.529-7.756-6.337h5.826c0,1.285,0.895,1.877,2.043,1.877
				c0.885,0,1.725-0.452,1.725-1.36c0-1.014-1.331-1.303-3.019-1.582c-2.725-0.442-6.337-1.264-6.337-5.526
				c0-3.523,3.002-5.796,7.505-5.796c4.474,0,7.375,2.381,7.444,5.941h-5.669c0-1.122-0.754-1.644-1.85-1.644
				c-0.971,0-1.622,0.48-1.622,1.295c0,1,1.344,1.233,3.013,1.531c2.775,0.493,6.467,1.07,6.467,5.526
				C153.345,88.284,150.246,90.687,145.576,90.687L145.576,90.687z"/>
		</g>
	</g>
	<g>
		<g>
			<path fill="#88C0B5" d="M53.474,115.608c-6.563,0-11.246-4.485-11.246-10.724c0-6.24,4.683-10.724,11.246-10.724
				c6.546,0,11.213,4.468,11.213,10.724S60.02,115.608,53.474,115.608L53.474,115.608z M53.474,110.374
				c3.107,0,5.356-2.295,5.356-5.49c0-3.195-2.249-5.491-5.356-5.491c-3.107,0-5.39,2.312-5.39,5.49
				C48.084,108.062,50.367,110.374,53.474,110.374L53.474,110.374z"/>
			<path fill="#88C0B5" d="M82.918,99.325v15.749h-4.194l-0.465-1.114c-1.29,1.045-2.923,1.647-4.752,1.647
				c-4.816,0-8.258-3.513-8.258-8.408c0-4.878,3.442-8.349,8.258-8.349c1.855,0,3.512,0.619,4.812,1.692l0.555-1.218L82.918,99.325z
				 M77.758,107.212c0-2.044-1.494-3.58-3.525-3.58c-2.044,0-3.526,1.535-3.526,3.58c0,2.057,1.494,3.592,3.526,3.592
				C76.264,110.804,77.758,109.269,77.758,107.212z"/>
			<path fill="#88C0B5" d="M94.525,115.091l-2.59-4.665l-2.641,4.665h-5.991l5.224-8.171l-4.841-7.578h5.987l2.275,3.966l2.38-3.966
				h5.904l-4.88,7.437l5.234,8.313H94.525z"/>
			<path fill="#88C0B5" d="M116.979,99.325v15.749h-4.194l-0.465-1.114c-1.29,1.045-2.923,1.647-4.752,1.647
				c-4.816,0-8.258-3.513-8.258-8.408c0-4.878,3.442-8.349,8.258-8.349c1.855,0,3.512,0.619,4.812,1.692l0.555-1.218L116.979,99.325
				z M111.819,107.212c0-2.044-1.494-3.58-3.525-3.58c-2.044,0-3.526,1.535-3.526,3.58c0,2.057,1.494,3.592,3.526,3.592
				C110.325,110.804,111.819,109.269,111.819,107.212z"/>
			<path fill="#88C0B5" d="M127.05,115.607c-5.051,0-8.697-3.538-8.697-8.412c0-4.873,3.628-8.345,8.713-8.345
				c4.426,0,7.745,2.79,8.339,6.98h-5.284c-0.456-1.285-1.657-2.119-3.072-2.119c-1.906,0-3.263,1.449-3.263,3.501
				c0,2.052,1.373,3.534,3.263,3.534c1.456,0,2.636-0.891,3.084-2.298h5.33C134.85,112.725,131.485,115.608,127.05,115.607
				L127.05,115.607z"/>
			<path fill="#88C0B5" d="M153.431,99.325v15.749h-4.194l-0.465-1.114c-1.29,1.045-2.923,1.647-4.752,1.647
				c-4.816,0-8.259-3.513-8.259-8.408c0-4.878,3.443-8.349,8.259-8.349c1.854,0,3.511,0.619,4.812,1.692l0.555-1.218L153.431,99.325
				z M148.272,107.212c0-2.044-1.494-3.58-3.526-3.58c-2.044,0-3.526,1.535-3.526,3.58c0,2.057,1.494,3.592,3.526,3.592
				C146.778,110.804,148.272,109.269,148.272,107.212z"/>
		</g>
	</g>
	<g>
		<g>
			<path fill="#88C0B5" d="M23.138,28.998h-11.58l-1.809,5.306H0.103L12.937,1.634h8.798L34.85,34.304h-9.912L23.138,28.998z
				 M17.33,11.831l-3.58,10.123h7.192L17.33,11.831z"/>
			<path fill="#88C0B5" d="M50.689,26.701v7.604h-5.973c-5.574,0-8.961-3.407-8.961-9.008v-9.51h-4.613v-2.029L42.433,1.732h1.783
				v7.369h6.332v6.685h-6.113v8.021c0,1.805,1.089,2.893,2.921,2.893H50.689z"/>
			<path fill="#88C0B5" d="M52.918,0h8.681v34.304h-8.681V0z"/>
			<path fill="#88C0B5" d="M92.066,9.075v25.203h-6.711l-0.744-1.783c-2.064,1.672-4.678,2.636-7.605,2.636
				c-7.707,0-13.215-5.623-13.215-13.455c0-7.806,5.509-13.361,13.215-13.361c2.968,0,5.62,0.991,7.701,2.708l0.889-1.949
				L92.066,9.075z M83.808,21.696c0-3.272-2.39-5.729-5.641-5.729c-3.272,0-5.642,2.457-5.642,5.729c0,3.291,2.39,5.748,5.642,5.748
				C81.418,27.444,83.808,24.987,83.808,21.696z"/>
			<path fill="#88C0B5" d="M105.437,35.13c-6.869,0-11.045-3.628-11.123-9.089h8.356c0,1.843,1.283,2.692,2.929,2.692
				c1.27,0,2.473-0.648,2.473-1.951c0-1.454-1.908-1.869-4.329-2.269c-3.908-0.633-9.089-1.813-9.089-7.925
				c0-5.052,4.305-8.313,10.763-8.313c6.418,0,10.578,3.414,10.676,8.521h-8.129c0-1.609-1.082-2.357-2.655-2.357
				c-1.391,0-2.326,0.689-2.326,1.857c0,1.434,1.927,1.768,4.322,2.195c3.981,0.707,9.275,1.535,9.275,7.926
				c0,5.267-4.445,8.714-11.144,8.714L105.437,35.13z"/>
		</g>
	</g>
</g>
</svg>
