<?xml version="1.0" encoding="utf-8"?>
<!-- Generator: Adobe Illustrator 17.0.0, SVG Export Plug-In . SVG Version: 6.00 Build 0)  -->
<!DOCTYPE svg PUBLIC "-//W3C//DTD SVG 1.1//EN" "http://www.w3.org/Graphics/SVG/1.1/DTD/svg11.dtd">
<svg version="1.1" id="Capa_1" xmlns="http://www.w3.org/2000/svg" xmlns:xlink="http://www.w3.org/1999/xlink" x="0px" y="0px"
	 width="295.378px" height="128px" viewBox="0 0 295.378 128" enable-background="new 0 0 295.378 128" xml:space="preserve">
<circle fill="#FFFFFF" cx="64.689" cy="64.404" r="63.382"/>
<g>
	<g>
		<path fill="#5C8F56" d="M277.068,22.473v19.248h-3.604l-0.46-1.05c-1.151,0.968-2.619,1.529-4.265,1.529
			c-4.339,0-7.43-3.154-7.43-7.55c0-4.395,3.091-7.534,7.43-7.534c1.306,0,2.5,0.352,3.514,0.982v-5.625H277.068z M272.555,34.65
			c0-1.847-1.341-3.236-3.165-3.236c-1.825,0-3.166,1.39-3.166,3.236c0,1.847,1.341,3.236,3.166,3.236
			C271.215,37.886,272.555,36.497,272.555,34.65z"/>
		<path fill="#5C8F56" d="M293.672,34.516c0,0.426-0.037,0.852-0.1,1.29H283.07c0.319,1.622,1.349,2.461,2.887,2.461
			c1.138,0,2.088-0.498,2.556-1.326h4.848c-0.995,3.228-3.856,5.244-7.404,5.244c-4.412,0-7.681-3.225-7.681-7.545
			c0-4.336,3.242-7.523,7.681-7.523C290.516,27.116,293.672,30.368,293.672,34.516L293.672,34.516z M283.157,33.109h5.717
			c-0.427-1.413-1.447-2.176-2.916-2.176C284.537,30.932,283.551,31.704,283.157,33.109z"/>
	</g>
	<g>
		<path fill="#5C8F56" d="M156.465,103.122v19.248h-3.604l-0.46-1.05c-1.151,0.968-2.619,1.529-4.265,1.529
			c-4.339,0-7.43-3.154-7.43-7.55c0-4.395,3.091-7.534,7.43-7.534c1.306,0,2.5,0.352,3.514,0.982v-5.625H156.465z M151.953,115.3
			c0-1.847-1.341-3.236-3.165-3.236c-1.825,0-3.166,1.39-3.166,3.236c0,1.847,1.341,3.236,3.166,3.236
			C150.612,118.536,151.953,117.147,151.953,115.3z"/>
		<path fill="#5C8F56" d="M173.069,115.166c0,0.426-0.037,0.852-0.1,1.29h-10.501c0.319,1.622,1.349,2.461,2.887,2.461
			c1.138,0,2.088-0.498,2.556-1.326h4.848c-0.995,3.228-3.856,5.244-7.404,5.244c-4.412,0-7.681-3.225-7.681-7.545
			c0-4.336,3.242-7.523,7.681-7.523C169.913,107.766,173.07,111.018,173.069,115.166L173.069,115.166z M162.554,113.758h5.717
			c-0.427-1.413-1.447-2.176-2.916-2.176C163.935,111.582,162.948,112.354,162.554,113.758z"/>
	</g>
	<g>
		<g>
			<path fill="#5C8F56" d="M149.637,62.903h-2.46v7.535h-6.785V45.812h10.674c5.309,0,9.157,3.567,9.157,8.715
				c0,3.022-1.476,5.498-3.908,6.955l4.89,8.956h-7.572L149.637,62.903z M147.178,57.188h3.099c1.896,0,2.989-1.142,2.989-2.681
				c0-1.539-1.092-2.666-2.989-2.666h-3.099V57.188z"/>
			<path fill="#5C8F56" d="M181.632,60.76c0,0.572-0.05,1.144-0.134,1.732h-14.107c0.429,2.179,1.813,3.306,3.879,3.306
				c1.528,0,2.805-0.669,3.434-1.781h6.512c-1.337,4.336-5.18,7.045-9.947,7.045c-5.927,0-10.319-4.333-10.319-10.136
				c0-5.824,4.356-10.107,10.319-10.107C177.393,50.819,181.633,55.187,181.632,60.76L181.632,60.76z M167.506,58.869h7.68
				c-0.574-1.899-1.943-2.923-3.917-2.923C169.361,55.946,168.035,56.982,167.506,58.869z"/>
			<path fill="#5C8F56" d="M192.634,71.06c-6.093,0-10.49-4.268-10.49-10.147c0-5.878,4.377-10.066,10.51-10.066
				c5.339,0,9.343,3.366,10.058,8.419h-6.374c-0.551-1.55-1.999-2.556-3.705-2.556c-2.3,0-3.936,1.748-3.936,4.223
				c0,2.475,1.657,4.263,3.936,4.263c1.756,0,3.179-1.075,3.72-2.772h6.429C202.043,67.585,197.983,71.061,192.634,71.06
				L192.634,71.06z"/>
			<path fill="#5C8F56" d="M203.988,62.283V51.441h6.544v10.557c0,2.006,1.079,3.185,2.827,3.185c1.748,0,2.805-1.199,2.805-3.185
				V51.441h6.544v10.842c0,5.316-3.738,8.779-9.349,8.779C207.746,71.061,203.988,67.598,203.988,62.283z"/>
			<path fill="#5C8F56" d="M237.57,51.351v5.988h-2.54c-2.316,0-3.287,1.016-3.287,3.44v9.66h-6.544V51.441h4.384l1.021,2.108
				c1.34-1.55,2.972-2.199,5.232-2.199H237.57z"/>
			<path fill="#5C8F56" d="M245.93,71.061c-5.178,0-8.325-2.734-8.385-6.851h6.298c0,1.389,0.968,2.029,2.208,2.029
				c0.957,0,1.865-0.488,1.865-1.47c0-1.096-1.439-1.408-3.263-1.71c-2.945-0.478-6.851-1.366-6.851-5.974
				c0-3.808,3.245-6.266,8.113-6.266c4.837,0,7.973,2.573,8.047,6.423h-6.128c0-1.213-0.815-1.777-2-1.777
				c-1.049,0-1.754,0.519-1.754,1.4c0,1.081,1.453,1.333,3.258,1.655c3,0.533,6.991,1.157,6.991,5.974
				C254.329,68.463,250.978,71.061,245.93,71.061L245.93,71.061z"/>
			<path fill="#5C8F56" d="M254.907,60.939c0-5.889,4.457-10.121,10.651-10.121c6.174,0,10.651,4.232,10.651,10.121
				c0,5.869-4.478,10.122-10.651,10.122C259.364,71.061,254.907,66.808,254.907,60.939z M269.655,60.94
				c0-2.497-1.711-4.243-4.097-4.243c-2.386,0-4.097,1.731-4.097,4.243s1.711,4.243,4.097,4.243
				C267.945,65.183,269.655,63.452,269.655,60.94z"/>
			<path fill="#5C8F56" d="M285.188,71.061c-5.178,0-8.325-2.734-8.385-6.851h6.298c0,1.389,0.968,2.029,2.208,2.029
				c0.957,0,1.864-0.488,1.864-1.47c0-1.096-1.438-1.408-3.263-1.71c-2.945-0.478-6.851-1.366-6.851-5.974
				c0-3.808,3.245-6.266,8.112-6.266c4.837,0,7.973,2.573,8.048,6.423h-6.129c0-1.213-0.814-1.777-2-1.777
				c-1.049,0-1.754,0.519-1.754,1.4c0,1.081,1.453,1.333,3.257,1.655c3,0.533,6.991,1.157,6.991,5.974
				C293.586,68.463,290.235,71.061,285.188,71.061L285.188,71.061z"/>
		</g>
	</g>
	<g>
		<g>
			<path fill="#9ABA11" d="M160.967,74.584v22.78h-5.19l-9.049-12.362v12.362h-6.082v-22.78h5.493l8.748,11.951V74.584H160.967z"/>
			<path fill="#9ABA11" d="M182.253,79.773v17.573h-4.679l-0.518-1.243c-1.439,1.166-3.261,1.838-5.303,1.838
				c-5.373,0-9.214-3.92-9.214-9.381c0-5.442,3.841-9.316,9.214-9.316c2.07,0,3.918,0.691,5.37,1.888l0.619-1.359L182.253,79.773z
				 M176.496,88.573c0-2.281-1.667-3.994-3.934-3.994c-2.281,0-3.934,1.713-3.934,3.994c0,2.295,1.667,4.008,3.934,4.008
				C174.829,92.581,176.496,90.868,176.496,88.573z"/>
			<path fill="#9ABA11" d="M196.647,92.062v5.302h-4.165c-3.887,0-6.248-2.376-6.248-6.281v-6.631h-3.217v-1.415l7.873-8.384h1.244
				v5.138h4.414v4.661h-4.262v5.593c0,1.258,0.759,2.017,2.036,2.017H196.647z"/>
			<path fill="#9ABA11" d="M197.973,89.82V79.791h6.053v9.765c0,1.855,0.998,2.946,2.615,2.946c1.617,0,2.595-1.109,2.595-2.946
				v-9.765h6.053V89.82c0,4.917-3.457,8.12-8.648,8.12C201.449,97.94,197.973,94.737,197.973,89.82z"/>
			<path fill="#9ABA11" d="M229.036,79.708v5.539h-2.35c-2.143,0-3.041,0.94-3.041,3.182v8.936h-6.053V79.791h4.056l0.944,1.95
				c1.239-1.434,2.749-2.034,4.84-2.034H229.036z"/>
			<path fill="#9ABA11" d="M248.469,79.773v17.573h-4.679l-0.518-1.243c-1.439,1.166-3.261,1.838-5.302,1.838
				c-5.374,0-9.215-3.92-9.215-9.381c0-5.442,3.841-9.316,9.215-9.316c2.069,0,3.918,0.691,5.369,1.888l0.619-1.359L248.469,79.773z
				 M242.712,88.573c0-2.281-1.667-3.994-3.934-3.994c-2.281,0-3.934,1.713-3.934,3.994c0,2.295,1.667,4.008,3.934,4.008
				C241.045,92.581,242.712,90.868,242.712,88.573z"/>
			<path fill="#9ABA11" d="M251.011,73.445h6.053v23.919h-6.053V73.445z"/>
			<path fill="#9ABA11" d="M277.708,88.412c0,0.529-0.045,1.059-0.124,1.602h-13.049c0.397,2.016,1.677,3.058,3.588,3.058
				c1.414,0,2.595-0.619,3.177-1.648h6.024c-1.237,4.011-4.792,6.516-9.201,6.516c-5.483,0-9.545-4.008-9.545-9.376
				c0-5.387,4.029-9.349,9.545-9.349C273.787,79.216,277.709,83.257,277.708,88.412L277.708,88.412z M264.641,86.662h7.104
				c-0.531-1.756-1.798-2.704-3.623-2.704C266.357,83.958,265.132,84.917,264.641,86.662z"/>
			<path fill="#9ABA11" d="M285.969,97.94c-4.79,0-7.701-2.529-7.756-6.337h5.826c0,1.285,0.895,1.877,2.043,1.877
				c0.885,0,1.725-0.452,1.725-1.36c0-1.014-1.331-1.303-3.019-1.582c-2.725-0.442-6.337-1.264-6.337-5.526
				c0-3.523,3.002-5.796,7.505-5.796c4.474,0,7.375,2.381,7.444,5.941h-5.669c0-1.122-0.754-1.644-1.85-1.644
				c-0.971,0-1.622,0.48-1.622,1.295c0,1,1.344,1.233,3.013,1.531c2.775,0.493,6.467,1.07,6.467,5.526
				C293.738,95.537,290.638,97.94,285.969,97.94L285.969,97.94z"/>
		</g>
	</g>
	<g>
		<g>
			<path fill="#88C0B5" d="M193.867,122.861c-6.563,0-11.246-4.485-11.246-10.724c0-6.24,4.683-10.724,11.246-10.724
				c6.546,0,11.213,4.468,11.213,10.724S200.413,122.86,193.867,122.861L193.867,122.861z M193.867,117.627
				c3.107,0,5.356-2.295,5.356-5.49c0-3.195-2.249-5.491-5.356-5.491s-5.39,2.312-5.39,5.49
				C188.476,115.315,190.759,117.627,193.867,117.627L193.867,117.627z"/>
			<path fill="#88C0B5" d="M223.31,106.578v15.749h-4.194l-0.465-1.114c-1.29,1.045-2.923,1.647-4.752,1.647
				c-4.816,0-8.258-3.513-8.258-8.408c0-4.878,3.442-8.349,8.258-8.349c1.855,0,3.512,0.619,4.812,1.692l0.555-1.218L223.31,106.578
				z M218.15,114.465c0-2.044-1.494-3.58-3.525-3.58c-2.044,0-3.526,1.535-3.526,3.58c0,2.057,1.494,3.592,3.526,3.592
				C216.657,118.057,218.15,116.522,218.15,114.465z"/>
			<path fill="#88C0B5" d="M234.918,122.344l-2.59-4.665l-2.641,4.665h-5.991l5.224-8.171l-4.841-7.578h5.987l2.275,3.966
				l2.38-3.966h5.904l-4.88,7.437l5.234,8.313H234.918z"/>
			<path fill="#88C0B5" d="M257.371,106.578v15.749h-4.194l-0.465-1.114c-1.29,1.045-2.923,1.647-4.752,1.647
				c-4.816,0-8.258-3.513-8.258-8.408c0-4.878,3.442-8.349,8.258-8.349c1.855,0,3.512,0.619,4.812,1.692l0.555-1.218
				L257.371,106.578z M252.211,114.465c0-2.044-1.493-3.58-3.525-3.58c-2.044,0-3.526,1.535-3.526,3.58
				c0,2.057,1.494,3.592,3.526,3.592C250.718,118.057,252.211,116.522,252.211,114.465z"/>
			<path fill="#88C0B5" d="M267.443,122.86c-5.051,0-8.697-3.538-8.697-8.412c0-4.873,3.628-8.345,8.713-8.345
				c4.426,0,7.745,2.79,8.339,6.98h-5.284c-0.456-1.285-1.657-2.119-3.072-2.119c-1.906,0-3.263,1.449-3.263,3.501
				s1.374,3.534,3.263,3.534c1.456,0,2.635-0.891,3.084-2.298h5.33C275.243,119.978,271.877,122.86,267.443,122.86L267.443,122.86z"
				/>
			<path fill="#88C0B5" d="M293.824,106.578v15.749h-4.194l-0.465-1.114c-1.29,1.045-2.923,1.647-4.752,1.647
				c-4.816,0-8.259-3.513-8.259-8.408c0-4.878,3.443-8.349,8.259-8.349c1.854,0,3.511,0.619,4.812,1.692l0.555-1.218
				L293.824,106.578z M288.664,114.465c0-2.044-1.494-3.58-3.526-3.58c-2.044,0-3.526,1.535-3.526,3.58
				c0,2.057,1.494,3.592,3.526,3.592C287.17,118.057,288.664,116.522,288.664,114.465z"/>
		</g>
	</g>
	<g>
		<g>
			<path fill="#88C0B5" d="M163.531,36.251h-11.58l-1.809,5.306h-9.645l12.834-32.671h8.798l13.115,32.671h-9.912L163.531,36.251z
				 M157.723,19.084l-3.58,10.123h7.192L157.723,19.084z"/>
			<path fill="#88C0B5" d="M191.081,33.954v7.604h-5.973c-5.574,0-8.961-3.407-8.961-9.008v-9.51h-4.613V21.01l11.292-12.024h1.783
				v7.369h6.332v6.685h-6.113v8.021c0,1.805,1.089,2.893,2.921,2.893H191.081z"/>
			<path fill="#88C0B5" d="M193.31,7.253h8.681v34.304h-8.681V7.253z"/>
			<path fill="#88C0B5" d="M232.458,16.327v25.203h-6.711l-0.744-1.783c-2.064,1.672-4.678,2.635-7.605,2.635
				c-7.707,0-13.215-5.623-13.215-13.455c0-7.806,5.509-13.361,13.215-13.361c2.968,0,5.62,0.991,7.701,2.708l0.889-1.949
				L232.458,16.327z M224.201,28.949c0-3.272-2.39-5.729-5.641-5.729c-3.272,0-5.642,2.457-5.642,5.729
				c0,3.291,2.39,5.748,5.642,5.748C221.811,34.697,224.201,32.24,224.201,28.949z"/>
			<path fill="#88C0B5" d="M245.829,42.383c-6.869,0-11.045-3.628-11.123-9.089h8.356c0,1.843,1.283,2.692,2.929,2.692
				c1.27,0,2.473-0.648,2.473-1.951c0-1.454-1.908-1.869-4.329-2.269c-3.908-0.633-9.089-1.813-9.089-7.925
				c0-5.052,4.305-8.313,10.763-8.313c6.418,0,10.578,3.414,10.676,8.521h-8.129c0-1.609-1.082-2.357-2.655-2.357
				c-1.391,0-2.326,0.689-2.326,1.857c0,1.434,1.927,1.768,4.322,2.195c3.981,0.707,9.275,1.535,9.275,7.926
				c0,5.267-4.445,8.714-11.144,8.714L245.829,42.383z"/>
		</g>
	</g>
</g>
<path fill="none" d="M129.239,37.182c0.301-1.169-0.966-2.825-3.569-4.663c-1.934-1.366-4.665-2.273-7.9-2.865
	c2.323,3.49,4.307,7.224,5.908,11.156C128.199,39.26,129.081,37.792,129.239,37.182z"/>
<g>
	<defs>
		<circle id="SVGID_11_" cx="65.625" cy="64.404" r="63.382"/>
	</defs>
	<clipPath id="SVGID_2_">
		<use xlink:href="#SVGID_11_"  overflow="visible"/>
	</clipPath>
	<path clip-path="url(#SVGID_2_)" fill="none" d="M2.878,53.233c0.271-1.49,0.593-2.962,0.967-4.413
		c-1.712,1.228-3.425,2.548-5.143,3.973C0.092,52.954,1.484,53.099,2.878,53.233z"/>
	<path clip-path="url(#SVGID_2_)" fill="#88C0B5" d="M67.933,25.65c5.368,1.055,13.666,0.775,22.452,0.479
		c8.803-0.297,17.783-0.598,25.11,0.326c-11.549-15.219-29.828-25.05-50.406-25.05c-16.227,0-31.025,6.115-42.221,16.162
		c11.545,1.178,22.503,3.444,33.909,5.81C60.403,24.129,64.152,24.906,67.933,25.65z"/>
	<path clip-path="url(#SVGID_2_)" fill="#5C8F56" d="M39.927,78.781c4.358-0.526,8.839-1.505,13.173-2.452
		c6.751-1.475,13.75-2.999,20.671-2.941c5.067,0.043,10.84,1.583,16.953,3.214c11.122,2.967,22.621,6.034,30.757,0.338
		c3.589-2.512,7.201-3.817,6.773-5.373c-0.386-1.401-4.758-5.01-17.171-7.167c-8.544-1.484-18.752-2.237-26.955-2.842
		c-4.982-0.367-8.917-0.657-11.287-1.021c-13.128-2.016-26.825-2.459-40.071-2.887c-9.945-0.321-20.164-0.652-30.333-1.638
		c-0.385,2.823-0.589,5.704-0.589,8.633c0,9.367,2.039,18.258,5.694,26.255C10.844,84.857,27.625,80.266,39.927,78.781z"/>
	<path clip-path="url(#SVGID_2_)" fill="#9ABA11" d="M53.393,35.226c6.012,1.055,11.818,2.585,17.433,4.065
		c11.992,3.161,23.319,6.147,36.175,4.719c8.218-0.913,13.401-2.078,16.676-3.201c-1.601-3.932-3.585-7.666-5.908-11.156
		c-7.549-1.382-17.858-1.036-27.29-0.718c-8.951,0.303-17.405,0.588-23.088-0.53c-3.795-0.746-7.552-1.525-11.185-2.279
		c-12.119-2.514-23.727-4.916-36.034-5.995C13.42,26.945,8.207,35.284,5.098,44.589C19.925,34.939,35.254,32.044,53.393,35.226z"/>
	<path clip-path="url(#SVGID_2_)" fill="#88C0B5" d="M70.111,42.007c-5.559-1.465-11.307-2.98-17.202-4.015
		C34.136,34.698,19.006,37.946,3.845,48.82c-0.374,1.451-0.696,2.923-0.967,4.413c10.029,0.965,20.14,1.292,29.983,1.61
		c13.329,0.43,27.111,0.875,40.406,2.918c2.261,0.347,6.342,0.648,11.067,0.997c20.588,1.518,39.381,3.408,43.894,9.418
		c0.064-1.169,0.1-2.346,0.1-3.531c0-7.432-1.286-14.563-3.641-21.187c-3.652,1.253-9.127,2.426-17.376,3.343
		C93.936,48.287,82.363,45.237,70.111,42.007z"/>
	<path clip-path="url(#SVGID_2_)" fill="#9ABA11" d="M123.092,79.24c-9.208,6.445-21.896,3.061-33.091,0.075
		c-5.936-1.583-11.542-3.079-16.253-3.119c-6.635-0.064-13.448,1.435-20.048,2.876c-4.398,0.961-8.945,1.955-13.436,2.497
		C23.337,83.612,9.741,89.507,9.771,93.026c0.006,0.721,1.058,4.424,21.236,6.515c11.456,1.187,22.277,1.124,32.742,1.065
		c16.627-0.096,32.371-0.183,50.059,4.359c6.886-8.311,11.684-18.413,13.595-29.504C126.387,76.68,124.956,77.936,123.092,79.24z"/>
	<path clip-path="url(#SVGID_2_)" fill="#FFFFFF" d="M3.213,47.671c13.288-3.141,9.788-21.713,22.556-21.847
		c4.828,2.711,6.744,5.203,9.57,10.95c3.3,6.712,0.55,15.268,3.779,21.379c3.045,5.763,8.547,4.926,12.611,9.316
		c1.379,1.489,2.787,6.355,3.748,7.884c1.189,1.893,4.156,4.035,5.786,7.016c1.286,2.351,1.499,6.872,3.062,8.846
		c2.274,2.871,6.405,3.128,9.004,5.977c4.062-3.367,12.963-25.611,17.526-25.288c5.227,0.37,10.775,23.544,13.123,27.152
		c3.707,5.697,7.155,7.412,13.446,11.625c-6.052,17.227-34.246,22.158-49.37,23.634c-31.593,3.083-62.246-18.13-69.754-49.585
		c-1.818-7.618-8.422-23.676-3.875-30.971"/>
	<path clip-path="url(#SVGID_2_)" fill="#9ABA11" d="M19.1,95.31c0.295-1.953,2.027-2.785,3.918-1.385
		c-0.723-7.385,11.596-2.85,14.05-0.6c4.521,4.146,1.298,14.841,9.016,14.612c4.017-0.12,5.945-4.74,10.263-2.027
		c2.253,1.415,0.592,5.926,1.415,7.779c1.492,3.358-0.217,6.02,5.966,5.836c4.661-0.138,4.85-3.552,8.116-5.198
		c3.973-2.002,6.489,1.503,8.87,1.272c2.985-0.29,5.557-5.31,8.045-0.119c2.462-1.894,10.349,0.245,10.597,3.486
		c-3.384,0.655-8.021,4.036-10.736,6.028c0.649,0.304,1.324,0.53,2.026,0.677c-12.999-0.134-25.998-0.328-38.995-0.582
		c-6.317-0.045-12.622-0.311-18.918-0.8c-5.967-1.526,1.066-0.761-0.29-1.522c-2.372-1.331-3.391-1.591-5.059-2.679
		c-2.567-1.674-3.03-2.495-5.354-5.051c-2.465-2.711-5.516-4.497-8.284-6.957"/>
	<path clip-path="url(#SVGID_2_)" fill="#5C8F56" d="M3.927,89.397c1.56-1.307,3.198-2.004,5.601-1.528
		c0.074,0.076,0.753,2.661,0.784,2.756c1.251,0.02,2.384-0.361,3.612-0.252c0.356,1.033,0.038,2.1,0.342,3.149
		c4.853,1.407,5.669,5.707,10.647,6.86c0.856-4.142,3.079-5.386,5.585-1.896c6.384-1.75,6.497,3.447,8.981,6.676
		c-3.769,6.124,1.332,4.951,5.303,3.097c1.389-3.613,1.452-2.911,2.989-2.947c3.12,2.125,9.033,3.467,8.747,8.295
		c2.408,1.76,2.888,1.445,1.187,4.678c1.862,1.459,2.327,1.644,4.679,1.622c0.36-0.634-0.224-1.485,0.183-2.103
		c1.326,0.561,3.826,0.077,5.476,0.849c0.184-4.669,4.236-7.313,6.725-2.771c1.264,0.272,2.574,0.176,3.905,0.34
		c0.16,0.062,3.15,1.865,4.322,2.451c0.133,1.029-0.036,2.1,0.101,3.124c1.383-0.323,3.236,0.032,4.627-0.227
		c0.541,1.342,0.667,4.123,0.257,5.575c-23.478,8.369-54.896,0.036-72.509-16.573c-4.478-4.222-9.384-10.374-11.21-16.135"/>
</g>
</svg>
