<?xml version="1.0" encoding="UTF-8" standalone="no"?>
<!-- Generator: Adobe Illustrator 17.0.0, SVG Export Plug-In . SVG Version: 6.00 Build 0)  -->

<svg
   xmlns:dc="http://purl.org/dc/elements/1.1/"
   xmlns:cc="http://creativecommons.org/ns#"
   xmlns:rdf="http://www.w3.org/1999/02/22-rdf-syntax-ns#"
   xmlns:svg="http://www.w3.org/2000/svg"
   xmlns="http://www.w3.org/2000/svg"
   xmlns:sodipodi="http://sodipodi.sourceforge.net/DTD/sodipodi-0.dtd"
   xmlns:inkscape="http://www.inkscape.org/namespaces/inkscape"
   version="1.1"
   id="Capa_1"
   x="0px"
   y="0px"
   width="166.946"
   height="35.124001"
   viewBox="0 0 166.946 35.124"
   enable-background="new 0 0 168.062 66.791"
   xml:space="preserve"
   sodipodi:docname="digepo.svg"
   inkscape:version="0.92.3 (2405546, 2018-03-11)"><metadata
   id="metadata107"><rdf:RDF><cc:Work
       rdf:about=""><dc:format>image/svg+xml</dc:format><dc:type
         rdf:resource="http://purl.org/dc/dcmitype/StillImage" /><dc:title></dc:title></cc:Work></rdf:RDF></metadata><defs
   id="defs105" /><sodipodi:namedview
   pagecolor="#ffffff"
   bordercolor="#666666"
   borderopacity="1"
   objecttolerance="10000"
   gridtolerance="10000"
   guidetolerance="10000"
   inkscape:pageopacity="0"
   inkscape:pageshadow="2"
   inkscape:window-width="1304"
   inkscape:window-height="746"
   id="namedview103"
   showgrid="false"
   inkscape:zoom="5.5874488"
   inkscape:cx="100.15909"
   inkscape:cy="5.3675653"
   inkscape:window-x="54"
   inkscape:window-y="-8"
   inkscape:window-maximized="1"
   inkscape:current-layer="g100"
   fit-margin-top="0"
   fit-margin-left="0"
   fit-margin-right="0"
   fit-margin-bottom="0" />
<g
   id="g100"
   transform="translate(-0.607789,-0.54123097)">
	<g
   id="g3819"
   transform="translate(0,0.53691767)"><g
     transform="translate(-0.506211,-4.0496867)"
     id="g14">
		<path
   style="fill:#e42328"
   inkscape:connector-curvature="0"
   id="path2"
   d="m 26.428,8.171 c 2.277,2.759 3.416,7.27 3.416,13.533 0,6.175 -1.14,10.642 -3.416,13.401 -2.235,2.716 -6.045,4.073 -11.344,4.073 -4.555,0 -8.977,-0.219 -13.314,-0.613 C 1.245,38.477 1.114,38.521 1.114,38.083 V 5.238 c 0,-0.35 0.218,-0.526 0.656,-0.57 4.337,-0.394 8.759,-0.613 13.314,-0.613 5.299,0 9.109,1.357 11.344,4.116 z m -16.117,3.898 v 19.095 h 4.773 c 3.986,0 5.431,-2.759 5.431,-9.46 0,-6.833 -1.445,-9.636 -5.431,-9.636 h -4.773 z" />
		<path
   style="fill:#e42328"
   inkscape:connector-curvature="0"
   id="path4"
   d="m 42.544,4.317 c 0.438,0 0.657,0.263 0.657,0.744 v 33.153 c 0,0.481 -0.22,0.744 -0.657,0.744 H 34.66 c -0.438,0 -0.657,-0.263 -0.657,-0.744 V 5.062 c 0,-0.481 0.22,-0.744 0.657,-0.744 h 7.884 z" />
		<path
   style="fill:#e42328"
   inkscape:connector-curvature="0"
   id="path6"
   d="m 72.456,4.975 c 0.92,0.219 1.271,0.569 1.271,1.489 v 4.905 c 0,0.482 -0.22,0.701 -0.657,0.701 H 62.208 c -2.235,0 -3.723,0.657 -4.424,1.971 -0.657,1.27 -1.007,3.81 -1.007,7.576 0,3.722 0.35,6.218 1.051,7.576 0.701,1.314 2.146,1.971 4.38,1.971 h 4.335 v -8.453 c 0,-0.482 0.22,-0.744 0.657,-0.744 h 7.27 c 0.438,0 0.657,0.262 0.657,0.744 v 11.825 c 0,0.569 -0.089,1.007 -0.263,1.313 -0.614,0.92 -2.102,1.708 -4.424,2.365 -2.32,0.657 -5.036,0.963 -8.233,0.963 -5.782,0 -9.679,-1.226 -11.738,-3.635 -2.013,-2.453 -3.021,-7.094 -3.021,-13.926 0,-7.007 0.744,-11.08 3.021,-13.883 2.322,-2.803 5.782,-3.679 11.738,-3.679 4.686,10e-4 8.103,0.307 10.249,0.921 z" />
		<path
   style="fill:#e42328"
   inkscape:connector-curvature="0"
   id="path8"
   d="m 103.332,4.317 c 0.481,0 0.701,0.22 0.701,0.657 v 6.7 c 0,0.438 -0.22,0.657 -0.701,0.657 H 88.53 v 5.519 h 13.62 c 0.481,0 0.701,0.219 0.701,0.656 v 6.263 c 0,0.438 -0.22,0.657 -0.701,0.657 H 88.53 v 5.518 h 14.802 c 0.481,0 0.701,0.22 0.701,0.657 v 6.7 c 0,0.438 -0.22,0.657 -0.701,0.657 H 79.989 c -0.438,0 -0.656,-0.219 -0.656,-0.701 V 5.018 c 0,-0.481 0.218,-0.701 0.656,-0.701 z" />
		<path
   style="fill:#e42328"
   inkscape:connector-curvature="0"
   id="path10"
   d="m 132.763,6.726 c 1.883,1.795 2.803,4.818 2.803,9.109 0,4.248 -0.92,7.139 -2.716,8.672 -1.795,1.532 -5.079,2.277 -9.854,2.277 h -5.343 v 11.475 c 0,0.569 -0.132,0.701 -0.657,0.701 h -7.884 c -0.525,0 -0.656,-0.132 -0.656,-0.701 V 5.238 c 0,-0.35 0.218,-0.526 0.656,-0.57 4.337,-0.394 8.935,-0.613 13.884,-0.613 4.642,0 7.884,0.876 9.767,2.671 z m -15.11,5.343 v 7.971 h 4.335 c 3.286,0 4.248,-0.964 4.248,-3.898 0,-2.934 -1.051,-4.074 -4.248,-4.074 h -4.335 z" />
		<path
   style="fill:#e42328"
   inkscape:connector-curvature="0"
   id="path12"
   d="M 153.083,39.178 C 141.26,38.916 138.324,35.412 138.106,21.66 c 0,-6.963 0.831,-11.08 3.153,-13.883 2.32,-2.803 5.867,-3.722 11.823,-3.722 5.956,0 9.503,0.919 11.825,3.722 2.322,2.803 3.153,6.92 3.153,13.883 -0.216,13.752 -3.152,17.256 -14.977,17.518 z m -4.511,-10.029 c 0.746,1.358 2.278,2.015 4.511,2.015 2.235,0 3.767,-0.657 4.511,-2.015 0.744,-1.358 1.14,-3.854 1.14,-7.489 0,-3.679 -0.396,-6.175 -1.14,-7.533 -0.744,-1.358 -2.277,-2.059 -4.511,-2.059 -2.233,0 -3.765,0.701 -4.511,2.059 -0.744,1.358 -1.138,3.854 -1.138,7.533 0,3.635 0.394,6.131 1.138,7.489 z" />
	</g></g>
	<g
   id="g98">
		
		
		
	</g>
</g>
</svg>